<svg width="24" height="24" viewBox="0 0 24 24" fill="none" xmlns="http://www.w3.org/2000/svg">
<path d="M6.4055 16.8514C5.2705 15.5549 4.5815 13.8549 4.5815 11.9999C4.5815 10.1449 5.2705 8.4449 6.4055 7.1484M8.9185 9.3449C8.27354 10.0789 7.91835 11.0228 7.9195 11.9999C7.91835 12.977 8.27354 13.9209 8.9185 14.6549M3.899 19.0479C2.249 17.1679 1.25 14.6989 1.25 11.9999C1.25 9.3009 2.249 6.8319 3.899 4.9519" stroke="white" stroke-linecap="round" stroke-linejoin="round"/>
<path d="M8.9185 9.34497C8.27354 10.0789 7.91835 11.0229 7.9195 12C7.91835 12.977 8.27354 13.921 8.9185 14.655" stroke="white" stroke-linecap="round" stroke-linejoin="round"/>
<path d="M17.5945 7.1484C18.7295 8.4449 19.4185 10.1449 19.4185 11.9999C19.4185 13.8549 18.7295 15.5549 17.5945 16.8514M15.0815 14.6549C15.702 13.9479 16.0805 13.0174 16.0805 11.9999C16.0805 10.9824 15.702 10.0519 15.0815 9.3449M20.101 4.9519C21.751 6.8319 22.75 9.3009 22.75 11.9999C22.75 14.6989 21.751 17.1679 20.101 19.0479" stroke="white" stroke-linecap="round" stroke-linejoin="round"/>
<path d="M15.0815 14.655C15.702 13.948 16.0805 13.0175 16.0805 12C16.0805 10.9825 15.702 10.052 15.0815 9.34497" stroke="white" stroke-linecap="round" stroke-linejoin="round"/>
</svg>
