<svg width="25" height="24" viewBox="0 0 25 24" fill="none" xmlns="http://www.w3.org/2000/svg">
<path d="M5.30005 3.5H4.80005V4V4.5H3.80005V3C3.80005 2.86739 3.85273 2.74021 3.9465 2.64645C4.04026 2.55268 4.16744 2.5 4.30005 2.5H20.3C20.4327 2.5 20.5598 2.55268 20.6536 2.64645C20.7474 2.74021 20.8 2.86739 20.8 3V21C20.8 21.1326 20.7474 21.2598 20.6536 21.3536C20.5598 21.4473 20.4327 21.5 20.3 21.5H4.30005C4.16744 21.5 4.04026 21.4473 3.9465 21.3536C3.85273 21.2598 3.80005 21.1326 3.80005 21V19.5H4.80005V20V20.5H5.30005H19.3H19.8V20V4V3.5H19.3H5.30005ZM9.85055 15.5C9.94787 15.0233 10.1831 14.5814 10.5323 14.2322C11.0011 13.7634 11.637 13.5 12.3 13.5C12.9631 13.5 13.599 13.7634 14.0678 14.2322C14.417 14.5814 14.6522 15.0233 14.7495 15.5H9.85055ZM12.3 11.5C11.9022 11.5 11.5207 11.342 11.2394 11.0607C10.9581 10.7794 10.8 10.3978 10.8 10C10.8 9.60218 10.9581 9.22065 11.2394 8.93934C11.5207 8.65804 11.9022 8.5 12.3 8.5C12.6979 8.5 13.0794 8.65804 13.3607 8.93934C13.642 9.22065 13.8 9.60218 13.8 10C13.8 10.3978 13.642 10.7794 13.3607 11.0607C13.0794 11.342 12.6979 11.5 12.3 11.5ZM2.80005 7.5H5.80005V8.5H2.80005V7.5ZM5.80005 11.5V12.5H2.80005V11.5H5.80005ZM5.80005 15.5V16.5H2.80005V15.5H5.80005Z" fill="white" stroke="#484C52"/>
</svg>
