<svg width="100" height="90" viewBox="0 0 100 90" fill="none" xmlns="http://www.w3.org/2000/svg">
<g clip-path="url(#clip0_365_2980)">
<path d="M95.5702 89.8805L95.4371 89.8296C95.4078 89.8184 92.4956 88.6828 91.1314 86.1078C89.7671 83.5326 90.4351 80.4322 90.442 80.4012L90.4735 80.26L90.6065 80.3108C90.6358 80.322 93.548 81.4577 94.9123 84.0327C96.2765 86.6078 95.6085 89.7083 95.6016 89.7393L95.5702 89.8805ZM91.3498 85.9879C92.5032 88.1651 94.8046 89.2811 95.3876 89.5359C95.4985 88.8998 95.8462 86.3277 94.6938 84.1526C93.5416 81.9777 91.2393 80.86 90.656 80.6046C90.5451 81.241 90.1975 83.8129 91.3498 85.9879Z" fill="#3F3D56"/>
<path d="M92.1738 85.2045C94.6255 86.7057 95.5697 89.6877 95.5697 89.6877C95.5697 89.6877 92.539 90.2356 90.0873 88.7343C87.6356 87.233 86.6914 84.2511 86.6914 84.2511C86.6914 84.2511 89.7222 83.7032 92.1738 85.2045Z" fill="#F50057"/>
<path d="M52.7037 48.2338C52.8225 48.0467 52.9788 47.8873 53.1624 47.7661C53.346 47.6448 53.5526 47.5644 53.7689 47.5301C53.9851 47.4958 54.206 47.5084 54.4171 47.567C54.6282 47.6257 54.8248 47.7291 54.9939 47.8704C55.0473 47.9154 55.0975 47.9642 55.1441 48.0163L61.2497 47.1116L61.5895 42.4387C61.6155 42.0802 61.7804 41.7469 62.0478 41.5121C62.3153 41.2773 62.6634 41.1603 63.0156 41.1868C63.3679 41.2133 63.6953 41.3811 63.926 41.6533C64.1567 41.9255 64.2716 42.2799 64.2456 42.6383C64.245 42.6467 64.2443 42.655 64.2436 42.6633L63.6484 49.2203L63.6455 49.2349C63.5681 49.4869 63.4129 49.7069 63.2029 49.862C62.9929 50.0172 62.7394 50.0993 62.4799 50.0962L55.2985 49.97C55.2706 50.0133 55.2405 50.0551 55.2084 50.0952C55.0695 50.2673 54.8964 50.4076 54.7005 50.5069C54.5045 50.6062 54.2902 50.6622 54.0716 50.6713C53.8529 50.6804 53.6348 50.6424 53.4316 50.5597C53.2284 50.4771 53.0446 50.3517 52.8923 50.1917C52.8614 50.1594 52.8321 50.1261 52.8044 50.0918C52.5975 49.8324 52.4763 49.5131 52.4582 49.1794C52.4401 48.8457 52.526 48.5148 52.7037 48.2338Z" fill="#FFB7B7"/>
<path d="M65.0132 88.0764L63.2718 88.0763L62.4434 81.24L65.0135 81.2401L65.0132 88.0764Z" fill="#FFB7B7"/>
<path d="M65.4572 89.7944L59.8423 89.7942V89.7219C59.8423 89.132 60.0726 88.5662 60.4824 88.1491C60.8923 87.7319 61.4482 87.4976 62.0278 87.4976H62.0279L65.4573 87.4977L65.4572 89.7944Z" fill="#2F2E41"/>
<path d="M77.1814 86.4694L75.5333 87.0414L72.5807 80.8434L75.0133 79.999L77.1814 86.4694Z" fill="#FFB7B7"/>
<path d="M78.1466 87.9496L72.8323 89.7945L72.8094 89.7261C72.6223 89.1677 72.6608 88.5566 72.9164 88.0271C73.1719 87.4976 73.6237 87.0932 74.1723 86.9027L74.1724 86.9026L77.4182 85.7759L78.1466 87.9496Z" fill="#2F2E41"/>
<path d="M66.9306 28.3023C66.9306 28.3023 65.1974 27.7197 64.0832 30.0501C62.969 32.3805 61.2357 34.9439 61.2357 34.9439L62.2261 35.177C62.2261 35.177 62.4737 33.5457 63.0928 33.3127L62.8452 35.41C62.8452 35.41 70.2733 37.8569 73.616 35.177L73.4922 34.3613C73.4922 34.3613 73.9874 34.4779 73.9874 35.177L74.3588 34.8274C74.3588 34.8274 73.9874 34.1283 72.8732 33.1962C72.1418 32.5843 71.8905 31.4203 71.8042 30.6926C71.7357 30.0765 71.4761 29.4986 71.0631 29.0427C70.3226 28.2351 68.9734 27.3766 66.9306 28.3023Z" fill="#2F2E41"/>
<path d="M67.5696 36.4443C69.3179 36.4443 70.7352 35.0017 70.7352 33.2223C70.7352 31.4428 69.3179 30.0002 67.5696 30.0002C65.8212 30.0002 64.4039 31.4428 64.4039 33.2223C64.4039 35.0017 65.8212 36.4443 67.5696 36.4443Z" fill="#FFB7B7"/>
<path d="M63.3486 39.0974L62.7731 38.9021C62.7731 38.9021 61.6219 39.3903 61.6219 40.269C61.6219 41.1477 61.4301 44.6627 61.4301 44.6627L64.0201 44.9556L63.3486 39.0974Z" fill="#CBCBCB"/>
<path d="M73.6504 58.3023C73.4117 58.03 73.2769 57.6796 73.2706 57.3147C73.2644 56.9498 73.387 56.5948 73.6162 56.3142L72.0004 42.5414C71.9846 42.2166 72.096 41.8987 72.3102 41.6574C72.5244 41.4162 72.8239 41.2713 73.143 41.2546C73.4621 41.2378 73.7747 41.3506 74.0121 41.5682C74.2496 41.7858 74.3925 42.0903 74.4096 42.415C74.4098 42.4195 74.41 42.424 74.4102 42.4285L75.8557 56.2159C75.9081 56.2695 75.9564 56.327 76.0002 56.3881C76.1161 56.5513 76.1993 56.7361 76.2451 56.932C76.2908 57.1279 76.2982 57.3311 76.2669 57.53C76.2355 57.7288 76.1659 57.9194 76.0622 58.0908C75.9584 58.2623 75.8225 58.4113 75.6622 58.5293C75.6455 58.5415 75.6287 58.5534 75.6116 58.5649C75.426 58.69 75.2154 58.7716 74.9951 58.8041C74.7748 58.8365 74.5502 58.8189 74.3374 58.7525C74.0716 58.6705 73.8337 58.5146 73.6504 58.3023Z" fill="#FFB7B7"/>
<path d="M72.1705 44.6626L74.7606 44.3697C74.7606 44.3697 74.5688 40.8548 74.5688 39.976C74.5688 39.0973 73.4176 38.6091 73.4176 38.6091L72.842 38.8044L72.1705 44.6626Z" fill="#CBCBCB"/>
<path d="M63.7325 49.5396C63.7325 49.5396 61.5261 53.6453 61.5261 58.6248C61.5261 63.6042 61.3342 86.4512 61.3342 86.4512C61.3342 86.4512 64.2121 87.8181 65.9388 86.1583L67.4737 60.8704L73.5172 85.6701C73.5172 85.6701 76.3951 86.256 77.7381 85.2796L75.148 67.9979C75.148 67.9979 74.0928 51.7902 71.2149 50.6186C68.3371 49.4469 63.7325 49.5396 63.7325 49.5396Z" fill="#2F2E41"/>
<path d="M64.1488 33.2426C65.2695 32.4172 66.1766 31.4664 66.7767 30.3354C66.7767 30.3354 68.8333 32.6612 70.0902 32.7775C71.347 32.8938 70.2044 29.9865 70.2044 29.9865L67.9193 29.405L65.7484 29.6376L64.0345 30.8005L64.1488 33.2426Z" fill="#2F2E41"/>
<path d="M70.7352 38.0233C70.7352 38.0233 70.8266 37.9733 65.3634 38.1759L63.077 38.8168L62.7731 38.902C62.7731 38.902 63.0609 44.7602 63.8283 45.8342C64.5957 46.9082 64.4039 47.494 64.212 47.5917C64.0202 47.6893 63.5405 47.494 63.8283 47.9822C64.1161 48.4704 64.4998 48.1775 64.1161 48.4704C63.7324 48.7633 63.5405 49.8373 63.5405 49.8373L71.9823 51.0089C71.9823 51.0089 72.27 47.2011 73.0375 45.2484C73.8049 43.2956 73.9968 42.5145 73.9968 42.5145L73.4212 38.6091L70.7352 38.0233Z" fill="#CBCBCB"/>
<path d="M54.6857 21.3692H54.2002V7.83389C54.2002 5.75622 53.3893 3.76364 51.9459 2.2945C50.5024 0.825359 48.5447 3.34913e-06 46.5034 0L18.3285 0C16.2871 -5.69346e-06 14.3294 0.825342 12.886 2.29448C11.4425 3.76361 10.6316 5.75619 10.6316 7.83386V82.0898C10.6316 84.1675 11.4425 86.1601 12.8859 87.6292C14.3294 89.0983 16.2871 89.9237 18.3284 89.9237H46.5033C47.5141 89.9237 48.515 89.7211 49.4488 89.3274C50.3826 88.9337 51.2311 88.3567 51.9459 87.6292C52.6606 86.9018 53.2275 86.0382 53.6143 85.0877C54.0012 84.1373 54.2002 83.1186 54.2002 82.0898V31.0039H54.6857L54.6857 21.3692Z" fill="#3F3D56"/>
<path d="M52.5622 7.88904V82.0358C52.5629 82.8034 52.415 83.5636 52.127 84.273C51.839 84.9825 51.4165 85.6272 50.8837 86.1705C50.3509 86.7138 49.7182 87.1449 49.0217 87.4393C48.3252 87.7337 47.5785 87.8855 46.8243 87.8862H18.5039C16.9805 87.8873 15.519 87.2724 14.441 86.1768C13.363 85.0812 12.7568 83.5946 12.7557 82.044V7.88904C12.7552 7.12129 12.9033 6.36095 13.1914 5.65143C13.4796 4.94191 13.9023 4.29711 14.4353 3.75385C14.9683 3.21058 15.6012 2.77949 16.2979 2.48518C16.9946 2.19087 17.7415 2.03912 18.4958 2.03858H21.9381C21.769 2.4606 21.7044 2.91848 21.7502 3.37188C21.7959 3.82528 21.9504 4.26028 22.2002 4.63855C22.4501 5.01682 22.7874 5.32675 23.1827 5.54103C23.5779 5.75531 24.0189 5.86737 24.4667 5.86733H40.6081C41.0559 5.86737 41.4969 5.75531 41.8921 5.54103C42.2873 5.32675 42.6247 5.01682 42.8745 4.63855C43.1243 4.26028 43.2789 3.82528 43.3246 3.37188C43.3703 2.91848 43.3058 2.4606 43.1366 2.03858H46.8141C48.3372 2.03719 49.7985 2.65169 50.8765 3.74689C51.9544 4.8421 52.5608 6.3283 52.5622 7.87855L52.5622 7.88904Z" fill="white"/>
<path d="M52.5622 18.8586V16.333H48.8066V2.3995C48.1687 2.15974 47.494 2.03744 46.814 2.03833H46.3252V16.333H33.2979V5.8671H30.8165V16.333H19.8984V2.03835H18.5039C18.1391 2.03777 17.7752 2.07287 17.417 2.14316V16.333H12.7557V18.8586H17.417V24.7003L12.7558 27.4392V30.3563L17.417 27.6173V44.9982H12.7557V47.5237H17.417V72.6531H12.7557V75.1786H17.417V87.7812C17.7752 87.8515 18.1391 87.8866 18.5039 87.886H19.8984V75.1786H30.8165V87.886H33.2979V75.1786H46.3252V87.886H46.814C47.494 87.8869 48.1687 87.7646 48.8066 87.5248V75.1786H52.5622V72.6531H48.8066V61.6669H52.5287V59.1413H48.8066V47.5237H52.5622V44.9982H48.8066V29.5922H52.5622V27.0667H48.8066V18.8586L52.5622 18.8586ZM27.3588 18.8586L19.8985 23.243L19.8984 18.8586H27.3588ZM19.8984 26.1588L30.8165 19.7426V44.9982H19.8984V26.1588ZM19.8984 72.6531V47.5237H30.8165V72.6531H19.8984ZM46.3252 72.6531H33.2979V61.6669H46.3252V72.6531ZM46.3252 59.1413H33.2979V47.5237H46.3252V59.1413ZM46.3252 44.9982H33.2979V29.5922H46.3252V44.9982ZM46.3252 27.0667H33.2979V18.8586H46.3252V27.0667Z" fill="#E5E5E5"/>
<path d="M54.6378 27.1135C54.6378 35.1338 40.3698 53.0005 40.3698 53.0005C40.3698 53.0005 26.1018 35.1338 26.1018 27.1135C26.1018 23.2621 27.605 19.5683 30.2808 16.8449C32.9566 14.1215 36.5857 12.5916 40.3698 12.5916C44.1539 12.5916 47.783 14.1215 50.4588 16.8449C53.1346 19.5683 54.6378 23.2621 54.6378 27.1135Z" fill="#F50057"/>
<path d="M48.8067 26.4822C48.8067 28.1805 48.3119 29.8407 47.3848 31.2528C46.4578 32.6649 45.1402 33.7655 43.5985 34.4154C42.0569 35.0654 40.3606 35.2354 38.724 34.9041C37.0875 34.5728 35.5842 33.7549 34.4043 32.554C33.2244 31.3531 32.4209 29.8231 32.0953 28.1574C31.7698 26.4917 31.9369 24.7652 32.5754 23.1961C33.214 21.6271 34.2953 20.286 35.6828 19.3424C37.0702 18.3989 38.7013 17.8953 40.37 17.8953C41.4774 17.8947 42.574 18.1162 43.5974 18.5471C44.6207 18.9779 45.5506 19.6097 46.334 20.4064C47.1174 21.203 47.739 22.1489 48.1633 23.19C48.5875 24.2312 48.8062 25.3472 48.8067 26.4743V26.4822Z" fill="white"/>
<path d="M40.3406 29.8717C42.0765 29.8717 43.4837 28.4395 43.4837 26.6727C43.4837 24.9059 42.0765 23.4736 40.3406 23.4736C38.6047 23.4736 37.1975 24.9059 37.1975 26.6727C37.1975 28.4395 38.6047 29.8717 40.3406 29.8717Z" fill="#F50057"/>
<path d="M44.9023 33.9792C43.5474 34.8561 41.9749 35.3218 40.3692 35.3215C38.7636 35.3213 37.1912 34.8552 35.8365 33.9779C36.1183 32.9756 36.7131 32.0939 37.5311 31.4662C38.349 30.8386 39.3455 30.4991 40.3699 30.4993C41.3942 30.4994 42.3907 30.8391 43.2084 31.467C44.0262 32.0949 44.6208 32.9768 44.9023 33.9792Z" fill="#F50057"/>
<path d="M40.3698 63.4816C42.494 63.4816 44.216 61.729 44.216 59.567C44.216 57.405 42.494 55.6523 40.3698 55.6523C38.2457 55.6523 36.5237 57.405 36.5237 59.567C36.5237 61.729 38.2457 63.4816 40.3698 63.4816Z" fill="#F50057"/>
<path d="M99.8759 90.0001H0.124069C0.0911642 90.0001 0.0596067 89.9868 0.0363391 89.9631C0.0130716 89.9395 0 89.9073 0 89.8738C0 89.8403 0.0130716 89.8082 0.0363391 89.7845C0.0596067 89.7609 0.0911642 89.7476 0.124069 89.7476H99.8759C99.9088 89.7476 99.9404 89.7609 99.9637 89.7845C99.9869 89.8082 100 89.8403 100 89.8738C100 89.9073 99.9869 89.9395 99.9637 89.9631C99.9404 89.9868 99.9088 90.0001 99.8759 90.0001Z" fill="#CBCBCB"/>
</g>
<defs>
<clipPath id="clip0_365_2980">
<rect width="100" height="90" fill="white"/>
</clipPath>
</defs>
</svg>
