<svg width="24" height="24" viewBox="0 0 24 24" fill="none" xmlns="http://www.w3.org/2000/svg">
<path d="M4.34304 1.40796L22.374 19.44C22.5134 19.5792 22.6239 19.7446 22.6993 19.9266C22.7748 20.1085 22.8136 20.3036 22.8137 20.5006C22.8137 20.6976 22.775 20.8927 22.6996 21.0747C22.6243 21.2567 22.5138 21.4221 22.3745 21.5615C22.2353 21.7008 22.0699 21.8113 21.8879 21.8868C21.706 21.9622 21.5109 22.001 21.3139 22.0011C21.1169 22.0011 20.9218 21.9624 20.7398 21.887C20.5578 21.8117 20.3924 21.7012 20.253 21.562L15.657 16.966L12.12 20.5L8.00004 16.38V19C8.00004 19.2652 7.89468 19.5195 7.70715 19.7071C7.51961 19.8946 7.26526 20 7.00004 20C6.73482 20 6.48047 19.8946 6.29293 19.7071C6.1054 19.5195 6.00004 19.2652 6.00004 19V15C5.99976 14.7451 5.90216 14.4999 5.72719 14.3146C5.55222 14.1293 5.31309 14.0177 5.05865 14.0028C4.8042 13.9878 4.55366 14.0706 4.35821 14.2342C4.16276 14.3978 4.03714 14.6299 4.00704 14.883L4.00104 15V16C4.00104 16.2652 3.89568 16.5195 3.70815 16.7071C3.52061 16.8946 3.26626 17 3.00104 17C2.73582 17 2.48147 16.8946 2.29393 16.7071C2.1064 16.5195 2.00104 16.2652 2.00104 16V7.21396C1.9602 5.12679 2.73886 3.10672 4.17004 1.58696L4.34304 1.40796Z" fill="white"/>
</svg>
