<svg width="24" height="24" viewBox="0 0 24 24" fill="none" xmlns="http://www.w3.org/2000/svg">
<path d="M10.1501 15L8.04209 18.72C8.02086 18.7572 8.00731 18.7982 8.00225 18.8408C7.99718 18.8833 8.0007 18.9264 8.01259 18.9675C8.03705 19.0512 8.09367 19.1219 8.17009 19.164C10.5036 20.469 13.4971 20.469 15.8291 19.164C15.9059 19.1221 15.9629 19.0514 15.9876 18.9675C15.9994 18.9263 16.0028 18.8832 15.9977 18.8407C15.9925 18.7982 15.9789 18.7571 15.9576 18.72L13.8506 15C13.32 15.4071 12.6694 15.6269 12.0006 15.625C11.3316 15.627 10.6808 15.4072 10.1501 15ZM10.4251 8.86199L8.25709 5.17649C8.23558 5.13954 8.2069 5.10728 8.17272 5.0816C8.13854 5.05592 8.09956 5.03735 8.05808 5.02699C7.9731 5.00625 7.88336 5.0201 7.80859 5.06549C5.51209 6.43349 4.01509 9.02549 3.97909 11.698C3.97812 11.7413 3.98571 11.7844 4.00141 11.8248C4.01711 11.8653 4.04061 11.9022 4.07059 11.9335C4.13059 11.996 4.21259 12.031 4.29959 12.0315L8.57459 12.0665C8.48759 11.4034 8.6228 10.7301 8.95908 10.152C9.29171 9.57175 9.80725 9.1181 10.4251 8.86199ZM15.4251 12.1375L19.7006 12.103C19.7434 12.1028 19.7857 12.094 19.825 12.0772C19.8643 12.0604 19.8999 12.0358 19.9296 12.005C19.99 11.9419 20.0229 11.8573 20.0211 11.77C19.9846 9.09699 18.4881 6.50499 16.1916 5.13749C16.117 5.09206 16.0275 5.07804 15.9426 5.09849C15.9009 5.10873 15.8618 5.12725 15.8274 5.15293C15.793 5.17861 15.7642 5.21094 15.7426 5.24799L13.5751 8.93299C14.1929 9.1891 14.7085 9.64275 15.0411 10.223C15.3777 10.8012 15.5127 11.4742 15.4251 12.1375ZM14.5001 12C14.5001 12.663 14.2367 13.2989 13.7679 13.7678C13.299 14.2366 12.6631 14.5 12.0001 14.5C11.337 14.5 10.7012 14.2366 10.2323 13.7678C9.76348 13.2989 9.50009 12.663 9.50009 12C9.50009 11.3369 9.76348 10.7011 10.2323 10.2322C10.7012 9.76338 11.337 9.49999 12.0001 9.49999C12.6631 9.49999 13.299 9.76338 13.7679 10.2322C14.2367 10.7011 14.5001 11.3369 14.5001 12Z" fill="white"/>
<path fill-rule="evenodd" clip-rule="evenodd" d="M12 21C16.9705 21 21 16.9705 21 12C21 7.0295 16.9705 3 12 3C7.0295 3 3 7.0295 3 12C3 16.9705 7.0295 21 12 21ZM12 22C17.523 22 22 17.523 22 12C22 6.477 17.523 2 12 2C6.477 2 2 6.477 2 12C2 17.523 6.477 22 12 22Z" fill="white"/>
</svg>
