<svg width="25" height="24" viewBox="0 0 25 24" fill="none" xmlns="http://www.w3.org/2000/svg">
<path d="M15.8999 21V13C15.8999 12.7348 15.7945 12.4804 15.607 12.2929C15.4195 12.1054 15.1651 12 14.8999 12H10.8999C10.6347 12 10.3803 12.1054 10.1928 12.2929C10.0053 12.4804 9.8999 12.7348 9.8999 13V21" stroke="#484C52" stroke-width="2" stroke-linecap="round" stroke-linejoin="round"/>
<path d="M3.8999 9.99997C3.89983 9.70904 3.96324 9.42159 4.08569 9.15768C4.20814 8.89378 4.3867 8.65976 4.6089 8.47197L11.6089 2.47297C11.9699 2.16788 12.4273 2.00049 12.8999 2.00049C13.3725 2.00049 13.8299 2.16788 14.1909 2.47297L21.1909 8.47197C21.4131 8.65976 21.5917 8.89378 21.7141 9.15768C21.8366 9.42159 21.9 9.70904 21.8999 9.99997V19C21.8999 19.5304 21.6892 20.0391 21.3141 20.4142C20.939 20.7893 20.4303 21 19.8999 21H5.8999C5.36947 21 4.86076 20.7893 4.48569 20.4142C4.11062 20.0391 3.8999 19.5304 3.8999 19V9.99997Z" stroke="#484C52" stroke-width="2" stroke-linecap="round" stroke-linejoin="round"/>
</svg>
