<svg width="126" height="148" viewBox="0 0 126 148" fill="none" xmlns="http://www.w3.org/2000/svg">
<path d="M11.838 71.0927C11.838 39.5677 37.394 14.0117 68.919 14.0117V14.0117C100.444 14.0117 126 39.5678 126 71.0927V138C126 143.523 121.523 148 116 148H21.838C16.3152 148 11.838 143.523 11.838 138V71.0927Z" fill="#DCEE6A" fill-opacity="0.6"/>
<path d="M73.0649 17.6767C73.0649 19.8626 72.4083 21.4573 71.2511 21.4573C70.0938 21.4573 68.5615 18.662 68.5615 16.4759C68.5615 14.2897 69.8123 13.7183 70.9695 13.7183C72.1268 13.7183 73.0649 15.4906 73.0649 17.6767Z" fill="#1D2345"/>
<path d="M69.4191 17.277C69.4191 17.277 70.6343 17.4548 70.992 19.5896C70.992 19.5896 70.4914 15.5868 69.5621 15.498" fill="#1D2345"/>
<path d="M91.5789 17.6767C91.5789 19.8626 92.2358 21.4573 93.3927 21.4573C94.55 21.4573 96.0822 18.662 96.0822 16.4759C96.0822 14.2897 94.8315 13.7183 93.6743 13.7183C92.517 13.7183 91.5789 15.4906 91.5789 17.6767Z" fill="#1D2345"/>
<path d="M95.2246 17.277C95.2246 17.277 94.0094 17.4548 93.6517 19.5896C93.6517 19.5896 94.1524 15.5868 95.0817 15.498" fill="#1D2345"/>
<path d="M88.753 41.3682H76.1765V26.6561H88.753V41.3682Z" fill="#1D2345"/>
<mask id="mask0_627_1408" style="mask-type:luminance" maskUnits="userSpaceOnUse" x="76" y="26" width="13" height="16">
<path d="M88.753 41.3755H76.1765V26.6634H88.753V41.3755Z" fill="white"/>
</mask>
<g mask="url(#mask0_627_1408)">
<path d="M94.7846 15.0107C94.7846 23.6069 89.813 30.5752 83.6797 30.5752C77.547 30.5752 72.5747 23.6069 72.5747 15.0107C72.5747 6.41452 77.547 -0.554101 83.6797 -0.554101C89.813 -0.554101 94.7846 6.41452 94.7846 15.0107Z" fill="#1D2345"/>
</g>
<path d="M94.0639 15.5378C94.0639 20.9105 92.0774 25.9232 88.8814 28.2592C86.9638 29.6606 84.1336 31.1199 82.2587 31.1199C80.3838 31.1199 77.6809 29.7797 75.7633 28.3783C72.5676 26.0423 70.5797 20.9105 70.5797 15.5378C70.5797 6.94163 75.8367 3.30481 82.3218 3.30481C88.807 3.30481 94.0639 6.94163 94.0639 15.5378Z" fill="#1D2345"/>
<path d="M78.3948 5.84629C78.3948 5.84629 79.0736 17.1521 93.6742 14.6769C99.0666 13.7625 102.908 -2.64196 88.7541 0.368229C88.7541 0.368229 78.6928 1.6793 76.0182 2.15613C64.1369 4.27396 70.0323 15.6245 70.0323 15.6245C70.0323 15.6245 74.1057 6.71565 78.3948 5.84629Z" fill="#1D2345"/>
<path d="M81.6219 16.3403C81.6264 17.0659 81.582 17.7861 81.5093 18.5031C81.4714 18.8615 81.4339 19.2198 81.3827 19.5769C81.3359 19.9343 81.2796 20.2904 81.2199 20.6465L81.194 20.5542C81.3469 20.7605 81.5325 20.9649 81.738 21.1368C81.9424 21.3128 82.1819 21.4562 82.4693 21.5009C82.1758 21.5344 81.8803 21.4156 81.6308 21.2693C81.3789 21.1154 81.1636 20.9276 80.9674 20.7082L80.9366 20.674L80.9414 20.6159C80.9718 20.2566 81.0059 19.8976 81.0493 19.5402C81.0885 19.1818 81.1414 18.8248 81.1933 18.468C81.3011 17.7552 81.437 17.0448 81.6219 16.3403Z" fill="#A6B1C3"/>
<path d="M112.055 52.9315C112.055 44.5055 98.9145 37.6749 82.7044 37.6749C66.4948 37.6749 53.3541 44.5055 53.3541 52.9315L66.5937 96.197L101.49 95.9584L112.055 52.9315Z" fill="#1D2345"/>
<path d="M67.3578 93.576L66.5937 96.1984C66.5937 96.1984 61.7542 109.548 61.2446 118.367C60.7355 127.188 60.4404 147.677 60.4404 147.677H108.993C108.993 147.677 107.603 123.374 106.839 116.461C106.075 109.548 101.49 95.9599 101.49 95.9599L67.3578 93.576Z" fill="#1D2345"/>
<path d="M73.2164 38.2701L76.2729 34.9328L89.2636 34.4563L92.3201 38.5083L87.2256 44.468L73.2164 38.2701Z" fill="#1D2345"/>
<path d="M49.6247 24.6107C49.3431 26.7276 48.9541 28.8234 48.4715 30.9041C47.9828 32.9817 47.3989 35.0449 46.6031 37.0417C46.2031 38.0385 45.7431 39.0174 45.1776 39.9436C44.9029 40.4112 44.5759 40.851 44.2323 41.2767C43.8702 41.6894 43.4729 42.0797 43.0245 42.4089C42.1389 43.0787 41.1294 43.5938 40.3305 44.3479C39.935 44.7241 39.6149 45.1764 39.449 45.6839C39.279 46.1901 39.2579 46.7296 39.3043 47.2578C39.2511 46.7299 39.2644 46.1895 39.4285 45.6781C39.5882 45.1655 39.906 44.7043 40.2994 44.3208C41.0956 43.5504 42.101 43.0222 42.9706 42.347C43.4118 42.0145 43.7954 41.6271 44.1483 41.2154C44.4824 40.79 44.8001 40.3521 45.0663 39.8849C45.6144 38.9599 46.0584 37.9823 46.4427 36.9865C47.2078 34.9916 47.7617 32.93 48.2207 30.854C48.6739 28.7777 49.0346 26.6787 49.2854 24.5762L49.6247 24.6107Z" fill="#AC54A2"/>
<path d="M49.455 24.5935C49.455 24.5935 48.3831 39.1439 43.9868 42.6559C39.5906 46.1681 37.875 49.9813 44.5226 53.1923C51.1709 56.4037 53.6366 55.6008 56.1029 52.8915C58.569 50.1818 53.3151 24.2926 53.3151 24.2926L49.455 24.5935Z" fill="#AC54A2"/>
<path d="M75.0718 24.5935C75.0718 24.5935 76.1441 39.1439 80.5404 42.6559C84.9366 46.1681 86.6518 49.9813 80.0042 53.1923C73.3563 56.4037 70.8903 55.6008 68.4239 52.8915C65.9579 50.1818 68.5409 24.2926 68.5409 24.2926L75.0718 24.5935Z" fill="#AC54A2"/>
<path d="M36.7042 92.8768C30.8517 94.4267 12.2931 73.3602 12.2931 73.3602L17.2927 67.4731L32.1499 77.99C32.1499 77.99 38.6563 56.5086 40.9117 54.4601C45.4373 50.3497 52.7101 48.4742 62.3268 48.4742C70.5115 48.4742 76.3824 49.7853 81.1656 52.9149C84.8043 55.2953 85.5284 59.1321 86.8799 62.1844C91.2174 71.9796 93.8643 75.1383 93.8643 75.1383L104.935 55.164L111.788 58.7031C111.788 58.7031 102.967 89.941 92.1928 89.521C85.3302 89.2534 78.058 68.9521 78.058 68.9521C78.058 68.9521 76.1288 82.0548 76.2138 84.645C76.2981 87.2358 82.055 100.213 82.055 100.213C70.0098 103.251 58.0053 103.564 46.0332 101.725C46.0332 101.725 49.9189 89.6804 49.966 85.1305C50.0138 80.5805 46.6048 69.4015 46.6048 69.4015C46.6048 69.4015 44.2814 90.8698 36.7042 92.8768Z" fill="#8889FF"/>
<path d="M52.5603 29.8133C52.5603 31.4572 51.9037 32.6565 50.7464 32.6565C49.5892 32.6565 48.0569 30.5543 48.0569 28.9101C48.0569 27.2659 49.3076 26.8364 50.4649 26.8364C51.6222 26.8364 52.5603 28.1688 52.5603 29.8133Z" fill="#E88993"/>
<path d="M48.9146 29.5102C49.1336 29.5159 49.3473 29.5894 49.5445 29.6865C49.7445 29.7836 49.9172 29.9254 50.0698 30.0825C50.2155 30.2457 50.3397 30.4262 50.4339 30.6191C50.5271 30.8126 50.5977 31.0132 50.6486 31.2179L50.3244 31.2732C50.2138 30.7117 50.0838 30.1457 49.9213 29.5954C49.8397 29.3201 49.7479 29.0474 49.6275 28.7884C49.505 28.5383 49.3654 28.2572 49.0575 28.1723C49.2176 28.1656 49.3725 28.2508 49.4896 28.3534C49.6087 28.4575 49.7101 28.5772 49.794 28.705C49.965 28.9596 50.0899 29.2345 50.1998 29.5114C50.4124 30.0697 50.5544 30.6411 50.6499 31.2259C50.6636 31.3099 50.6022 31.3885 50.5121 31.4016C50.4264 31.4137 50.3465 31.3619 50.3267 31.2843L50.3261 31.2808L50.2564 30.9998C50.2237 30.9091 50.1991 30.8148 50.1609 30.7267C50.0858 30.5494 49.9995 30.3757 49.8831 30.2186C49.6531 29.9072 49.3289 29.6354 48.9146 29.5102Z" fill="#1D2345"/>
<path d="M71.0742 29.8133C71.0742 31.4572 71.7312 32.6565 72.8881 32.6565C74.0453 32.6565 75.5776 30.5543 75.5776 28.9101C75.5776 27.2659 74.3269 26.8364 73.1696 26.8364C72.0124 26.8364 71.0742 28.1688 71.0742 29.8133Z" fill="#E88993"/>
<path d="M74.7201 29.5102C74.3058 29.6354 73.9816 29.9072 73.7515 30.2186C73.6352 30.3757 73.5488 30.5495 73.4737 30.7267C73.4355 30.8149 73.4109 30.9091 73.3782 30.9998L73.3086 31.2808L73.3079 31.2837C73.2874 31.3668 73.199 31.4185 73.1103 31.3993C73.026 31.3811 72.9717 31.3048 72.9847 31.2259C73.0803 30.6411 73.2222 30.0697 73.4348 29.5115C73.5447 29.2346 73.6693 28.9596 73.8406 28.705C73.9246 28.5773 74.0259 28.4575 74.145 28.3534C74.2621 28.2509 74.417 28.1656 74.5771 28.1723C74.2692 28.2572 74.1297 28.5383 74.0071 28.7884C73.8867 29.0474 73.7949 29.3202 73.7133 29.5955C73.5509 30.1458 73.4208 30.7117 73.3103 31.2732L72.9861 31.2179C73.0369 31.0132 73.1076 30.8126 73.2007 30.6191C73.2949 30.4262 73.4191 30.2457 73.5649 30.0825C73.7174 29.9254 73.8904 29.7836 74.0901 29.6865C74.2873 29.5894 74.501 29.5159 74.7201 29.5102Z" fill="#1D2345"/>
<path d="M51.171 33.0735C51.171 33.4893 50.8106 33.8259 50.3667 33.8259C49.9223 33.8259 49.5626 33.4893 49.5626 33.0735C49.5626 32.6576 49.9223 32.3207 50.3667 32.3207C50.8106 32.3207 51.171 32.6576 51.171 33.0735Z" fill="white"/>
<path d="M74.0631 33.0735C74.0631 33.4893 73.7031 33.8259 73.2587 33.8259C72.8151 33.8259 72.4547 33.4893 72.4547 33.0735C72.4547 32.6576 72.8151 32.3207 73.2587 32.3207C73.7031 32.3207 74.0631 32.6576 74.0631 33.0735Z" fill="white"/>
<path d="M61.9603 53.5242C58.4875 53.5242 55.672 50.8893 55.672 47.6392V38.8121H68.2485V47.6392C68.2485 50.8893 65.433 53.5242 61.9603 53.5242Z" fill="#F59FA5"/>
<mask id="mask1_627_1408" style="mask-type:luminance" maskUnits="userSpaceOnUse" x="55" y="38" width="14" height="16">
<path d="M68.2485 53.5308H55.672V38.8187H68.2485V53.5308Z" fill="white"/>
</mask>
<g mask="url(#mask1_627_1408)">
<path d="M74.2801 27.166C74.2801 35.7622 69.3085 42.7305 63.1751 42.7305C57.0425 42.7305 52.0702 35.7622 52.0702 27.166C52.0702 18.5698 57.0425 11.6012 63.1751 11.6012C69.3085 11.6012 74.2801 18.5698 74.2801 27.166Z" fill="#1D2345"/>
</g>
<path d="M73.5594 27.6929C73.5594 36.2891 66.8166 41.6838 61.8173 41.6838C56.818 41.6838 50.0752 36.2891 50.0752 27.6929C50.0752 19.0971 55.3321 15.4596 61.8173 15.4596C68.3025 15.4596 73.5594 19.0971 73.5594 27.6929Z" fill="#F59FA5"/>
<path d="M57.8903 18.0041C57.8903 18.0041 58.5691 29.3099 73.1696 26.8347C78.5621 25.9203 72.6158 10.2437 58.4619 13.2542C58.4619 13.2542 53.3589 8.88377 48.5975 12.251C38.947 19.0746 50.027 26.9017 50.027 26.9017C50.027 26.9017 53.6012 18.8737 57.8903 18.0041Z" fill="#AC54A2"/>
<path d="M73.588 22.1617C73.7249 22.1502 73.7965 22.1719 73.8808 22.1997C73.9634 22.225 74.032 22.2642 74.0999 22.3035C74.2313 22.3859 74.3463 22.4811 74.4432 22.5859C74.6466 22.7903 74.7961 23.0215 74.9381 23.254C75.2036 23.7257 75.4155 24.2157 75.5831 24.7158C75.9281 25.7142 76.1551 26.7369 76.3567 27.7608C76.7182 29.8161 76.985 31.8732 77.3754 33.9157C77.7781 35.9501 78.2474 37.9926 79.1466 39.8897C79.6026 40.829 80.1326 41.7508 80.8469 42.5451C81.5509 43.3448 82.3904 44.0353 83.3245 44.5974C82.3833 44.0468 81.5321 43.3649 80.8141 42.5706C80.0855 41.7811 79.5405 40.8613 79.0688 39.9223C78.1389 38.0258 77.6396 35.9795 77.2079 33.9447C76.7888 31.9045 76.4922 29.841 76.1049 27.8039C75.8906 26.7899 75.651 25.7781 75.2998 24.8043C75.1292 24.3163 74.9156 23.8433 74.6589 23.4C74.5228 23.1837 74.3794 22.9701 74.2013 22.7963C74.116 22.7056 74.0194 22.6299 73.9204 22.5689C73.8696 22.5408 73.8197 22.5124 73.7692 22.4987C73.7255 22.4782 73.6563 22.4779 73.6549 22.4747L73.588 22.1617Z" fill="#AC54A2"/>
<path d="M57.3896 29.109C57.3896 29.6261 56.9419 30.0454 56.389 30.0454C55.8365 30.0454 55.3881 29.6261 55.3881 29.109C55.3881 28.5916 55.8365 28.1722 56.389 28.1722C56.9419 28.1722 57.3896 28.5916 57.3896 29.109Z" fill="#1D2345"/>
<path d="M52.6698 26.5526C53.9294 26.3495 55.1778 26.0847 56.3965 25.7478C57.0043 25.5727 57.5926 25.3537 58.1776 25.1432C58.7622 24.9282 59.3331 24.6868 59.8065 24.2844L59.8338 24.3035C59.7416 24.4252 59.6474 24.5565 59.5352 24.6695C59.4123 24.7695 59.2925 24.8794 59.1608 24.9717C59.0273 25.0601 58.8878 25.1416 58.7499 25.2265L58.3141 25.436C57.7227 25.6941 57.0937 25.8509 56.4688 25.9943C55.2177 26.2802 53.9496 26.4721 52.6739 26.5842L52.6698 26.5526Z" fill="#1D2345"/>
<path d="M65.6819 29.109C65.6819 29.6261 66.13 30.0454 66.6828 30.0454C67.2354 30.0454 67.6831 29.6261 67.6831 29.109C67.6831 28.5916 67.2354 28.1722 66.6828 28.1722C66.13 28.1722 65.6819 28.5916 65.6819 29.109Z" fill="#1D2345"/>
<path d="M70.3978 26.5842C69.1218 26.4721 67.8533 26.2802 66.6025 25.9943C65.9776 25.8509 65.349 25.6941 64.7572 25.436L64.3218 25.2265C64.1839 25.1416 64.044 25.0601 63.9105 24.9717C63.7791 24.8794 63.659 24.7695 63.5362 24.6695C63.4239 24.5565 63.33 24.4252 63.2375 24.3035L63.2649 24.2844C63.7385 24.6868 64.3091 24.9282 64.8937 25.1432C65.4787 25.3537 66.0667 25.5727 66.6748 25.7478C67.8939 26.0847 69.1422 26.3495 70.4015 26.5526L70.3978 26.5842Z" fill="#1D2345"/>
<path d="M61.5357 30.9171C61.5996 31.247 61.6057 31.5846 61.5579 31.9212C61.5381 32.0905 61.4927 32.2582 61.4293 32.4262C61.3644 32.5913 61.2672 32.7621 61.0917 32.8966C61.0518 32.9327 60.9976 32.956 60.9426 32.978L60.8651 33.009L60.8208 33.025C60.7832 33.0343 60.7764 33.0473 60.7587 33.0531C60.7576 33.0582 60.7624 33.0464 60.7583 33.0394C60.7525 33.0416 60.7863 33.1042 60.8409 33.1476C60.8945 33.1943 60.9586 33.2393 61.0259 33.283C61.3047 33.4475 61.6183 33.5845 61.9647 33.6599C61.6074 33.7177 61.2347 33.644 60.8962 33.5009C60.8109 33.4632 60.7266 33.4201 60.646 33.36C60.5706 33.2974 60.4734 33.2329 60.4372 33.0719C60.4222 32.9803 60.4686 32.8928 60.5252 32.8362C60.5781 32.7934 60.6392 32.7526 60.6877 32.7388L60.7655 32.7091L60.8075 32.6887C60.8331 32.6775 60.8604 32.6682 60.8829 32.6443C60.9842 32.575 61.0689 32.4491 61.1313 32.3108C61.201 32.1748 61.2498 32.0244 61.2979 31.8711C61.3907 31.5638 61.4583 31.2435 61.5357 30.9171Z" fill="#1D2345"/>
<path d="M50.1355 22.3396C49.9744 21.8685 49.8925 21.3725 49.8779 20.8743C49.8642 20.3767 49.915 19.8711 50.069 19.3863C50.2249 18.903 50.4799 18.4463 50.8136 18.0449C51.1399 17.6332 51.5825 17.3218 52.0326 17.0455C52.9387 16.485 54.0977 16.2707 55.174 16.4594C55.7167 16.5447 56.2272 16.7453 56.7009 16.9906C57.1739 17.2429 57.611 17.5354 58.0032 17.904L58.4496 18.323L57.8407 18.1432C57.2374 17.9647 56.5968 17.8452 55.9607 17.783C55.3235 17.7162 54.6758 17.706 54.0455 17.805C53.4141 17.8979 52.8049 18.1167 52.2893 18.4719C51.774 18.8312 51.3986 19.347 51.1508 19.9113C51.3436 19.3288 51.6972 18.7801 52.2074 18.3764C52.7159 17.9708 53.3544 17.7239 54.0055 17.6044C54.6584 17.4789 55.3286 17.4658 55.9883 17.514C56.649 17.5725 57.2964 17.684 57.9397 17.8657L57.7769 18.1052C57.0442 17.4508 56.1023 16.959 55.1112 16.7644C54.1164 16.5808 53.0524 16.7597 52.1859 17.2799C51.7576 17.5437 51.3248 17.8133 51.0051 18.1918C50.6768 18.5584 50.4181 18.9819 50.2502 19.4399C49.927 20.361 49.9072 21.377 50.1355 22.3396Z" fill="#1D2345"/>
<path d="M46.0331 101.726C46.0331 101.726 42.4706 116.758 42.9405 127.754C43.4108 138.749 46.0331 148 46.0331 148L66.6829 148L65.7333 123.356L79.1678 148L101.363 147.999C101.363 147.999 98.0169 137.437 90.4898 119.101C86.9133 110.389 81.8656 99.9576 81.8656 99.9576C70.8046 102.885 58.741 103.159 46.0331 101.726Z" fill="white"/>
<path d="M59.5693 120.186C60.1027 120.417 60.6256 120.666 61.1525 120.907L62.7176 121.659L64.2686 122.434C64.7833 122.697 65.3051 122.947 65.8136 123.22L65.646 123.224C66.8449 122.548 68.0311 121.853 69.241 121.193C70.445 120.525 71.6541 119.865 72.8789 119.228C71.7217 119.967 70.549 120.683 69.3717 121.391C68.1994 122.108 67.0032 122.788 65.8207 123.489L65.7409 123.536L65.6532 123.493C65.1344 123.238 64.6283 122.96 64.1157 122.694L62.5851 121.884L61.0682 121.05C60.5679 120.763 60.0635 120.483 59.5693 120.186Z" fill="#62385E"/>
<path d="M44.5535 107.623C44.8374 107.416 45.1169 107.21 45.3821 106.986C45.6534 106.77 45.9145 106.545 46.1687 106.313C46.6752 105.848 47.157 105.363 47.5983 104.847C48.0498 104.338 48.4498 103.793 48.8166 103.227C48.9064 103.084 49.0009 102.944 49.0876 102.799L49.3282 102.355C49.5091 102.065 49.6207 101.748 49.7862 101.448C49.6176 102.099 49.3869 102.747 49.0463 103.346C48.9702 103.5 48.8866 103.651 48.789 103.793L48.5074 104.229C48.2993 104.506 48.0955 104.787 47.8631 105.048C47.4041 105.572 46.9024 106.065 46.3438 106.495C45.7896 106.927 45.1981 107.322 44.5535 107.623Z" fill="#62385E"/>
<path d="M76.6328 100.596C76.886 100.911 77.1423 101.221 77.4174 101.517C77.6832 101.819 77.9566 102.115 78.247 102.395C78.8245 102.956 79.4159 103.506 80.0752 103.975C80.7287 104.449 81.4287 104.863 82.1809 105.182C82.9416 105.482 83.7517 105.657 84.5957 105.706C84.178 105.724 83.749 105.761 83.3279 105.691C82.8999 105.657 82.4959 105.522 82.0839 105.411C81.2779 105.134 80.5428 104.709 79.865 104.227C79.1913 103.737 78.5914 103.167 78.0508 102.557C77.514 101.945 77.0195 101.298 76.6328 100.596Z" fill="#62385E"/>
<path d="M63.437 100.809C63.622 102.691 63.7807 104.575 63.9428 106.458L64.4216 112.107C64.5666 113.99 64.7417 115.872 64.9239 117.752C65.0096 118.692 65.1137 119.631 65.2304 120.568C65.2973 121.035 65.3358 121.508 65.4259 121.971L65.5484 122.669L65.7334 123.355L65.4979 122.68L65.3372 121.986C65.2208 121.524 65.1573 121.055 65.0649 120.59C64.914 119.654 64.7806 118.716 64.6632 117.777C64.426 115.899 64.2537 114.015 64.0817 112.132C63.9349 110.247 63.7892 108.362 63.682 106.474C63.5742 104.587 63.4814 102.699 63.437 100.809Z" fill="#62385E"/>
<path d="M15.8867 71.4273C11.2808 76.3075 3.40866 69.74 1.10133 67.6212C0.799786 67.3443 0.738733 66.9112 0.950048 66.5692L1.05468 66.3999C1.29903 66.0045 1.82827 65.8541 2.26619 66.055L4.31583 66.9968L0.419885 63.865C0.113936 63.6187 0.012885 63.2163 0.169904 62.8688C0.387225 62.3878 1.00537 62.1943 1.48834 62.4552L4.59738 64.1377L0.837396 60.9056C0.492542 60.6095 0.438141 60.1186 0.710475 59.7618L0.984688 59.4029C1.28371 59.0119 1.86588 58.9225 2.28247 59.2045L6.64565 62.1582L3.91351 59.3195C3.49757 58.8874 3.64462 58.2023 4.20652 57.9538C4.77266 57.7041 5.4379 57.7548 5.95287 58.0876L13.1971 62.7701L11.2755 60.0426C10.8126 59.3853 11.1015 58.4955 11.8774 58.1908C12.4204 57.9775 13.0466 58.1193 13.4254 58.5408C15.256 60.5769 18.4916 65.2744 17.9343 67.382C17.2558 69.9486 15.8867 71.4273 15.8867 71.4273Z" fill="#F59FA5"/>
<path d="M5.73383 68.0467C5.72956 68.0511 5.71714 68.0642 5.70847 68.0521C5.70315 68.0435 5.70223 68.0342 5.70117 68.0253C5.69957 68.0074 5.70021 67.9895 5.70117 67.9719C5.70356 67.9368 5.70783 67.902 5.71288 67.8672C5.72448 67.7982 5.7398 67.7298 5.75649 67.6621C5.78953 67.5261 5.82713 67.3913 5.86819 67.2572C5.95511 66.9908 6.0551 66.7283 6.16974 66.4712C6.39637 65.956 6.67536 65.4603 6.99998 64.9892C7.32992 64.5229 7.70678 64.0783 8.16204 63.7056C8.6106 63.3326 9.15585 63.0327 9.74376 62.9365C9.1965 63.1531 8.74592 63.5012 8.34574 63.8861C7.94915 64.2764 7.60014 64.7091 7.28525 65.1639C6.96558 65.6165 6.68137 66.0924 6.41036 66.5759C6.27744 66.819 6.14615 67.0636 6.0235 67.3124C5.95979 67.436 5.89846 67.5606 5.84218 67.6874C5.81379 67.7506 5.78714 67.8145 5.76246 67.879C5.74953 67.9109 5.73687 67.9432 5.72649 67.9761C5.72154 67.9924 5.71649 68.009 5.71421 68.0253C5.70916 68.0412 5.71421 68.0646 5.73383 68.0467Z" fill="#1D2345"/>
<path d="M106.265 60.4031C110.871 65.2833 118.744 58.7161 121.051 56.597C121.352 56.3201 121.413 55.887 121.202 55.545L121.097 55.3757C120.853 54.9806 120.323 54.8299 119.886 55.0311L117.836 55.9723L121.732 52.8404C122.038 52.5948 122.139 52.1921 121.982 51.8443C121.765 51.3636 121.146 51.1697 120.664 51.431L117.555 53.1138L121.314 49.8817C121.659 49.5853 121.714 49.0944 121.441 48.7379L121.167 48.379C120.868 47.9874 120.286 47.8986 119.869 48.1803L115.506 51.1343L118.238 48.2953C118.654 47.8632 118.507 47.1781 117.945 46.9296C117.379 46.6795 116.714 46.7306 116.199 47.0634L108.955 51.7462L110.876 49.0184C111.339 48.3611 111.05 47.4716 110.275 47.1669C109.732 46.9536 109.105 47.095 108.726 47.5163C106.896 49.5527 103.66 54.2502 104.218 56.3575C104.896 58.924 106.265 60.4031 106.265 60.4031Z" fill="#F59FA5"/>
<path d="M116.418 57.0221C116.438 57.0403 116.443 57.0166 116.438 57.001C116.435 56.9844 116.431 56.9678 116.426 56.9515C116.415 56.9189 116.403 56.8863 116.39 56.8547C116.365 56.7899 116.338 56.726 116.31 56.6628C116.253 56.5363 116.192 56.4114 116.129 56.2878C116.006 56.039 115.875 55.794 115.742 55.5516C115.471 55.0678 115.186 54.5919 114.867 54.1396C114.552 53.6848 114.203 53.2517 113.806 52.8618C113.406 52.4769 112.956 52.1288 112.408 51.9119C112.996 52.0084 113.541 52.3077 113.99 52.681C114.445 53.0537 114.822 53.4986 115.152 53.9649C115.476 54.4357 115.756 54.9314 115.982 55.4465C116.097 55.7036 116.197 55.9662 116.284 56.2325C116.325 56.3667 116.363 56.5015 116.396 56.6375C116.412 56.7052 116.427 56.7736 116.439 56.8426C116.444 56.8774 116.449 56.9122 116.451 56.9476C116.452 56.9649 116.452 56.9828 116.451 57.0007C116.45 57.0093 116.449 57.0189 116.443 57.0275C116.435 57.0399 116.423 57.0269 116.418 57.0221Z" fill="#1D2345"/>
<path d="M58.3233 13.3481C57.7923 12.6698 57.1439 12.0447 56.4378 11.5056C55.7293 10.9659 54.9379 10.5159 54.08 10.2192C53.2244 9.9199 52.2938 9.79821 51.3805 9.89402C50.4642 9.98153 49.5834 10.2971 48.7817 10.7257C49.5684 10.2747 50.4437 9.93044 51.3699 9.8145C52.2931 9.6909 53.2497 9.78703 54.1363 10.0684C55.0256 10.3472 55.8522 10.7857 56.5958 11.3175C57.3405 11.8525 58.0145 12.4603 58.6008 13.1629L58.3233 13.3481Z" fill="#AC54A2"/>
<mask id="mask2_627_1408" style="mask-type:luminance" maskUnits="userSpaceOnUse" x="12" y="48" width="100" height="54">
<path d="M36.7042 92.8724C30.8517 94.4224 12.2931 73.3559 12.2931 73.3559L17.2927 67.4687L32.1499 77.9857C32.1499 77.9857 37.528 57.39 39.7835 55.3411C44.3087 51.231 52.7101 48.4699 62.3268 48.4699C70.5115 48.4699 77.8157 50.4702 82.5993 53.5998C86.2379 55.9802 87.0662 59.2654 88.418 62.318C92.7552 72.1129 93.8643 75.1339 93.8643 75.1339L104.935 55.1597L111.788 58.6988C111.788 58.6988 102.967 89.9367 92.1928 89.5167C85.3302 89.249 78.058 68.9478 78.058 68.9478L75.3671 84.4273L82.1314 101.197L46.0332 101.721C46.0332 101.721 49.9189 89.6761 49.966 85.1261C50.0138 80.5762 46.6048 69.3972 46.6048 69.3972C46.6048 69.3972 44.2814 90.8654 36.7042 92.8724Z" fill="white"/>
</mask>
<g mask="url(#mask2_627_1408)">
<path d="M40.7217 52.3204C40.7217 52.3204 43.5788 60.6988 46.8168 70.8596" stroke="#3631A9" stroke-width="0.364701" stroke-miterlimit="10"/>
<path d="M78.2455 69.4333C78.2455 69.4333 78.6263 56.7768 82.4359 51.9637" stroke="#3631A9" stroke-width="0.364701" stroke-miterlimit="10"/>
</g>
<path d="M49.8643 44.785C53.1214 50.5383 64.5178 44.6182 67.291 43.0632C67.6534 42.86 67.8213 42.4528 67.7012 42.0734L67.6415 41.8859C67.5032 41.4484 67.0265 41.1861 66.5504 41.2858L64.3219 41.7521L68.8929 39.5608C69.2519 39.3887 69.4509 39.0194 69.3853 38.647C69.2942 38.1322 68.7417 37.808 68.2069 37.9562L64.7635 38.9112L69.2273 36.5925C69.6365 36.3797 69.8126 35.9144 69.6369 35.5081L69.4597 35.099C69.2669 34.6532 68.7233 34.4392 68.2479 34.6219L63.267 36.5375L66.6333 34.3763C67.1459 34.0473 67.1742 33.3488 66.69 32.9844C66.2026 32.6174 65.5426 32.5213 64.9591 32.7321L56.7447 35.6975L59.295 33.4663C59.9096 32.9288 59.8509 32.0007 59.1732 31.5344C58.6985 31.2083 58.0545 31.2086 57.5805 31.5353C55.2916 33.1144 48.8965 37.7202 48.9112 39.8907C48.9286 42.5349 49.8643 44.785 49.8643 44.785Z" fill="#1D2345"/>
<path d="M64.4737 59.9033C63.9945 56.9774 62.3011 52.859 61.5285 51.0797C61.3022 50.5585 60.7374 50.2349 60.1317 50.2803C59.2669 50.3451 58.6779 51.1212 58.9055 51.8957L59.8491 55.1106L54.3622 48.4189C53.9724 47.943 53.3377 47.6958 52.6971 47.7696C52.061 47.8434 51.6811 48.4633 51.9402 49.006L53.6404 52.5696L50.3812 48.4097C50.0704 48.0127 49.469 47.9261 49.0414 48.2164L48.6493 48.4825C48.2596 48.7473 48.1442 49.2388 48.38 49.6291L50.9519 53.8791L48.4848 51.324C48.1016 50.927 47.4289 50.9312 47.0504 51.3327C46.7771 51.623 46.7372 52.043 46.9525 52.3726L49.6926 56.5657L48.0077 55.0442C47.648 54.7191 47.0777 54.7076 46.7023 55.018L46.5416 55.1509C46.2164 55.4198 46.1273 55.8574 46.3276 56.2154C47.4231 58.1751 51.0955 64.2859 55.3645 66.3756C60.0648 72.9118 80.1728 99.7846 88.2446 92.8601C96.274 85.9717 70.9066 65.0099 64.4737 59.9033Z" fill="#1D2345"/>
<path d="M79.7043 25.4089C79.9569 25.1033 80.2988 24.8622 80.6742 24.6871C81.0493 24.5092 81.467 24.401 81.8915 24.3764C82.3144 24.3601 82.7464 24.3923 83.1416 24.5313C83.3457 24.5798 83.5276 24.6833 83.7149 24.7635C83.8948 24.8599 84.063 24.9746 84.2262 25.0896C84.0255 25.0365 83.8409 24.9612 83.6491 24.9078C83.4535 24.8644 83.2686 24.7964 83.0727 24.7721C82.6898 24.689 82.2987 24.6756 81.9151 24.6945C81.5288 24.7108 81.1483 24.7954 80.7783 24.9152C80.4087 25.0378 80.0507 25.2026 79.7043 25.4089Z" fill="#A6B1C3"/>
</svg>
