<svg width="25" height="24" viewBox="0 0 25 24" fill="none" xmlns="http://www.w3.org/2000/svg">
<path d="M13.26 20.82C13.0968 20.9372 12.9009 21.0003 12.7 21.0003C12.499 21.0003 12.3032 20.9372 12.14 20.82C7.31098 17.378 2.18598 10.298 7.36698 5.182C8.78932 3.78285 10.7048 2.99912 12.7 3C14.7 3 16.619 3.785 18.033 5.181C23.214 10.297 18.089 17.376 13.26 20.82Z" stroke="#484C52" stroke-width="1.5" stroke-linecap="round" stroke-linejoin="round"/>
<path d="M12.7 12C13.2304 12 13.7391 11.7893 14.1142 11.4142C14.4892 11.0391 14.7 10.5304 14.7 10C14.7 9.46957 14.4892 8.96086 14.1142 8.58579C13.7391 8.21071 13.2304 8 12.7 8C12.1695 8 11.6608 8.21071 11.2857 8.58579C10.9107 8.96086 10.7 9.46957 10.7 10C10.7 10.5304 10.9107 11.0391 11.2857 11.4142C11.6608 11.7893 12.1695 12 12.7 12Z" stroke="#484C52" stroke-width="1.5" stroke-linecap="round" stroke-linejoin="round"/>
</svg>
