<svg width="24" height="24" viewBox="0 0 24 24" fill="none" xmlns="http://www.w3.org/2000/svg">
<path d="M7.6875 11.25C7.6875 11.1008 7.74676 10.9577 7.85225 10.8523C7.95774 10.7468 8.10082 10.6875 8.25 10.6875H9.9375V9C9.9375 8.85082 9.99676 8.70774 10.1023 8.60225C10.2077 8.49676 10.3508 8.4375 10.5 8.4375C10.6492 8.4375 10.7923 8.49676 10.8977 8.60225C11.0032 8.70774 11.0625 8.85082 11.0625 9V10.6875H12.75C12.8992 10.6875 13.0423 10.7468 13.1477 10.8523C13.2532 10.9577 13.3125 11.1008 13.3125 11.25C13.3125 11.3992 13.2532 11.5423 13.1477 11.6477C13.0423 11.7532 12.8992 11.8125 12.75 11.8125H11.0625V13.5C11.0625 13.6492 11.0032 13.7923 10.8977 13.8977C10.7923 14.0032 10.6492 14.0625 10.5 14.0625C10.3508 14.0625 10.2077 14.0032 10.1023 13.8977C9.99676 13.7923 9.9375 13.6492 9.9375 13.5V11.8125H8.25C8.10082 11.8125 7.95774 11.7532 7.85225 11.6477C7.74676 11.5423 7.6875 11.3992 7.6875 11.25ZM23.8125 11.25V17.25C23.8125 17.5981 23.6742 17.9319 23.4281 18.1781C23.1819 18.4242 22.8481 18.5625 22.5 18.5625H20.7563C20.6271 19.1983 20.2822 19.7699 19.7799 20.1805C19.2776 20.591 18.6488 20.8153 18 20.8153C17.3512 20.8153 16.7224 20.591 16.2201 20.1805C15.7178 19.7699 15.3729 19.1983 15.2438 18.5625H10.2563C10.1271 19.1983 9.78222 19.7699 9.2799 20.1805C8.77758 20.591 8.14876 20.8153 7.5 20.8153C6.85124 20.8153 6.22242 20.591 5.72011 20.1805C5.21779 19.7699 4.87285 19.1983 4.74375 18.5625H3C2.6519 18.5625 2.31806 18.4242 2.07192 18.1781C1.82578 17.9319 1.6875 17.5981 1.6875 17.25V6.75C1.6875 6.4019 1.82578 6.06806 2.07192 5.82192C2.31806 5.57578 2.6519 5.4375 3 5.4375H17.25C17.3992 5.4375 17.5423 5.49676 17.6477 5.60225C17.7532 5.70774 17.8125 5.85082 17.8125 6V6.9375H21.2419C21.5044 6.93658 21.7611 7.0148 21.9785 7.16197C22.1959 7.30914 22.3639 7.51842 22.4606 7.7625L23.7731 11.0438C23.7989 11.1095 23.8122 11.1794 23.8125 11.25ZM17.8125 8.0625V10.6875H22.4194L21.4163 8.18063C21.4024 8.14574 21.3783 8.11583 21.3472 8.09477C21.3161 8.0737 21.2794 8.06246 21.2419 8.0625H17.8125ZM3 17.4375H4.74375C4.87285 16.8017 5.21779 16.2301 5.72011 15.8195C6.22242 15.409 6.85124 15.1847 7.5 15.1847C8.14876 15.1847 8.77758 15.409 9.2799 15.8195C9.78222 16.2301 10.1271 16.8017 10.2563 17.4375H15.2438C15.3278 17.0303 15.5008 16.6467 15.7504 16.3141C16 15.9815 16.32 15.7082 16.6875 15.5137V6.5625H3C2.95027 6.5625 2.90258 6.58225 2.86742 6.61742C2.83225 6.65258 2.8125 6.70027 2.8125 6.75V17.25C2.8125 17.2997 2.83225 17.3474 2.86742 17.3826C2.90258 17.4177 2.95027 17.4375 3 17.4375ZM9.1875 18C9.1875 17.6662 9.08853 17.34 8.90311 17.0625C8.71768 16.785 8.45413 16.5687 8.14578 16.441C7.83743 16.3132 7.49813 16.2798 7.17079 16.3449C6.84344 16.41 6.54276 16.5708 6.30676 16.8068C6.07076 17.0428 5.91004 17.3434 5.84493 17.6708C5.77981 17.9981 5.81323 18.3374 5.94095 18.6458C6.06868 18.9541 6.28497 19.2177 6.56248 19.4031C6.83998 19.5885 7.16624 19.6875 7.5 19.6875C7.94755 19.6875 8.37678 19.5097 8.69324 19.1932C9.00971 18.8768 9.1875 18.4476 9.1875 18ZM19.6875 18C19.6875 17.6662 19.5885 17.34 19.4031 17.0625C19.2177 16.785 18.9541 16.5687 18.6458 16.441C18.3374 16.3132 17.9981 16.2798 17.6708 16.3449C17.3434 16.41 17.0428 16.5708 16.8068 16.8068C16.5708 17.0428 16.41 17.3434 16.3449 17.6708C16.2798 17.9981 16.3132 18.3374 16.441 18.6458C16.5687 18.9541 16.785 19.2177 17.0625 19.4031C17.34 19.5885 17.6662 19.6875 18 19.6875C18.4476 19.6875 18.8768 19.5097 19.1932 19.1932C19.5097 18.8768 19.6875 18.4476 19.6875 18ZM22.6875 17.25V11.8125H17.8125V15.1941C17.8744 15.1941 17.9372 15.1875 18 15.1875C18.6481 15.1882 19.2762 15.4125 19.7783 15.8223C20.2804 16.2322 20.6258 16.8026 20.7563 17.4375H22.5C22.5497 17.4375 22.5974 17.4177 22.6326 17.3826C22.6677 17.3474 22.6875 17.2997 22.6875 17.25Z" fill="white"/>
</svg>
