<svg width="24" height="24" viewBox="0 0 24 24" fill="none" xmlns="http://www.w3.org/2000/svg">
<path d="M7.12511 4.5C6.13511 4.5 5.25311 5.145 4.96886 6.09375L3.93761 9.53925L2.48411 9.04725L2.01611 10.4528L3.49211 10.9455L3.02336 12.5392C3.00567 12.608 2.99784 12.679 3.00011 12.75V18.75C3.00011 19.1625 3.33761 19.5 3.75011 19.5H6.00011L6.49211 18H10.4296L17.8831 19.1483L18.0001 19.5H20.2734C20.4549 19.5 20.6311 19.4325 20.7661 19.3125L20.7886 19.2892C20.7976 19.2802 20.8066 19.2743 20.8126 19.2653C20.9274 19.1354 20.9937 18.9697 21.0001 18.7965V18.7267C21.0021 18.6955 21.0021 18.6642 21.0001 18.633L20.3671 14.25H21.7501V12.75H19.9689L18.3751 9.492L19.0314 7.28925C19.0777 7.14254 19.0778 6.98512 19.0317 6.83834C18.9855 6.69157 18.8953 6.56254 18.7734 6.46875L17.3206 5.39025C17.2106 5.31038 17.081 5.26191 16.9456 5.25L7.17161 4.5H7.12511ZM7.12511 6L16.5939 6.72675L17.4376 7.35975L16.8519 9.32775C16.7935 9.51415 16.8102 9.71596 16.8984 9.89025L18.0234 12.1875L13.4296 10.5938L13.3359 10.5465H13.2421L5.41511 9.82125L6.39761 6.53925C6.49511 6.21675 6.79061 6 7.12436 6H7.12511ZM4.96886 11.2972L13.0546 12.0472H13.1019L18.8206 14.0625L19.3591 17.8358L10.6651 16.5C10.6262 16.497 10.5871 16.497 10.5481 16.5H9.68036L10.0089 15.75L13.2429 16.2188L15.1876 16.5L14.2501 15L9.00011 14.25L8.06261 16.5H4.50011V12.8903L4.96886 11.2972ZM6.37511 12C6.07674 12 5.7906 12.1185 5.57962 12.3295C5.36864 12.5405 5.25011 12.8266 5.25011 13.125C5.25011 13.4234 5.36864 13.7095 5.57962 13.9205C5.7906 14.1315 6.07674 14.25 6.37511 14.25C6.67348 14.25 6.95963 14.1315 7.17061 13.9205C7.38159 13.7095 7.50011 13.4234 7.50011 13.125C7.50011 12.8266 7.38159 12.5405 7.17061 12.3295C6.95963 12.1185 6.67348 12 6.37511 12ZM15.6564 14.0625C15.5351 14.4012 15.5534 14.7743 15.7072 15.0995C15.861 15.4248 16.1377 15.6756 16.4765 15.7969C16.8152 15.9181 17.1883 15.8998 17.5135 15.746C17.8388 15.5922 18.0896 15.3155 18.2109 14.9767L15.6564 14.0625Z" fill="white"/>
</svg>
