<svg width="24" height="24" viewBox="0 0 24 24" fill="none" xmlns="http://www.w3.org/2000/svg">
<path d="M13 2V4C17.39 4.54 20.5 8.53 19.96 12.92C19.7393 14.689 18.935 16.3339 17.6745 17.5944C16.4139 18.855 14.769 19.6593 13 19.88V21.88C18.5 21.28 22.4501 16.34 21.85 10.85C21.33 6.19 17.66 2.5 13 2ZM11 2C9.04005 2.18 7.19005 2.95 5.67005 4.2L7.10005 5.74C8.22005 4.84 9.57005 4.26 11 4.06V2.06M4.26005 5.67C3.00519 7.18463 2.23514 9.04181 2.05005 11H4.05005C4.24005 9.58 4.80005 8.23 5.69005 7.1L4.26005 5.67ZM2.06005 13C2.26005 14.96 3.03005 16.81 4.27005 18.33L5.69005 16.9C4.80689 15.7696 4.24391 14.4226 4.06005 13H2.06005ZM7.06005 18.37L5.67005 19.74C7.18502 21.0024 9.03941 21.7887 11 22V20C9.57742 19.8161 8.2304 19.2532 7.10005 18.37H7.06005ZM13 13V7H11V13H13ZM13 17V15H11V17H13Z" fill="white"/>
</svg>
