<svg width="25" height="24" viewBox="0 0 25 24" fill="none" xmlns="http://www.w3.org/2000/svg">
<g clip-path="url(#clip0_412_4006)">
<g opacity="0.357724">
<path d="M5.25991 0.428955C4.00251 0.428973 2.79661 0.984341 1.9075 1.97289C1.01838 2.96144 0.518871 4.30219 0.518856 5.70021C0.518842 7.09825 1.01834 8.43904 1.90746 9.42762C2.79658 10.4162 4.00249 10.9716 5.25991 10.9716H14.632C14.9285 10.9716 15.2128 11.1026 15.4224 11.3357C15.632 11.5687 15.7498 11.8849 15.7498 12.2145C15.7498 12.5441 15.632 12.8602 15.4224 13.0933C15.2128 13.3264 14.9285 13.4573 14.632 13.4573L2.3256 13.4572C1.84142 13.4572 1.37707 13.6694 1.0347 14.0472C0.692335 14.4249 0.499998 14.9373 0.5 15.4715C0.499998 16.0057 0.692335 16.518 1.0347 16.8957C1.37707 17.2735 1.84142 17.4857 2.3256 17.4857H14.632C15.8894 17.4857 17.0953 16.9303 17.9845 15.9418C18.8736 14.9532 19.3731 13.6125 19.3731 12.2145C19.3731 10.8164 18.8736 9.47563 17.9845 8.48706C17.0954 7.49848 15.8895 6.9431 14.632 6.94308H5.25991C4.96345 6.94306 4.67915 6.8121 4.46953 6.57902C4.25991 6.34594 4.14216 6.02982 4.14217 5.70021C4.14216 5.3706 4.25991 5.05449 4.46953 4.82141C4.67915 4.58832 4.96345 4.45737 5.25991 4.45735H13.7801H14.8116H15.4258H16.4865H17.5474C18.0316 4.45736 18.4959 4.24517 18.8383 3.86745C19.1807 3.48973 19.3731 2.97742 19.3731 2.44322C19.3731 2.1787 19.3259 1.91677 19.2341 1.67238C19.1424 1.42799 19.0079 1.20594 18.8384 1.0189C18.6688 0.831856 18.4676 0.683489 18.246 0.582266C18.0245 0.481043 17.7871 0.428947 17.5474 0.428955H16.4865H15.4258H14.8116H13.7801H5.25991ZM17.5254 1.46616C17.6388 1.46616 17.7511 1.49098 17.8559 1.53922C17.9606 1.58747 18.0558 1.65818 18.136 1.74733C18.2162 1.83648 18.2798 1.94232 18.3232 2.0588C18.3667 2.17529 18.389 2.30014 18.389 2.42622C18.389 2.55232 18.3667 2.67718 18.3233 2.79368C18.2799 2.91018 18.2163 3.01603 18.1361 3.10519C18.0559 3.19435 17.9607 3.26508 17.8559 3.31333C17.7511 3.36158 17.6388 3.38641 17.5254 3.3864C17.412 3.38639 17.2997 3.36155 17.1949 3.3133C17.0902 3.26504 16.995 3.19431 16.9148 3.10515C16.8346 3.01599 16.771 2.91014 16.7276 2.79365C16.6842 2.67716 16.6619 2.55231 16.6619 2.42622C16.6619 2.1716 16.7529 1.92742 16.9148 1.74737C17.0768 1.56733 17.2964 1.46618 17.5254 1.46616Z" fill="black"/>
<path d="M10.0009 6.94312C8.74347 6.94313 7.53757 7.4985 6.64846 8.48705C5.75934 9.4756 5.25983 10.8164 5.25982 12.2144C5.2598 13.6124 5.7593 14.9532 6.64842 15.9418C7.53754 16.9304 8.74346 17.4857 10.0009 17.4858H19.373C19.6695 17.4858 19.9538 17.6167 20.1634 17.8498C20.373 18.0829 20.4908 18.399 20.4907 18.7286C20.4908 19.0582 20.373 19.3743 20.1634 19.6074C19.9538 19.8405 19.6695 19.9715 19.373 19.9715L7.06657 19.9714C6.58238 19.9714 6.11803 20.1836 5.77567 20.5614C5.4333 20.9391 5.24097 21.4514 5.24097 21.9856C5.24096 22.5198 5.4333 23.0322 5.77566 23.4099C6.11803 23.7876 6.58238 23.9999 7.06657 23.9999H19.373C20.6304 23.9999 21.8363 23.4445 22.7254 22.4559C23.6145 21.4674 24.114 20.1266 24.1141 18.7286C24.1141 17.3306 23.6146 15.9898 22.7255 15.0012C21.8363 14.0126 20.6304 13.4573 19.373 13.4572H10.0009C9.70442 13.4572 9.42011 13.3263 9.2105 13.0932C9.00088 12.8601 8.88313 12.544 8.88314 12.2144C8.88313 11.8848 9.00088 11.5687 9.2105 11.3356C9.42011 11.1025 9.70442 10.9715 10.0009 10.9715H18.5211H19.5526H20.1668H21.2275H22.2883C22.7725 10.9715 23.2369 10.7593 23.5793 10.3816C23.9217 10.0039 24.114 9.49158 24.1141 8.95738C24.1141 8.69286 24.0668 8.43092 23.9751 8.18654C23.8833 7.94215 23.7489 7.7201 23.5793 7.53306C23.4098 7.34602 23.2085 7.19765 22.987 7.09643C22.7655 6.9952 22.5281 6.94311 22.2883 6.94312H21.2275H20.1668H19.5526H18.5211H10.0009ZM7.06702 21.0256C7.29603 21.0256 7.51565 21.1267 7.67758 21.3068C7.83951 21.4868 7.93049 21.731 7.9305 21.9856C7.93051 22.1117 7.90818 22.2366 7.86479 22.3531C7.8214 22.4695 7.7578 22.5754 7.67762 22.6645C7.59744 22.7537 7.50224 22.8244 7.39748 22.8727C7.29271 22.921 7.18042 22.9458 7.06702 22.9458C6.95361 22.9458 6.8413 22.921 6.73652 22.8727C6.63173 22.8245 6.53653 22.7538 6.45633 22.6646C6.37614 22.5754 6.31253 22.4696 6.26913 22.3531C6.22574 22.2366 6.2034 22.1117 6.20341 21.9856C6.20342 21.8595 6.22576 21.7347 6.26917 21.6182C6.31257 21.5017 6.37619 21.3959 6.45638 21.3067C6.53657 21.2176 6.63177 21.1469 6.73654 21.0986C6.84132 21.0504 6.95362 21.0256 7.06702 21.0256Z" fill="black"/>
<path d="M10.001 6.94312C9.74852 6.94501 9.49663 6.96931 9.24768 7.0158C9.20416 7.02562 9.16076 7.03613 9.11749 7.04731C8.90997 7.09066 8.70528 7.14938 8.50479 7.22307C8.46138 7.24027 8.4182 7.25817 8.37526 7.27678C8.1728 7.35915 7.97562 7.45679 7.7851 7.56901C7.75431 7.5872 7.72371 7.60577 7.69329 7.6247C7.48364 7.7548 7.28318 7.90242 7.09364 8.06628C7.08685 8.07189 7.08008 8.07751 7.07333 8.08316C6.51004 8.5748 6.05424 9.20192 5.74014 9.91744C5.42604 10.633 5.26181 11.4183 5.25977 12.2145C5.26181 13.0105 5.42595 13.7956 5.73986 14.5109C6.05378 15.2263 6.50932 15.8533 7.07232 16.345C7.07955 16.351 7.08681 16.3571 7.09407 16.3631C7.28321 16.5266 7.48322 16.6738 7.69239 16.8037C7.72299 16.8228 7.75378 16.8415 7.78476 16.8599C7.97535 16.9721 8.1726 17.0697 8.37515 17.1521C8.41779 17.1706 8.46067 17.1884 8.50378 17.2054C8.7039 17.2791 8.90821 17.3378 9.11536 17.3812C9.15925 17.3926 9.20328 17.4032 9.24745 17.4132C9.49607 17.4596 9.74762 17.4839 9.99971 17.4858C10.0001 17.4858 10.0006 17.4859 10.001 17.4859C10.0015 17.4859 10.002 17.4858 10.0025 17.4858H14.6303C14.6309 17.4858 14.6314 17.4859 14.6319 17.4859C14.8843 17.484 15.1362 17.4597 15.3851 17.4132C15.4284 17.4035 15.4716 17.393 15.5147 17.382C15.7225 17.3385 15.9275 17.2797 16.1282 17.2058C16.1714 17.1887 16.2142 17.171 16.2569 17.1525C16.4598 17.07 16.6574 16.9722 16.8483 16.8598C16.8787 16.8418 16.9089 16.8234 16.939 16.8047C17.1491 16.6743 17.3501 16.5263 17.5401 16.362C17.5464 16.3568 17.5526 16.3516 17.5589 16.3464C18.1224 15.8547 18.5783 15.2276 18.8925 14.5119C19.2067 13.7963 19.371 13.0109 19.373 12.2145C19.3728 11.119 19.0656 10.0508 18.4942 9.15838C17.9228 8.26594 17.1154 7.59362 16.1845 7.23487C16.1844 7.23483 16.1843 7.23479 16.1842 7.23475C16.1841 7.23471 16.184 7.23467 16.1838 7.23462C15.9388 7.14043 15.6872 7.06874 15.4315 7.02029C15.4246 7.01891 15.4176 7.01755 15.4106 7.01621C15.1544 6.96831 14.895 6.94392 14.6352 6.94327C14.6341 6.94323 14.6329 6.94319 14.6318 6.94315C14.6313 6.94319 14.6308 6.94323 14.6303 6.94327H10.0055C10.004 6.94323 10.0025 6.94316 10.001 6.94312ZM10.0008 10.9716H14.6147H14.6869V10.9745C14.9702 10.9949 15.236 11.1344 15.4302 11.3647C15.6244 11.595 15.7325 11.8988 15.7326 12.2145C15.7319 12.5297 15.6235 12.8328 15.4293 13.0625C15.2352 13.2922 14.9698 13.4313 14.6869 13.4517V13.4574H14.6147H10.001C10.001 13.4574 10.0009 13.4574 10.001 13.4574C9.7045 13.4573 9.42009 13.3264 9.21047 13.0933C9.00086 12.8602 8.8831 12.5441 8.8831 12.2145C8.8831 11.8849 9.00086 11.5688 9.21047 11.3357C9.42009 11.1026 9.70439 10.9717 10.0008 10.9716Z" fill="black"/>
</g>
<path d="M5.64565 8.52305e-10C4.38825 1.75069e-05 3.18236 0.555386 2.29324 1.54394C1.40412 2.53248 0.904614 3.87324 0.904598 5.27126C0.904584 6.6693 1.40408 8.01009 2.2932 8.99866C3.18232 9.98724 4.38823 10.5426 5.64565 10.5426H15.0178C15.3142 10.5427 15.5985 10.6736 15.8082 10.9067C16.0178 11.1398 16.1355 11.4559 16.1355 11.7855C16.1355 12.1151 16.0178 12.4312 15.8082 12.6643C15.5985 12.8974 15.3142 13.0284 15.0178 13.0284L2.71135 13.0282C2.22716 13.0283 1.76281 13.2405 1.42044 13.6182C1.07808 13.996 0.88574 14.5083 0.885742 15.0425C0.88574 15.5767 1.07808 16.089 1.42044 16.4668C1.76281 16.8445 2.22716 17.0567 2.71135 17.0568H15.0178C16.2752 17.0567 17.4811 16.5014 18.3702 15.5128C19.2593 14.5243 19.7588 13.1835 19.7588 11.7855C19.7589 10.3875 19.2594 9.04668 18.3702 8.0581C17.4811 7.06953 16.2752 6.51414 15.0178 6.51412H5.64565C5.3492 6.5141 5.06489 6.38315 4.85527 6.15007C4.64566 5.91698 4.5279 5.60087 4.52791 5.27126C4.5279 4.94165 4.64566 4.62553 4.85527 4.39245C5.06489 4.15937 5.3492 4.02841 5.64565 4.02839H14.1659H15.1974H15.8115H16.8723H17.9331C18.4173 4.02841 18.8817 3.81622 19.2241 3.4385C19.5664 3.06077 19.7588 2.54846 19.7588 2.01426C19.7588 1.74974 19.7116 1.48781 19.6199 1.24342C19.5281 0.99904 19.3936 0.776986 19.2241 0.589943C19.0546 0.402901 18.8533 0.254533 18.6318 0.153311C18.4103 0.052088 18.1729 -7.69398e-06 17.9331 8.52305e-10H16.8723H15.8115H15.1974H14.1659H5.64565ZM17.9111 1.03721C18.0245 1.0372 18.1368 1.06203 18.2416 1.11027C18.3464 1.15851 18.4416 1.22923 18.5218 1.31838C18.602 1.40753 18.6656 1.51337 18.709 1.62985C18.7524 1.74633 18.7747 1.87118 18.7747 1.99727C18.7748 2.12336 18.7524 2.24822 18.709 2.36472C18.6656 2.48122 18.602 2.58707 18.5218 2.67624C18.4416 2.7654 18.3464 2.83613 18.2416 2.88438C18.1369 2.93263 18.0246 2.95746 17.9111 2.95745C17.7977 2.95744 17.6854 2.9326 17.5807 2.88434C17.4759 2.83608 17.3807 2.76535 17.3005 2.67619C17.2204 2.58703 17.1568 2.48118 17.1134 2.36469C17.07 2.2482 17.0476 2.12335 17.0477 1.99727C17.0477 1.74265 17.1386 1.49846 17.3006 1.31842C17.4625 1.13838 17.6821 1.03722 17.9111 1.03721Z" fill="white"/>
<path d="M10.3866 6.51416C9.12922 6.51418 7.92332 7.06955 7.0342 8.0581C6.14508 9.04664 5.64557 10.3874 5.64556 11.7854C5.64554 13.1835 6.14504 14.5242 7.03416 15.5128C7.92328 16.5014 9.1292 17.0568 10.3866 17.0568H19.7587C20.0552 17.0568 20.3395 17.1878 20.5491 17.4209C20.7587 17.6539 20.8765 17.9701 20.8765 18.2997C20.8765 18.6293 20.7587 18.9454 20.5491 19.1785C20.3395 19.4116 20.0552 19.5425 19.7587 19.5425L7.45231 19.5424C6.96813 19.5424 6.50378 19.7547 6.16141 20.1324C5.81904 20.5101 5.62671 21.0225 5.62671 21.5567C5.62671 22.0909 5.81904 22.6032 6.1614 22.9809C6.50377 23.3587 6.96813 23.5709 7.45231 23.5709H19.7587C21.0161 23.5709 22.222 23.0155 23.1112 22.027C24.0003 21.0384 24.4998 19.6977 24.4998 18.2997C24.4998 16.9016 24.0003 15.5608 23.1112 14.5723C22.2221 13.5837 21.0162 13.0283 19.7587 13.0283H10.3866C10.0902 13.0283 9.80586 12.8973 9.59624 12.6642C9.38662 12.4311 9.26887 12.115 9.26888 11.7854C9.26887 11.4558 9.38662 11.1397 9.59624 10.9066C9.80586 10.6735 10.0902 10.5426 10.3866 10.5426H18.9069H19.9384H20.5525H21.6132H22.6741C23.1583 10.5426 23.6226 10.3304 23.965 9.95266C24.3074 9.57493 24.4998 9.06262 24.4998 8.52842C24.4998 8.2639 24.4526 8.00197 24.3608 7.75758C24.2691 7.5132 24.1346 7.29115 23.9651 7.10411C23.7955 6.91706 23.5943 6.76869 23.3728 6.66747C23.1512 6.56625 22.9138 6.51415 22.6741 6.51416H21.6132H20.5525H19.9384H18.9069H10.3866ZM7.45276 20.5966C7.68177 20.5966 7.90139 20.6978 8.06332 20.8778C8.22525 21.0579 8.31623 21.3021 8.31625 21.5567C8.31625 21.6828 8.29392 21.8076 8.25053 21.9241C8.20714 22.0406 8.14354 22.1464 8.06336 22.2356C7.98318 22.3248 7.88799 22.3955 7.78322 22.4437C7.67845 22.492 7.56616 22.5168 7.45276 22.5169C7.33935 22.5169 7.22704 22.492 7.12226 22.4438C7.01748 22.3955 6.92227 22.3248 6.84208 22.2356C6.76188 22.1465 6.69827 22.0406 6.65488 21.9241C6.61148 21.8076 6.58914 21.6828 6.58915 21.5567C6.58916 21.4306 6.6115 21.3057 6.65491 21.1893C6.69831 21.0728 6.76193 20.9669 6.84212 20.8778C6.92232 20.7886 7.01751 20.7179 7.12228 20.6697C7.22706 20.6214 7.33936 20.5966 7.45276 20.5966Z" fill="white"/>
<path d="M10.3867 6.51416C10.1343 6.51605 9.88237 6.54036 9.63343 6.58685C9.5899 6.59667 9.5465 6.60717 9.50323 6.61835C9.29571 6.6617 9.09102 6.72042 8.89053 6.79411C8.84713 6.81131 8.80394 6.82922 8.76101 6.84782C8.55854 6.9302 8.36136 7.02784 8.17084 7.14006C8.14006 7.15825 8.10945 7.17681 8.07903 7.19575C7.86938 7.32585 7.66892 7.47347 7.47938 7.63733C7.4726 7.64293 7.46583 7.64856 7.45907 7.6542C6.89578 8.14584 6.43998 8.77296 6.12588 9.48849C5.81178 10.204 5.64755 10.9894 5.64551 11.7855C5.64755 12.5815 5.81169 13.3666 6.12561 14.082C6.43952 14.7973 6.89506 15.4244 7.45806 15.916C7.4653 15.9221 7.47255 15.9281 7.47982 15.9341C7.66895 16.0976 7.86897 16.2449 8.07813 16.3747C8.10873 16.3938 8.13952 16.4126 8.1705 16.4309C8.36109 16.5431 8.55834 16.6408 8.76089 16.7232C8.80353 16.7416 8.84641 16.7594 8.88952 16.7765C9.08964 16.8501 9.29395 16.9088 9.5011 16.9523C9.54499 16.9636 9.58902 16.9743 9.63319 16.9843C9.88181 17.0306 10.1334 17.0549 10.3855 17.0568C10.3859 17.0569 10.3863 17.0569 10.3868 17.0569C10.3873 17.0569 10.3878 17.0569 10.3883 17.0568H15.0161C15.0166 17.0569 15.0171 17.0569 15.0176 17.0569C15.27 17.055 15.5219 17.0307 15.7709 16.9843C15.8142 16.9745 15.8574 16.9641 15.9004 16.953C16.1082 16.9096 16.3132 16.8507 16.514 16.7769C16.5571 16.7598 16.6 16.742 16.6426 16.7235C16.8455 16.641 17.0431 16.5432 17.234 16.4308C17.2644 16.4128 17.2947 16.3944 17.3247 16.3757C17.5349 16.2453 17.7358 16.0973 17.9258 15.933C17.9321 15.9278 17.9384 15.9226 17.9447 15.9174C18.5081 15.4258 18.964 14.7986 19.2782 14.083C19.5924 13.3674 19.7567 12.5819 19.7588 11.7856C19.7586 10.6901 19.4514 9.62186 18.8799 8.72942C18.3085 7.83699 17.5012 7.16467 16.5702 6.80592C16.5701 6.80588 16.5701 6.80584 16.57 6.80579C16.5698 6.80575 16.5697 6.80571 16.5696 6.80567C16.3245 6.71147 16.0729 6.63979 15.8173 6.59133C15.8103 6.58995 15.8033 6.58859 15.7963 6.58725C15.5401 6.53936 15.2808 6.51497 15.021 6.51432C15.0198 6.51427 15.0187 6.51423 15.0175 6.51419C15.017 6.51423 15.0165 6.51427 15.016 6.51432H10.3913C10.3897 6.51427 10.3882 6.5142 10.3867 6.51416ZM10.3866 10.5427H15.0005H15.0726V10.5455C15.356 10.5659 15.6217 10.7054 15.8159 10.9357C16.0102 11.166 16.1183 11.4699 16.1183 11.7855C16.1176 12.1007 16.0092 12.4039 15.8151 12.6336C15.6209 12.8633 15.3555 13.0024 15.0726 13.0227V13.0284H15.0005H10.3867C10.3867 13.0284 10.3867 13.0284 10.3867 13.0284C10.0902 13.0284 9.80583 12.8974 9.59622 12.6643C9.3866 12.4313 9.26884 12.1152 9.26884 11.7856C9.26884 11.4559 9.3866 11.1398 9.59622 10.9068C9.80583 10.6737 10.0901 10.5427 10.3866 10.5427Z" fill="white"/>
</g>
<defs>
<clipPath id="clip0_412_4006">
<rect width="24" height="24" fill="white" transform="translate(0.5)"/>
</clipPath>
</defs>
</svg>
