<svg width="263" height="56" viewBox="0 0 263 56" fill="none" xmlns="http://www.w3.org/2000/svg">
<path d="M169.188 44.9062C166.438 44.8126 164.359 44.172 162.953 42.9845C161.547 41.7657 160.531 40.4062 159.906 38.9062C159.281 37.375 158.969 35.8281 158.969 34.2656C158.969 32.6406 159.266 31.0781 159.859 29.5781C160.484 28.0469 161.5 26.6875 162.906 25.5C164.344 24.2812 166.156 23.6562 168.344 23.625H186.156C187.031 23.625 187.766 23.9375 188.359 24.5625C188.984 25.1562 189.297 25.8906 189.297 26.7656C189.297 27.6406 188.984 28.3906 188.359 29.0156C187.766 29.6094 187.031 29.9062 186.156 29.9062H168.156C167.562 29.9062 167.047 30.1562 166.609 30.6562C166.172 31.1251 165.844 31.6875 165.625 32.3438C165.438 32.9688 165.344 33.5938 165.344 34.2188C165.344 34.875 165.438 35.5312 165.625 36.1875C165.844 36.8125 166.172 37.375 166.609 37.875C167.047 38.3438 167.562 38.5938 168.156 38.625H186.156C187.031 38.625 187.766 38.9375 188.359 39.5625C188.984 40.1562 189.297 40.8906 189.297 41.7656C189.297 42.6406 188.984 43.375 188.359 43.9688C187.766 44.5938 187.031 44.9062 186.156 44.9062H169.188ZM209.172 45.7031C207.547 45.7031 205.938 45.5156 204.344 45.1406C202.781 44.7656 201.281 44.2188 199.844 43.5C198.406 42.75 197.141 41.7657 196.047 40.547C194.953 39.3282 194.359 37.875 194.266 36.1875V34.2188V26.2031C194.266 25.3281 194.578 24.6094 195.203 24.0469C195.859 23.4531 196.625 23.1562 197.5 23.1562C199.375 23.3125 200.391 24.3281 200.547 26.2031V28.2656V34.7345C200.609 35.7032 200.969 36.5157 201.625 37.172C202.312 37.797 203.062 38.297 203.875 38.672C204.719 39.047 205.578 39.3281 206.453 39.5156C207.359 39.7031 208.266 39.797 209.172 39.797C210.078 39.797 210.969 39.7031 211.844 39.5156C212.75 39.3281 213.609 39.047 214.422 38.672C215.266 38.297 216.016 37.797 216.672 37.172C217.359 36.5157 217.734 35.7032 217.797 34.7345V28.2656V26.2031C217.797 25.3281 218.109 24.6094 218.734 24.0469C219.391 23.4531 220.156 23.1562 221.031 23.1562C222.906 23.3125 223.938 24.3281 224.125 26.2031V34.2188V36.1875C224.031 37.875 223.422 39.3282 222.297 40.547C221.203 41.7657 219.938 42.75 218.5 43.5C217.062 44.2188 215.547 44.7656 213.953 45.1406C212.391 45.5156 210.797 45.7031 209.172 45.7031ZM239.734 44.9062C236.984 44.8126 234.906 44.172 233.5 42.9845C232.094 41.7657 231.078 40.4062 230.453 38.9062C229.828 37.375 229.516 35.8281 229.516 34.2656C229.516 32.6406 229.812 31.0781 230.406 29.5781C231.031 28.0469 232.047 26.6875 233.453 25.5C234.891 24.2812 236.703 23.6562 238.891 23.625H256.703C257.578 23.625 258.312 23.9219 258.906 24.5156C259.531 25.0781 259.844 25.7656 259.844 26.5781C259.844 27.4219 259.531 28.1406 258.906 28.7344C258.312 29.2969 257.578 29.5781 256.703 29.5781H239.172C238.484 29.5781 237.875 29.8126 237.344 30.2812C236.844 30.7501 236.469 31.3595 236.219 32.1095C236 32.8595 235.891 33.5938 235.891 34.3125C235.891 35.0938 236 35.8595 236.219 36.6095C236.469 37.3595 236.844 37.9688 237.344 38.4375C237.875 38.875 238.484 39.1094 239.172 39.1406H256.703C257.578 39.1406 258.312 39.422 258.906 39.9845C259.531 40.547 259.844 41.2188 259.844 42C259.844 42.8125 259.531 43.5 258.906 44.0625C258.312 44.625 257.578 44.9062 256.703 44.9062H239.734ZM259.281 34.172C259.281 34.7657 259.016 35.2812 258.484 35.7188C258.016 36.125 257.422 36.3281 256.703 36.3281H241.375C240.656 36.3281 240.047 36.125 239.547 35.7188C239.047 35.2812 238.797 34.7657 238.797 34.172C238.797 33.6095 239.047 33.1095 239.547 32.672C240.047 32.2657 240.656 32.0625 241.375 32.0625H256.703C257.422 32.0625 258.031 32.2812 258.531 32.7188C259.031 33.125 259.281 33.6095 259.281 34.172Z" fill="white"/>
<path d="M9.88281 48.9844C9.69531 50.8594 8.66406 51.875 6.78906 52.0312C5.91406 52.0312 5.14844 51.7344 4.49219 51.1406C3.86719 50.5781 3.55469 49.8594 3.55469 48.9844V26.6719C3.58594 25.7969 3.91406 25.0781 4.53906 24.5156C5.16406 23.9219 5.91406 23.625 6.78906 23.625H26.4766C29.2266 23.7188 31.3047 24.375 32.7109 25.5938C34.1172 26.7812 35.1328 28.1406 35.7578 29.6719C36.3828 31.1719 36.6953 32.7031 36.6953 34.2656C36.6953 35.8906 36.3828 37.4688 35.7578 39C35.1641 40.5 34.1484 41.8594 32.7109 43.0781C31.3047 44.2656 29.5078 44.875 27.3203 44.9062H15.5078C14.6328 44.9062 13.8984 44.5938 13.3047 43.9688C12.6797 43.375 12.3672 42.6406 12.3672 41.7656C12.3672 40.8906 12.6641 40.1562 13.2578 39.5625C13.8828 38.9375 14.6328 38.625 15.5078 38.625H27.5078C28.1016 38.625 28.6172 38.3906 29.0547 37.9219C29.4922 37.4219 29.8047 36.8594 29.9922 36.2344C30.2109 35.5781 30.3203 34.9375 30.3203 34.3125C30.3203 33.6562 30.2109 33.0156 29.9922 32.3906C29.8047 31.7344 29.4922 31.1719 29.0547 30.7031C28.6172 30.2031 28.1016 29.9375 27.5078 29.9062H11.1016C10.2891 29.9375 9.88281 30.3438 9.88281 31.125V48.9844ZM43.3984 29.5312C43.9922 28.0312 44.9922 26.6875 46.3984 25.5C47.8359 24.2812 49.6484 23.6562 51.8359 23.625H69.4609C70.3359 23.625 71.0703 23.9375 71.6641 24.5625C72.2891 25.1562 72.6016 25.8906 72.6016 26.7656C72.6016 27.6406 72.2891 28.3906 71.6641 29.0156C71.0703 29.6094 70.3359 29.9062 69.4609 29.9062H51.6484C51.0547 29.9062 50.5391 30.1562 50.1016 30.6562C49.6641 31.125 49.3203 31.6875 49.0703 32.3438C48.8516 33 48.7422 33.625 48.7422 34.2188V42.4219C48.5547 44.2969 47.5234 45.3125 45.6484 45.4688C44.7734 45.4688 44.0078 45.1875 43.3516 44.625C42.7266 44.0312 42.4141 43.2969 42.4141 42.4219V34.2656H42.4609C42.4609 32.6406 42.7734 31.0625 43.3984 29.5312ZM86.8516 44.9062C84.1016 44.8125 82.0234 44.1719 80.6172 42.9844C79.2109 41.7656 78.1953 40.4062 77.5703 38.9062C76.9453 37.375 76.6328 35.8281 76.6328 34.2656C76.6328 32.6406 76.9297 31.0781 77.5234 29.5781C78.1484 28.0469 79.1641 26.6875 80.5703 25.5C82.0078 24.2812 83.8203 23.6562 86.0078 23.625H103.82C104.695 23.625 105.43 23.9219 106.023 24.5156C106.648 25.0781 106.961 25.7656 106.961 26.5781C106.961 27.4219 106.648 28.1406 106.023 28.7344C105.43 29.2969 104.695 29.5781 103.82 29.5781H86.2891C85.6016 29.5781 84.9922 29.8125 84.4609 30.2812C83.9609 30.75 83.5859 31.3594 83.3359 32.1094C83.1172 32.8594 83.0078 33.5938 83.0078 34.3125C83.0078 35.0938 83.1172 35.8594 83.3359 36.6094C83.5859 37.3594 83.9609 37.9688 84.4609 38.4375C84.9922 38.875 85.6016 39.1094 86.2891 39.1406H103.82C104.695 39.1406 105.43 39.4219 106.023 39.9844C106.648 40.5469 106.961 41.2188 106.961 42C106.961 42.8125 106.648 43.5 106.023 44.0625C105.43 44.625 104.695 44.9062 103.82 44.9062H86.8516ZM106.398 34.1719C106.398 34.7656 106.133 35.2812 105.602 35.7188C105.133 36.125 104.539 36.3281 103.82 36.3281H88.4922C87.7734 36.3281 87.1641 36.125 86.6641 35.7188C86.1641 35.2812 85.9141 34.7656 85.9141 34.1719C85.9141 33.6094 86.1641 33.1094 86.6641 32.6719C87.1641 32.2656 87.7734 32.0625 88.4922 32.0625H103.82C104.539 32.0625 105.148 32.2812 105.648 32.7188C106.148 33.125 106.398 33.6094 106.398 34.1719Z" fill="white"/>
<path d="M182.582 10.8482C188.274 8.6251 191.693 -0.537255 197.158 5.1555C202.623 10.8482 205.355 13.1251 210.365 12.8975C215.374 12.6698 222.433 6.74947 222.433 6.74947" stroke="#FF7686"/>
<path d="M182.582 10.8482C188.274 8.6251 191.693 -0.537255 197.158 5.1555C202.623 10.8482 205.355 13.1251 210.365 12.8975C215.374 12.6698 222.433 6.74947 222.433 6.74947" stroke="white"/>
<path d="M182.582 14.0362C188.274 11.8131 191.693 2.65073 197.158 8.34349C202.623 14.0362 205.355 16.3131 210.365 16.0855C215.374 15.8578 222.433 9.93746 222.433 9.93746" stroke="#FF7686"/>
<path d="M182.582 14.0362C188.274 11.8131 191.693 2.65073 197.158 8.34349C202.623 14.0362 205.355 16.3131 210.365 16.0855C215.374 15.8578 222.433 9.93746 222.433 9.93746" stroke="#FF7686"/>
<path d="M182.582 17.2243C188.274 15.0011 191.693 5.83874 197.158 11.5315C202.623 17.2243 205.355 19.5012 210.365 19.2735C215.374 19.0459 222.433 13.1255 222.433 13.1255" stroke="#FF7686"/>
<path d="M182.582 17.2243C188.274 15.0011 191.693 5.83874 197.158 11.5315C202.623 17.2243 205.355 19.5012 210.365 19.2735C215.374 19.0459 222.433 13.1255 222.433 13.1255" stroke="white"/>
<path fill-rule="evenodd" clip-rule="evenodd" d="M140.746 19.6602C141.397 19.0417 141.723 18.2767 141.723 17.3652C141.723 16.4538 141.397 15.6888 140.746 15.0703C140.128 14.4193 139.363 14.0938 138.451 14.0938H120.092C119.896 14.0938 119.701 14.11 119.506 14.1426H119.213C116.934 14.2077 115.062 14.7285 113.598 15.7051C112.133 16.6816 111.075 17.8047 110.424 19.0742C109.773 20.3112 109.447 21.5645 109.447 22.834C109.447 24.1361 109.757 25.4219 110.375 26.6914C111.026 27.9284 112.084 29.0352 113.549 30.0117C115.046 30.9883 116.934 31.5091 119.213 31.5742H133.08C133.699 31.6068 134.203 31.7532 134.594 32.0136C135.017 32.274 135.326 32.6159 135.521 33.0391C135.717 33.4297 135.814 33.7389 135.814 33.9668C135.814 34.3249 135.717 34.6828 135.521 35.041C135.326 35.3665 135.017 35.6594 134.594 35.9198C134.203 36.1803 133.699 36.2943 133.08 36.2617H113.451C112.54 36.2617 111.775 36.5872 111.156 37.2383C110.505 37.8568 110.18 38.6217 110.18 39.5331C110.18 40.4446 110.489 41.2258 111.107 41.8769C111.758 42.4953 112.54 42.8046 113.451 42.8046H131.908C132.104 42.8046 132.299 42.7884 132.494 42.7559H132.787C135.066 42.7559 136.938 42.2676 138.402 41.291C139.867 40.2819 140.925 39.1426 141.576 37.873C142.227 36.571 142.553 35.2689 142.553 33.9668C142.553 32.6322 142.227 31.33 141.576 30.0604C140.958 28.7584 139.9 27.619 138.402 26.6425C136.938 25.6334 135.066 25.0964 132.787 25.0312H118.92C118.301 24.9987 117.781 24.8685 117.357 24.6406C116.967 24.3802 116.674 24.1034 116.479 23.8104C116.283 23.4849 116.186 23.1595 116.186 22.834C116.186 22.5084 116.283 22.1992 116.479 21.9062C116.674 21.5807 116.967 21.304 117.357 21.0762C117.781 20.8158 118.301 20.6693 118.92 20.6367H138.451C139.363 20.6367 140.128 20.3112 140.746 19.6602ZM138.5 19C139.328 19 140 18.3284 140 17.5C140 16.6715 139.328 16 138.5 16C137.672 16 137 16.6715 137 17.5C137 18.3284 137.672 19 138.5 19Z" fill="white"/>
<path fill-rule="evenodd" clip-rule="evenodd" d="M151.246 30.6602C151.897 30.0417 152.223 29.2767 152.223 28.3652C152.223 27.4538 151.897 26.6887 151.246 26.0702C150.628 25.4192 149.863 25.0938 148.951 25.0938H130.592C130.396 25.0938 130.201 25.1099 130.006 25.1425H129.713C127.434 25.2076 125.562 25.7284 124.098 26.705C122.633 27.6815 121.575 28.8047 120.924 30.0742C120.273 31.3112 119.947 32.5645 119.947 33.834C119.947 35.1361 120.257 36.4218 120.875 37.6913C121.526 38.9283 122.584 40.0352 124.049 41.0117C125.546 41.9883 127.434 42.5091 129.713 42.5742H143.58C144.199 42.6068 144.703 42.7532 145.094 43.0136C145.517 43.274 145.826 43.6159 146.021 44.0391C146.217 44.4297 146.314 44.7389 146.314 44.9668C146.314 45.3249 146.217 45.6828 146.021 46.041C145.826 46.3665 145.517 46.6594 145.094 46.9198C144.703 47.1803 144.199 47.2943 143.58 47.2617H123.951C123.04 47.2617 122.275 47.5872 121.656 48.2383C121.005 48.8568 120.68 49.6217 120.68 50.5331C120.68 51.4446 120.989 52.2258 121.607 52.8769C122.258 53.4953 123.04 53.8046 123.951 53.8046H142.408C142.604 53.8046 142.799 53.7884 142.994 53.7559H143.287C145.566 53.7559 147.438 53.2676 148.902 52.291C150.367 51.2819 151.425 50.1426 152.076 48.873C152.727 47.571 153.053 46.2689 153.053 44.9668C153.053 43.6322 152.727 42.3301 152.076 41.0605C151.458 39.7585 150.4 38.6191 148.902 37.6426C147.438 36.6335 145.566 36.0964 143.287 36.0312H129.42C128.801 35.9987 128.281 35.8684 127.857 35.6405C127.467 35.3801 127.174 35.1035 126.979 34.8105C126.783 34.485 126.686 34.1595 126.686 33.834C126.686 33.5084 126.783 33.1992 126.979 32.9062C127.174 32.5807 127.467 32.3039 127.857 32.0761C128.281 31.8157 128.801 31.6693 129.42 31.6367H148.951C149.863 31.6367 150.628 31.3112 151.246 30.6602ZM123.5 52C124.328 52 125 51.3284 125 50.5C125 49.6715 124.328 49 123.5 49C122.672 49 122 49.6715 122 50.5C122 51.3284 122.672 52 123.5 52Z" fill="white"/>
</svg>
