<svg width="25" height="24" viewBox="0 0 25 24" fill="none" xmlns="http://www.w3.org/2000/svg">
<g clip-path="url(#clip0_498_1075)">
<path d="M12.4321 2.62636C12.3406 2.54499 12.2224 2.50003 12.1 2.5L12.4321 2.62636ZM12.4321 2.62636C12.5207 2.70509 12.5783 2.81262 12.5949 2.92968M12.4321 2.62636L12.5949 2.92968M12.5949 2.92968L12.6 3.01494V3.99945C12.5998 4.12689 12.551 4.24946 12.4636 4.34213C12.3761 4.4348 12.2565 4.49056 12.1293 4.49803C12.0021 4.5055 11.8768 4.46411 11.7791 4.38231C11.6845 4.30312 11.6226 4.19184 11.6051 4.06999L11.6 3.98506V3C11.6 2.86739 11.6527 2.74021 11.7464 2.64645C11.8402 2.55269 11.9673 2.50002 12.0999 2.5L12.5949 2.92968ZM12.1 7.5H12.1C13.523 7.49995 14.8907 8.05144 15.9156 9.03859C16.9394 10.0246 17.5416 11.3687 17.5962 12.7889L17.6 13.0044V20V20.5H18.1H19.0994C19.2269 20.5001 19.3494 20.5489 19.4421 20.6364C19.5348 20.7239 19.5906 20.8435 19.598 20.9707C19.6055 21.0979 19.5641 21.2232 19.4823 21.3209C19.4031 21.4155 19.2918 21.4774 19.17 21.4949L19.085 21.5H5.10054C4.9731 21.4999 4.85053 21.4511 4.75786 21.3636C4.66519 21.2761 4.60943 21.1565 4.60196 21.0293C4.59449 20.9021 4.63588 20.7768 4.71768 20.6791C4.79687 20.5845 4.90815 20.5226 5.03 20.5051L5.11493 20.5H6.09999H6.59999V20V13C6.59999 11.5413 7.17945 10.1424 8.2109 9.11091C9.24235 8.07946 10.6413 7.5 12.1 7.5ZM7.59999 20V20.5H8.09999H16.1H16.6V20V13C16.6 11.8065 16.1259 10.6619 15.282 9.81802C14.4381 8.97411 13.2935 8.5 12.1 8.5C10.9065 8.5 9.76192 8.97411 8.91801 9.81802C8.07409 10.6619 7.59999 11.8065 7.59999 13V20ZM12.3571 12.0714L12.3572 12.0714C12.4706 12.1397 12.5524 12.2502 12.5845 12.3788C12.6165 12.5073 12.5963 12.6433 12.5282 12.7569L12.5279 12.7573L11.9379 13.7433L11.4851 14.5H12.367H13.582C13.9782 14.5 14.2233 14.9329 14.0193 15.2727L14.0192 15.2729L12.5293 17.7577C12.4609 17.8715 12.3502 17.9536 12.2213 17.9858C12.0925 18.018 11.9562 17.9976 11.8423 17.9293C11.7285 17.861 11.6464 17.7502 11.6142 17.6214C11.582 17.4925 11.6024 17.3562 11.6707 17.2423L12.2625 16.2576L12.7179 15.5H11.834H10.618H10.6179C10.5276 15.5 10.439 15.4761 10.361 15.4306C10.283 15.3851 10.2185 15.3198 10.174 15.2412C10.1295 15.1627 10.1067 15.0737 10.1079 14.9834C10.109 14.8932 10.1342 14.8048 10.1806 14.7274L10.1808 14.7271L11.6706 12.2424C11.6707 12.2423 11.6707 12.2422 11.6708 12.2421C11.6708 12.2421 11.6708 12.2421 11.6708 12.2421C11.7046 12.1859 11.7492 12.1369 11.8019 12.0979C11.8547 12.0588 11.9147 12.0305 11.9785 12.0146C12.0422 11.9987 12.1085 11.9956 12.1735 12.0053C12.2384 12.0151 12.3009 12.0375 12.3571 12.0714ZM5.37634 5.56936L5.37629 5.56941L5.38244 5.57555L6.08293 6.27604C6.16901 6.37013 6.21594 6.49364 6.21396 6.62131C6.21195 6.75116 6.15949 6.87512 6.0677 6.96698C5.97591 7.05883 5.85198 7.11138 5.72214 7.11348C5.59452 7.11556 5.47102 7.06874 5.37689 6.98279L4.67654 6.28245L4.6766 6.28239L4.67034 6.27636C4.62259 6.23023 4.5845 6.17506 4.55829 6.11406C4.53209 6.05306 4.5183 5.98745 4.51772 5.92106C4.51714 5.85467 4.52979 5.78883 4.55493 5.72738C4.58007 5.66593 4.6172 5.61011 4.66415 5.56316C4.71109 5.51621 4.76692 5.47909 4.82837 5.45395C4.88982 5.4288 4.95566 5.41615 5.02205 5.41673C5.08843 5.41731 5.15404 5.4311 5.21505 5.45731C5.27471 5.48293 5.3292 5.52054 5.37634 5.56936ZM19.5245 5.57561C19.6105 5.6617 19.6622 5.77622 19.6699 5.8977C19.6772 6.01482 19.6432 6.13065 19.5739 6.22502L19.5135 6.29342L18.818 6.98885C18.818 6.98893 18.8179 6.989 18.8178 6.98908C18.7278 7.07861 18.6072 7.13059 18.4803 7.13446C18.3534 7.13834 18.2297 7.09374 18.1344 7.00972C18.0391 6.9257 17.9794 6.80857 17.9673 6.68211C17.9557 6.56013 17.9893 6.4383 18.0614 6.33964L18.1215 6.27158L18.8175 5.57561C18.9113 5.48187 19.0384 5.42921 19.171 5.42921C19.3036 5.42921 19.4307 5.48187 19.5245 5.57561Z" fill="white" stroke="#484C52"/>
</g>
<defs>
<clipPath id="clip0_498_1075">
<rect width="24" height="24" fill="white" transform="translate(0.0999756)"/>
</clipPath>
</defs>
</svg>
