<svg width="139" height="129" viewBox="0 0 139 129" fill="none" xmlns="http://www.w3.org/2000/svg">
<g clip-path="url(#clip0_348_3781)">
<path d="M26.1186 90.8442L24.6852 102.826L22.5758 89.215C12.4384 85.0873 0.585375 84.2856 0.585375 84.2856C0.585375 84.2856 -2.03032 110.282 6.60579 121.151C15.2419 132.021 24.3472 130.369 31.8595 123.649C39.3717 116.929 42.4461 107.686 33.81 96.8159C31.8878 94.3965 29.1744 92.4344 26.1186 90.8442Z" fill="#F2F2F2"/>
<path d="M23.3078 104.637L23.7334 105.173C28.6515 111.428 31.5223 117.173 32.2985 122.332C32.3111 122.407 32.319 122.481 32.3316 122.556L32.0024 122.61L31.6854 122.658C30.9045 117.035 27.5176 111.131 23.2292 105.674C23.0926 105.497 22.9539 105.317 22.8102 105.141C20.9756 102.848 18.995 100.641 16.9871 98.5709C16.833 98.4092 16.6743 98.2472 16.5156 98.0851C13.852 95.3676 11.1637 92.8991 8.76257 90.8134C8.59348 90.6652 8.4219 90.5192 8.25242 90.3759C4.1746 86.8634 0.998475 84.5182 0.290324 84.0036C0.205011 83.9393 0.156681 83.9054 0.145752 83.897L0.326327 83.613L0.326719 83.6081L0.509795 83.3218C0.520734 83.3302 0.683343 83.4433 0.976707 83.6619C2.07868 84.473 5.03904 86.7027 8.70968 89.8534C8.87455 89.9963 9.04614 90.1423 9.21522 90.2905C11.1654 91.9809 13.2957 93.914 15.442 96.0234C15.982 96.5523 16.5081 97.0799 17.0204 97.6063C17.1816 97.7661 17.3402 97.9282 17.4943 98.0899C19.6652 100.327 21.603 102.509 23.3078 104.637Z" fill="white"/>
<path d="M8.70955 89.8535C8.56104 90.0272 8.41004 90.2031 8.2523 90.3759C7.82455 90.8461 7.37439 91.2927 6.90358 91.714C4.89908 93.512 2.53995 94.8098 0 95.5119C0.00669887 95.7464 0.0134112 95.9809 0.0197186 96.2203C2.70849 95.5029 5.20721 94.1431 7.32506 92.2445C7.82761 91.7947 8.30741 91.317 8.76245 90.8135C8.91768 90.6429 9.06868 90.4669 9.21509 90.2906C10.4304 88.8435 11.4315 87.209 12.1843 85.4429C11.9609 85.3931 11.7421 85.3438 11.5279 85.2949C10.8051 86.9534 9.85543 88.4895 8.70955 89.8535Z" fill="white"/>
<path d="M17.0203 97.6064C16.8562 97.7713 16.688 97.9309 16.5155 98.0852C16.4651 98.1348 16.4101 98.184 16.3576 98.2309C14.1832 100.176 11.5978 101.534 8.8217 102.19C6.04564 102.846 3.16129 102.78 0.414551 101.997C0.438899 102.243 0.463246 102.489 0.492204 102.736C3.30928 103.494 6.25601 103.528 9.08833 102.837C11.9206 102.146 14.557 100.749 16.7791 98.7614C16.8491 98.6988 16.9191 98.6362 16.9869 98.5709C17.1598 98.4117 17.3281 98.2521 17.4942 98.0899C20.0479 95.5573 21.8602 92.2979 22.7142 88.7013C22.5099 88.6164 22.3056 88.5314 22.0987 88.4487C21.2818 91.9606 19.5168 95.1432 17.0203 97.6064Z" fill="white"/>
<path d="M23.3076 104.637C23.1452 104.81 22.9787 104.977 22.81 105.141C22.6289 105.317 22.4456 105.49 22.2581 105.658C19.3334 108.268 15.6906 109.803 11.8751 110.032C8.05965 110.262 4.27674 109.174 1.09277 106.931C1.15099 107.246 1.20708 107.559 1.27029 107.87C4.55264 110.013 8.38791 111.004 12.2312 110.702C16.0745 110.4 19.7305 108.821 22.6796 106.188C22.8671 106.021 23.0524 105.85 23.229 105.674C23.4023 105.51 23.5688 105.343 23.7332 105.173C27.0345 101.718 28.975 97.0609 29.1618 92.1448C28.9534 91.9955 28.7395 91.8555 28.5236 91.7129C28.4349 96.5768 26.5639 101.213 23.3076 104.637Z" fill="white"/>
<path d="M79.7775 30.4933V11.1787C79.7775 8.21396 78.6676 5.37062 76.6919 3.2742C74.7162 1.17778 72.0365 2.04717e-05 69.2425 2.21563e-10H30.6781C29.2946 -9.24193e-06 27.9247 0.289129 26.6465 0.850906C25.3683 1.41268 24.2069 2.2361 23.2286 3.27413C22.2504 4.31217 21.4744 5.54451 20.9449 6.90077C20.4155 8.25704 20.1429 9.71068 20.1429 11.1787V24.0061H19.4653V28.5258H20.1429V33.3468H19.4653V40.2771H20.1429V43.2902H19.4653V50.2205H20.1429V117.14C20.1429 118.608 20.4154 120.061 20.9449 121.418C21.4743 122.774 22.2503 124.006 23.2286 125.044C24.2068 126.082 25.3682 126.906 26.6464 127.468C27.9246 128.029 29.2945 128.319 30.678 128.319H69.2423C70.6258 128.319 71.9958 128.029 73.274 127.468C74.5521 126.906 75.7135 126.082 76.6918 125.044C77.6701 124.006 78.4461 122.774 78.9755 121.418C79.505 120.062 79.7775 118.608 79.7775 117.14V44.2417H80.4419V30.4933H79.7775Z" fill="#3F3D56"/>
<path d="M69.6674 2.90821H64.6334C64.8649 3.51044 64.9533 4.16384 64.8908 4.81084C64.8282 5.45785 64.6167 6.0786 64.2748 6.61843C63.9329 7.15825 63.4711 7.60057 62.9302 7.90642C62.3892 8.21227 61.7857 8.37227 61.1727 8.37232H39.0797C38.4667 8.37227 37.8632 8.21227 37.3223 7.90642C36.7813 7.60057 36.3195 7.15825 35.9776 6.61843C35.6357 6.0786 35.4242 5.45785 35.3617 4.81084C35.2991 4.16383 35.3875 3.51043 35.619 2.9082H30.9173C28.8307 2.9082 26.8296 3.78774 25.3541 5.35332C23.8787 6.9189 23.0498 9.04229 23.0498 11.2564V117.062C23.0498 118.158 23.2533 119.244 23.6487 120.257C24.0441 121.27 24.6236 122.19 25.3541 122.965C26.0847 123.74 26.952 124.355 27.9065 124.775C28.8611 125.194 29.8841 125.41 30.9173 125.41H69.6674C71.754 125.41 73.7551 124.531 75.2305 122.965C76.706 121.399 77.5349 119.276 77.5349 117.062V11.2564C77.5349 10.1601 77.3314 9.0745 76.936 8.06165C76.5406 7.04881 75.9611 6.12852 75.2305 5.35332C74.5 4.57812 73.6327 3.9632 72.6781 3.54367C71.7236 3.12414 70.7005 2.90821 69.6674 2.90821Z" fill="white"/>
<path d="M70.642 39.7298H29.9426C29.6589 39.7294 29.387 39.6097 29.1865 39.3969C28.9859 39.1841 28.8731 38.8956 28.8728 38.5947V21.0716C28.8731 20.7707 28.9859 20.4822 29.1865 20.2694C29.387 20.0566 29.6589 19.9369 29.9426 19.9365H70.642C70.9257 19.9369 71.1976 20.0566 71.3981 20.2694C71.5987 20.4822 71.7115 20.7707 71.7118 21.0716V38.5947C71.7115 38.8956 71.5987 39.1841 71.3981 39.3969C71.1976 39.6097 70.9257 39.7294 70.642 39.7298Z" fill="#FF3951"/>
<path d="M66.7669 48.0222H33.8181C33.506 48.0222 33.2067 47.8906 32.986 47.6565C32.7653 47.4223 32.6414 47.1047 32.6414 46.7735C32.6414 46.4424 32.7653 46.1248 32.986 45.8906C33.2067 45.6565 33.506 45.5249 33.8181 45.5249H66.7669C67.079 45.5249 67.3783 45.6565 67.5989 45.8906C67.8196 46.1248 67.9436 46.4424 67.9436 46.7735C67.9436 47.1047 67.8196 47.4223 67.5989 47.6565C67.3783 47.8906 67.079 48.0222 66.7669 48.0222Z" fill="#FF3951"/>
<path d="M66.7669 54.3786H33.8181C33.4777 54.3786 33.1512 54.2351 32.9104 53.9796C32.6697 53.7242 32.5344 53.3777 32.5344 53.0164C32.5344 52.6552 32.6697 52.3087 32.9104 52.0533C33.1512 51.7978 33.4777 51.6543 33.8181 51.6543H66.7669C67.1074 51.6543 67.4339 51.7978 67.6746 52.0533C67.9154 52.3087 68.0506 52.6552 68.0506 53.0164C68.0506 53.3777 67.9154 53.7242 67.6746 53.9796C67.4339 54.2351 67.1074 54.3786 66.7669 54.3786Z" fill="#E4E4E4"/>
<path d="M66.7669 60.6218H33.8181C33.4777 60.6218 33.1512 60.4782 32.9104 60.2228C32.6697 59.9673 32.5344 59.6209 32.5344 59.2596C32.5344 58.8983 32.6697 58.5519 32.9104 58.2964C33.1512 58.041 33.4777 57.8975 33.8181 57.8975H66.7669C67.1074 57.8975 67.4339 58.041 67.6746 58.2964C67.9154 58.5519 68.0506 58.8983 68.0506 59.2596C68.0506 59.6209 67.9154 59.9673 67.6746 60.2228C67.4339 60.4782 67.1074 60.6218 66.7669 60.6218Z" fill="#E4E4E4"/>
<path d="M70.642 92.1722H29.9426C29.6589 92.1718 29.387 92.0521 29.1865 91.8393C28.9859 91.6265 28.8731 91.338 28.8728 91.0371V73.514C28.8731 73.2131 28.9859 72.9246 29.1865 72.7118C29.387 72.499 29.6589 72.3793 29.9426 72.3789H70.642C70.9257 72.3793 71.1976 72.499 71.3981 72.7118C71.5987 72.9246 71.7115 73.2131 71.7118 73.514V91.0371C71.7115 91.338 71.5987 91.6265 71.3981 91.8393C71.1976 92.0521 70.9257 92.1718 70.642 92.1722Z" fill="#E4E4E4"/>
<path d="M66.7669 100.578H33.8181C33.4777 100.578 33.1512 100.435 32.9104 100.179C32.6697 99.9239 32.5344 99.5774 32.5344 99.2162C32.5344 98.8549 32.6697 98.5084 32.9104 98.253C33.1512 97.9975 33.4777 97.854 33.8181 97.854H66.7669C67.1074 97.854 67.4339 97.9975 67.6746 98.253C67.9154 98.5084 68.0506 98.8549 68.0506 99.2162C68.0506 99.5774 67.9154 99.9239 67.6746 100.179C67.4339 100.435 67.1074 100.578 66.7669 100.578Z" fill="#E4E4E4"/>
<path d="M66.7669 106.821H33.8181C33.4777 106.821 33.1512 106.678 32.9104 106.422C32.6697 106.167 32.5344 105.821 32.5344 105.459C32.5344 105.098 32.6697 104.752 32.9104 104.496C33.1512 104.241 33.4777 104.097 33.8181 104.097H66.7669C67.1074 104.097 67.4339 104.241 67.6746 104.496C67.9154 104.752 68.0506 105.098 68.0506 105.459C68.0506 105.821 67.9154 106.167 67.6746 106.422C67.4339 106.678 67.1074 106.821 66.7669 106.821Z" fill="#E4E4E4"/>
<path d="M66.7669 113.065H33.8181C33.4777 113.065 33.1512 112.921 32.9104 112.666C32.6697 112.41 32.5344 112.064 32.5344 111.702C32.5344 111.341 32.6697 110.995 32.9104 110.739C33.1512 110.484 33.4777 110.34 33.8181 110.34H66.7669C67.1074 110.34 67.4339 110.484 67.6746 110.739C67.9154 110.995 68.0506 111.341 68.0506 111.702C68.0506 112.064 67.9154 112.41 67.6746 112.666C67.4339 112.921 67.1074 113.065 66.7669 113.065Z" fill="#E4E4E4"/>
<path d="M103.747 33.2219C103.333 30.0005 102.814 26.5419 100.672 24.2164C99.993 23.4786 99.1798 22.8943 98.2818 22.499C97.3839 22.1036 96.4197 21.9053 95.4476 21.9159C94.4754 21.9266 93.5154 22.1461 92.6253 22.5611C91.7352 22.9761 90.9336 23.5781 90.2687 24.3307C88.71 26.0951 88.0217 28.5726 87.9587 30.9901C87.8957 33.4075 88.4031 35.7981 88.966 38.1416C91.9448 38.2047 94.9015 37.5872 97.6356 36.3309C98.3056 35.9839 99.0007 35.6943 99.7143 35.465C100.437 35.2699 100.951 35.7608 101.623 36.1031L101.992 35.3537C102.294 35.9499 103.229 35.7732 103.568 35.1999C103.907 34.6267 103.833 33.8925 103.747 33.2219Z" fill="#2F2E41"/>
<path d="M131.032 121.46L128.844 122.995L122.222 114.771L125.451 112.505L131.032 121.46Z" fill="#9E616A"/>
<path d="M132.993 123.318L125.938 128.269L125.879 128.174C125.398 127.401 125.225 126.457 125.399 125.55C125.574 124.642 126.081 123.845 126.809 123.334L131.118 120.31L132.993 123.318Z" fill="#2F2E41"/>
<path d="M102.789 125.571H100.166L98.9185 114.835L102.79 114.836L102.789 125.571Z" fill="#9E616A"/>
<path d="M103.458 128.269L95.0005 128.269V128.155C95.0005 127.229 95.3474 126.34 95.9648 125.685C96.5821 125.03 97.4194 124.662 98.2925 124.662L103.458 124.662L103.458 128.269Z" fill="#2F2E41"/>
<path d="M84.1268 51.7951L74.2231 44.2884C74.2667 43.8951 74.2017 43.4969 74.036 43.1422C73.8702 42.7874 73.6108 42.4914 73.2894 42.2902C72.968 42.089 72.5985 41.9912 72.2257 42.0089C71.8529 42.0265 71.4929 42.1587 71.1896 42.3894C70.8864 42.6201 70.6528 42.9394 70.5174 43.3083C70.382 43.6773 70.3506 44.0801 70.427 44.4677C70.5034 44.8553 70.6843 45.2109 70.9478 45.4914C71.2112 45.7719 71.5457 45.965 71.9107 46.0474C73.1487 47.1503 82.1907 56.6922 83.4854 56.1889C84.7994 55.6781 90.5444 54.7534 90.5444 54.7534L90.7043 48.9653L84.1268 51.7951Z" fill="#9E616A"/>
<path d="M91.908 65.4529L92.0015 78.6607C92.0015 78.6607 94.1447 98.2305 94.9352 101.536C95.7256 104.842 98.9343 120.14 98.9343 120.14L104.15 119.247L100.791 99.2469L101.806 82.6702L107.661 99.2834L122.528 115.773L126.295 112.547L113.355 92.3688L109.403 75.8389C109.403 75.8389 109.895 67.2891 105.466 63.9966L91.908 65.4529Z" fill="#2F2E41"/>
<path d="M94.904 36.4094C98.0614 36.4094 100.621 33.6935 100.621 30.3431C100.621 26.9928 98.0614 24.2769 94.904 24.2769C91.7466 24.2769 89.187 26.9928 89.187 30.3431C89.187 33.6935 91.7466 36.4094 94.904 36.4094Z" fill="#9E616A"/>
<path d="M96.3915 67.5844L94.2666 72.6172L100.433 75.5483L102.557 70.5155L96.3915 67.5844Z" fill="#2F2E41"/>
<path d="M104.061 42.0153C103.387 40.5926 103.06 38.8349 101.623 38.3737C100.653 38.0622 96.7305 38.529 95.8465 39.0548C94.3762 39.9293 95.7086 41.5682 94.8412 43.1018C93.8982 44.769 92.9552 46.4362 92.0122 48.1034C91.3639 49.2495 90.7088 50.412 90.3583 51.6959C90.0078 52.9798 89.9909 54.4209 90.5881 55.5979C91.1225 56.6514 92.0907 57.3986 92.6281 58.4503C93.1871 59.5441 92.1837 64.4282 91.6635 65.5433L91.9132 65.6657C95.3718 65.8811 98.8417 65.7572 102.279 65.2956C103.132 65.181 104.018 65.0312 104.721 64.5058C105.756 63.7318 106.166 62.3274 106.421 61.0111C107.653 54.577 106.822 47.8908 104.061 42.0153Z" fill="#E4E4E4"/>
<path d="M92.3604 55.7938C93.9093 54.1786 95.4661 52.5538 96.7411 50.6884C98.0161 48.8231 99.0076 46.688 99.2845 44.4025C99.4029 43.6733 99.3559 42.9246 99.1472 42.2185C98.9096 41.5263 98.3836 40.912 97.7055 40.754C96.6203 40.5012 95.6338 41.4202 94.8594 42.2655C92.5762 44.758 90.293 47.2504 88.0098 49.7428C89.4641 51.7742 90.9185 53.8056 92.3729 55.8369L92.3604 55.7938Z" fill="#E4E4E4"/>
<path d="M109.242 57.0379C108.761 55.6437 107.889 49.5476 107.889 49.5476L102.435 49.3779L105.101 56.3574L97.8241 67.1674C97.8241 67.1674 97.8376 67.1912 97.8621 67.2335C97.4795 67.1684 97.0872 67.2273 96.7367 67.4026C96.3862 67.5779 96.0937 67.8614 95.8975 68.216C95.7013 68.5706 95.6105 68.9798 95.6371 69.39C95.6637 69.8002 95.8063 70.1923 96.0464 70.5151C96.2865 70.8379 96.6128 71.0762 96.9827 71.199C97.3525 71.3217 97.7486 71.3231 98.1193 71.203C98.4899 71.0829 98.8177 70.8469 99.0598 70.5259C99.3019 70.2049 99.4471 69.8137 99.4763 69.4037C99.5031 69.42 99.5344 69.4259 99.5649 69.4204C99.5953 69.4148 99.623 69.3982 99.6431 69.3733C100.453 68.2951 109.724 58.4322 109.242 57.0379Z" fill="#9E616A"/>
<path d="M109.797 53.1883C109.296 50.946 108.792 48.6916 107.948 46.5685C107.104 44.4454 105.895 42.44 104.196 41.0057C103.669 40.5206 103.041 40.1758 102.364 39.9997C101.682 39.8572 100.915 40.0167 100.436 40.5506C99.6708 41.405 99.9012 42.7763 100.182 43.9169C101.01 47.2799 101.838 50.643 102.666 54.006C105.056 53.7371 107.447 53.4682 109.838 53.1993L109.797 53.1883Z" fill="#E4E4E4"/>
<path d="M102.051 30.8147C101.872 29.3472 101.686 27.8674 101.266 26.4856C100.846 25.1038 100.169 23.8096 99.1981 23.0268C97.6608 21.7874 95.6704 22.0265 93.9468 22.7394C92.6139 23.2907 91.3127 24.1286 90.3728 25.4758C89.4328 26.823 88.9048 28.7452 89.2545 30.5067C91.093 29.9638 92.9316 29.4208 94.7701 28.8779L94.5688 29.0557C95.7619 29.769 96.668 31.245 96.9388 32.9162C97.2109 34.5815 96.8629 36.2939 95.9682 37.6923C97.222 37.1363 98.4759 36.5803 99.7298 36.0244C100.504 35.6812 101.332 35.2859 101.791 34.4057C102.323 33.3852 102.2 32.0326 102.051 30.8147Z" fill="#2F2E41"/>
<path d="M75.0589 40.3249L71.3812 46.1817C71.2934 46.3223 71.174 46.4375 71.0337 46.5168C70.8934 46.5962 70.7367 46.6371 70.5777 46.636C70.3885 46.636 70.2036 46.5767 70.0461 46.4654C69.8887 46.3541 69.7658 46.1958 69.693 46.0106C69.6672 45.9481 69.6479 45.8828 69.6354 45.8159C69.5857 45.5501 69.6372 45.2743 69.7787 45.0487L73.4564 39.192C73.5265 39.0803 73.6167 38.9844 73.7217 38.9097C73.8267 38.8351 73.9446 38.7831 74.0686 38.7567C74.1925 38.7304 74.3202 38.7302 74.4442 38.7562C74.5683 38.7822 74.6863 38.8339 74.7915 38.9083C74.8967 38.9826 74.9871 39.0783 75.0575 39.1897C75.1278 39.3012 75.1769 39.4263 75.2017 39.5578C75.2265 39.6894 75.2267 39.8248 75.2022 39.9564C75.1777 40.088 75.129 40.2133 75.0589 40.3249Z" fill="#FF3951"/>
<path d="M71.6776 45.7096L70.9332 46.8881L69.616 48.1201C69.5294 48.2013 69.4198 48.2498 69.3045 48.2581C69.1891 48.2664 69.0744 48.234 68.9782 48.166C68.882 48.0979 68.8097 47.9981 68.7725 47.8819C68.7353 47.7658 68.7353 47.6399 68.7726 47.5237L69.3491 45.7329L70.0752 44.5767L71.6776 45.7096Z" fill="#3F3D56"/>
<path d="M75.2212 37.2538L73.3781 38.9775C73.3178 39.034 73.2705 39.1044 73.2398 39.1833C73.2092 39.2622 73.1961 39.3476 73.2015 39.4327C73.2069 39.5179 73.2307 39.6006 73.271 39.6744C73.3114 39.7483 73.3672 39.8113 73.4341 39.8586L73.7828 40.1051L72.7744 41.711C72.7588 41.7358 72.748 41.7637 72.7426 41.7929C72.7371 41.8222 72.7372 41.8523 72.7427 41.8815C72.7482 41.9107 72.7591 41.9385 72.7747 41.9633C72.7904 41.9881 72.8105 42.0093 72.8338 42.0258C72.8572 42.0424 72.8834 42.0539 72.911 42.0596C72.9386 42.0654 72.9669 42.0654 72.9945 42.0595C73.022 42.0537 73.0482 42.0421 73.0716 42.0255C73.0949 42.0089 73.115 41.9876 73.1305 41.9628L74.1389 40.3569L74.4876 40.6035C74.6033 40.6851 74.7448 40.7149 74.881 40.6862C75.0173 40.6574 75.1373 40.5726 75.2148 40.4502C75.2403 40.4095 75.2607 40.3654 75.2755 40.319L76.065 37.8504C76.1021 37.7342 76.1021 37.6083 76.0648 37.4922C76.0276 37.376 75.9552 37.2762 75.859 37.2082C75.7628 37.1402 75.6481 37.1078 75.5328 37.116C75.4174 37.1243 75.3079 37.1727 75.2212 37.2538Z" fill="#3F3D56"/>
<path d="M138.745 128.748H0.254743C0.187307 128.747 0.122698 128.719 0.0750819 128.668C0.0274663 128.618 0.000732422 128.549 0.000732422 128.477C0.000732422 128.406 0.0274663 128.337 0.0750819 128.286C0.122698 128.236 0.187307 128.207 0.254743 128.207H138.745C138.813 128.207 138.877 128.236 138.925 128.286C138.973 128.337 138.999 128.406 138.999 128.477C138.999 128.549 138.973 128.618 138.925 128.668C138.877 128.719 138.813 128.747 138.745 128.748Z" fill="#3F3D56"/>
<path d="M51.7366 4.88759H45.9599C45.8464 4.88759 45.7376 4.83975 45.6573 4.7546C45.5771 4.66945 45.532 4.55396 45.532 4.43354C45.532 4.31312 45.5771 4.19763 45.6573 4.11248C45.7376 4.02733 45.8464 3.97949 45.9599 3.97949H51.7366C51.8501 3.97949 51.9589 4.02733 52.0392 4.11248C52.1194 4.19763 52.1645 4.31312 52.1645 4.43354C52.1645 4.55396 52.1194 4.66945 52.0392 4.7546C51.9589 4.83975 51.8501 4.88759 51.7366 4.88759Z" fill="white"/>
<path d="M54.6249 4.88759C54.8613 4.88759 55.0528 4.68431 55.0528 4.43354C55.0528 4.18278 54.8613 3.97949 54.6249 3.97949C54.3886 3.97949 54.197 4.18278 54.197 4.43354C54.197 4.68431 54.3886 4.88759 54.6249 4.88759Z" fill="white"/>
</g>
<defs>
<clipPath id="clip0_348_3781">
<rect width="139" height="129" fill="white"/>
</clipPath>
</defs>
</svg>
