<svg width="314" height="51" viewBox="0 0 314 51" fill="none" xmlns="http://www.w3.org/2000/svg">
<mask id="mask0_1573_562" style="mask-type:luminance" maskUnits="userSpaceOnUse" x="62" y="6" width="45" height="44">
<path d="M106.796 6.56738H62.5039V49.0122H106.796V6.56738Z" fill="white"/>
</mask>
<g mask="url(#mask0_1573_562)">
<path opacity="0.945799" d="M71.4319 6.56738C69.0735 6.56741 66.8116 7.56748 65.1439 9.34758C63.4762 11.1277 62.5393 13.542 62.5393 16.0595C62.5393 18.577 63.4761 20.9913 65.1438 22.7715C66.8115 24.5516 69.0734 25.5517 71.4319 25.5518H89.0112C89.5672 25.5518 90.1 25.7876 90.4938 26.2073C90.8869 26.627 91.1078 27.1963 91.1078 27.7898C91.1078 28.3833 90.8869 28.9526 90.4938 29.3723C90.1 29.792 89.5672 30.0278 89.0112 30.0279L65.9282 30.0276C65.02 30.0276 64.149 30.4098 63.5069 31.0901C62.8647 31.7703 62.5039 32.6928 62.5039 33.6548C62.5039 34.6167 62.8647 35.5393 63.5069 36.2195C64.149 36.8997 65.02 37.2818 65.9282 37.2819H89.0112C91.3695 37.2818 93.6314 36.2818 95.2994 34.5016C96.9666 32.7215 97.9033 30.3073 97.9033 27.7898C97.9041 25.2723 96.9666 22.8579 95.2994 21.0778C93.6314 19.2976 91.3695 18.2975 89.0112 18.2975H71.4319C70.8759 18.2975 70.3426 18.0616 69.9494 17.6419C69.5563 17.2222 69.3354 16.653 69.3354 16.0595C69.3354 15.466 69.5563 14.8967 69.9494 14.477C70.3426 14.0572 70.8759 13.8215 71.4319 13.8214H87.4134H89.3479H90.5H92.4893H94.4793C95.3874 13.8215 96.2585 13.4393 96.901 12.7591C97.5427 12.079 97.9033 11.1565 97.9033 10.1945C97.9033 9.71818 97.8153 9.24651 97.6431 8.80644C97.4709 8.36637 97.2183 7.96651 96.901 7.62971C96.5828 7.29289 96.2052 7.02573 95.7897 6.84345C95.3743 6.66118 94.9287 6.56737 94.4793 6.56738H92.4893H90.5H89.3479H87.4134H71.4319Z" fill="#F5F5FF"/>
<path opacity="0.945799" d="M94.438 11.8929C95.3322 11.8929 96.0573 11.1188 96.0573 10.164C96.0573 9.20911 95.3322 8.43506 94.438 8.43506C93.543 8.43506 92.8179 9.20911 92.8179 10.164C92.8179 11.1188 93.543 11.8929 94.438 11.8929Z" fill="url(#paint0_linear_1573_562)"/>
<path opacity="0.945799" d="M80.3241 18.2974C77.9656 18.2974 75.7037 19.2975 74.036 21.0776C72.3683 22.8577 71.4314 25.2721 71.4314 27.7895C71.4314 30.307 72.3682 32.7213 74.036 34.5015C75.7037 36.2816 77.9656 37.2818 80.3241 37.2818H97.9028C98.4588 37.2818 98.9924 37.5176 99.3855 37.9373C99.7785 38.357 99.9994 38.9263 99.9994 39.5199C99.9994 40.1134 99.7785 40.6826 99.3855 41.1023C98.9924 41.522 98.4588 41.7578 97.9028 41.7579L74.8203 41.7576C73.9121 41.7577 73.0411 42.1399 72.399 42.8201C71.7568 43.5003 71.396 44.4228 71.396 45.3848C71.396 46.3467 71.7568 47.2693 72.399 47.9495C73.0411 48.6297 73.9121 49.0119 74.8203 49.0119H97.9028C100.262 49.0119 102.524 48.0118 104.191 46.2317C105.859 44.4516 106.796 42.0373 106.796 39.5199C106.796 37.0024 105.859 34.5879 104.191 32.8078C102.524 31.0276 100.262 30.0276 97.9028 30.0275H80.3241C79.768 30.0275 79.2347 29.7917 78.8416 29.372C78.4484 28.9523 78.2275 28.383 78.2275 27.7895C78.2275 27.196 78.4484 26.6267 78.8416 26.207C79.2347 25.7872 79.768 25.5515 80.3241 25.5515H96.3051H98.2403H99.3916H101.382H103.372C104.28 25.5515 105.151 25.1693 105.793 24.4892C106.435 23.809 106.796 22.8864 106.796 21.9245C106.796 21.4481 106.707 20.9765 106.535 20.5364C106.363 20.0964 106.111 19.6965 105.793 19.3597C105.474 19.0229 105.098 18.7557 104.682 18.5735C104.267 18.3912 103.821 18.2974 103.372 18.2974H101.382H99.3916H98.2403H96.3051H80.3241Z" fill="#F5F5FF"/>
<path opacity="0.945799" d="M74.8209 47.114C75.7154 47.114 76.4406 46.3399 76.4406 45.3851C76.4406 44.4303 75.7154 43.6562 74.8209 43.6562C73.9264 43.6562 73.2012 44.4303 73.2012 45.3851C73.2012 46.3399 73.9264 47.114 74.8209 47.114Z" fill="url(#paint1_linear_1573_562)"/>
<path d="M80.324 18.2974C79.8505 18.3008 79.3781 18.3446 78.9111 18.4283C78.8295 18.4459 78.7481 18.4649 78.6669 18.485C78.2777 18.563 77.8937 18.6688 77.5177 18.8015C77.4363 18.8325 77.3553 18.8647 77.2748 18.8982C76.895 19.0466 76.5251 19.2224 76.1678 19.4244C76.11 19.4572 76.0527 19.4906 75.9956 19.5247C75.6023 19.759 75.2263 20.0248 74.8709 20.3199C74.8581 20.33 74.8455 20.3401 74.8328 20.3503C73.7762 21.2356 72.9213 22.3648 72.3321 23.6533C71.743 24.9418 71.4349 26.356 71.4312 27.7896C71.4349 29.223 71.7428 30.6367 72.3316 31.9249C72.9204 33.213 73.7748 34.3422 74.8309 35.2275C74.8445 35.2384 74.858 35.2493 74.8717 35.2601C75.2265 35.5545 75.6016 35.8197 75.9939 36.0535C76.0513 36.088 76.109 36.1217 76.1672 36.1547C76.5246 36.3568 76.8946 36.5326 77.2746 36.6809C77.3546 36.7142 77.4349 36.7462 77.5158 36.7769C77.8912 36.9096 78.2744 37.0153 78.6629 37.0934C78.7453 37.1139 78.8279 37.1331 78.9107 37.1511C79.377 37.2346 79.8488 37.2783 80.3217 37.2818C80.3225 37.2818 80.3232 37.2819 80.324 37.282C80.325 37.2819 80.326 37.2818 80.3269 37.2818H89.0068C89.0084 37.2818 89.0091 37.2819 89.0099 37.282C89.4833 37.2785 89.9559 37.2348 90.4231 37.1511C90.5042 37.1335 90.5853 37.1148 90.6663 37.0948C91.0555 37.0166 91.4401 36.9107 91.8169 36.7777C91.898 36.7469 91.9783 36.7148 92.0579 36.6816C92.4386 36.5331 92.8092 36.3569 93.1676 36.1545C93.2247 36.1221 93.2811 36.0891 93.3375 36.0553C93.7321 35.8205 94.1089 35.554 94.4649 35.2581C94.4765 35.2488 94.4888 35.2394 94.5004 35.23C95.5568 34.3447 96.4124 33.2153 97.0016 31.9267C97.5908 30.6381 97.899 29.2237 97.9028 27.7897C97.9028 25.817 97.3267 23.8935 96.2549 22.2865C95.1831 20.6794 93.6687 19.4687 91.922 18.8227L91.9212 18.8223C91.4617 18.6527 90.9899 18.5236 90.5103 18.4364C90.4972 18.4338 90.4841 18.4314 90.471 18.429C89.9899 18.3427 89.5034 18.2988 89.0161 18.2976C89.0146 18.2975 89.0122 18.2974 89.0099 18.2974C89.0091 18.2974 89.0076 18.2975 89.0068 18.2976H80.3325C80.3297 18.2975 80.3268 18.2974 80.324 18.2974ZM80.3238 25.5516H88.9783H89.1134V25.5568C89.6447 25.5935 90.1435 25.8447 90.5073 26.2593C90.8717 26.6741 91.0748 27.2212 91.0748 27.7896C91.0733 28.3573 90.8702 28.9031 90.5057 29.3167C90.142 29.7303 89.6439 29.9808 89.1134 30.0175V30.0277H88.9783H80.324C79.768 30.0277 79.2345 29.7919 78.8413 29.3722C78.4482 28.9525 78.2272 28.3832 78.2272 27.7897C78.2272 27.1962 78.4482 26.6269 78.8413 26.2072C79.2345 25.7876 79.7677 25.5517 80.3238 25.5516Z" fill="#F5F5FF"/>
</g>
<path d="M3.4837 22.7837C4.00902 21.4357 4.89375 20.2282 6.13791 19.161C7.40972 18.0658 9.01329 17.5042 10.9487 17.4761H26.5421C27.3163 17.4761 27.966 17.7569 28.4913 18.3186C29.0442 18.8522 29.3207 19.512 29.3207 20.2984C29.3207 21.0847 29.0442 21.7587 28.4913 22.3204C27.966 22.8539 27.3163 23.1207 26.5421 23.1207H10.7827C10.2575 23.1207 9.80124 23.3454 9.41418 23.7947C9.02712 24.2159 8.72299 24.7214 8.50181 25.3112C8.30827 25.9009 8.21151 26.4625 8.21151 26.9961V34.3678C8.04562 36.0528 7.13323 36.9655 5.47435 37.1059C4.70021 37.1059 4.02284 36.8531 3.44223 36.3477C2.88927 35.8141 2.61279 35.1541 2.61279 34.3678V27.0382H2.65427C2.65427 25.5779 2.93074 24.1598 3.4837 22.7837ZM41.9282 36.6004C39.4952 36.5162 37.6567 35.9405 36.4125 34.8733C35.1683 33.7781 34.2697 32.5565 33.7168 31.2085C33.1638 29.8325 32.8874 28.4424 32.8874 27.0382C32.8874 25.5779 33.1499 24.1738 33.6753 22.8258C34.2282 21.4498 35.1268 20.2282 36.371 19.161C37.6428 18.0658 39.2464 17.5042 41.1817 17.4761H56.9411C57.7152 17.4761 58.365 17.7429 58.8903 18.2764C59.4432 18.7819 59.7197 19.3998 59.7197 20.1299C59.7197 20.8882 59.4432 21.5341 58.8903 22.0676C58.365 22.5731 57.7152 22.8258 56.9411 22.8258H41.4305C40.8223 22.8258 40.2832 23.0364 39.8132 23.4577C39.3708 23.8789 39.039 24.4266 38.8178 25.1006C38.6243 25.7745 38.5275 26.4344 38.5275 27.0804C38.5275 27.7825 38.6243 28.4704 38.8178 29.1444C39.039 29.8184 39.3708 30.366 39.8132 30.7873C40.2832 31.1804 40.8223 31.391 41.4305 31.4191H56.9411C57.7152 31.4191 58.365 31.6719 58.8903 32.1774C59.4432 32.6828 59.7197 33.2866 59.7197 33.9887C59.7197 34.7188 59.4432 35.3366 58.8903 35.8422C58.365 36.3477 57.7152 36.6004 56.9411 36.6004H41.9282ZM59.222 26.954C59.222 27.4876 58.9871 27.9509 58.517 28.3441C58.1023 28.7091 57.5769 28.8917 56.9411 28.8917H43.3798C42.7439 28.8917 42.2047 28.7091 41.7624 28.3441C41.32 27.9509 41.0988 27.4876 41.0988 26.954C41.0988 26.4485 41.32 25.9992 41.7624 25.606C42.2047 25.241 42.7439 25.0584 43.3798 25.0584H56.9411C57.5769 25.0584 58.1161 25.255 58.5585 25.6482C59.0009 26.0132 59.222 26.4485 59.222 26.954Z" fill="#F5F5FF"/>
<path d="M116.745 40.2652C116.578 41.9502 115.667 42.8628 114.007 43.0033C113.234 43.0033 112.556 42.7365 111.976 42.2029C111.423 41.6974 111.146 41.0515 111.146 40.2652V20.2141C111.173 19.4278 111.464 18.7819 112.017 18.2764C112.57 17.7429 113.234 17.4761 114.007 17.4761H131.426C133.859 17.5604 135.697 18.1501 136.942 19.2453C138.186 20.3125 139.084 21.5341 139.637 22.9101C140.191 24.2581 140.466 25.6341 140.466 27.0382C140.466 28.4985 140.191 29.9167 139.637 31.2928C139.112 32.6407 138.213 33.8624 136.942 34.9575C135.697 36.0247 134.107 36.5723 132.172 36.6004H121.721C120.948 36.6004 120.298 36.3196 119.773 35.7579C119.219 35.2243 118.943 34.5644 118.943 33.7781C118.943 32.9918 119.205 32.3318 119.73 31.7982C120.283 31.2366 120.948 30.9557 121.721 30.9557H132.338C132.863 30.9557 133.32 30.7451 133.706 30.324C134.094 29.8746 134.371 29.3691 134.536 28.8075C134.73 28.2177 134.827 27.642 134.827 27.0804C134.827 26.4906 134.73 25.915 134.536 25.3532C134.371 24.7635 134.094 24.2581 133.706 23.8368C133.32 23.3875 132.863 23.1488 132.338 23.1207H117.823C117.104 23.1488 116.745 23.5138 116.745 24.2159V40.2652ZM154.111 36.6004C151.678 36.5162 149.839 35.9405 148.595 34.8733C147.351 33.7781 146.453 32.5565 145.9 31.2085C145.346 29.8325 145.07 28.4424 145.07 27.0382C145.07 25.5779 145.332 24.1738 145.858 22.8258C146.411 21.4498 147.31 20.2282 148.554 19.161C149.826 18.0658 151.429 17.5042 153.364 17.4761H166.801C168.737 17.5042 170.327 18.0658 171.57 19.161C172.842 20.2282 173.741 21.4498 174.266 22.8258C174.819 24.1738 175.096 25.5779 175.096 27.0382C175.096 28.4424 174.819 29.8325 174.266 31.2085C173.714 32.5565 172.815 33.7781 171.57 34.8733C170.327 35.9405 168.488 36.5162 166.055 36.6004H154.111ZM153.199 23.1207C152.674 23.1207 152.217 23.3454 151.83 23.7947C151.443 24.2159 151.152 24.7214 150.959 25.3112C150.793 25.8728 150.71 26.4344 150.71 26.9961C150.71 27.5859 150.793 28.1756 150.959 28.7653C151.152 29.3269 151.443 29.8325 151.83 30.2818C152.217 30.7031 152.674 30.9277 153.199 30.9557H166.967C167.493 30.9277 167.949 30.7031 168.336 30.2818C168.723 29.8325 168.999 29.3269 169.166 28.7653C169.359 28.1756 169.455 27.5859 169.455 26.9961C169.455 26.4344 169.359 25.8728 169.166 25.3112C168.999 24.7214 168.723 24.2159 168.336 23.7947C167.949 23.3454 167.493 23.1207 166.967 23.1207H153.199ZM193.095 16.8442C194.533 16.8442 195.942 17.0127 197.325 17.3497C198.734 17.6867 200.076 18.1922 201.348 18.8661C202.619 19.512 203.739 20.3826 204.707 21.4779C205.702 22.5731 206.241 23.8789 206.324 25.3954V27.1646V34.3678C206.158 36.0528 205.246 36.9655 203.587 37.1059C202.813 37.1059 202.135 36.8531 201.555 36.3477C201.002 35.8141 200.725 35.1541 200.725 34.3678V32.5144V26.7013C200.671 25.8307 200.338 25.1145 199.73 24.5529C199.149 23.9632 198.486 23.4998 197.74 23.1628C197.021 22.8258 196.26 22.5731 195.458 22.4045C194.684 22.2361 193.897 22.1519 193.095 22.1519C192.292 22.1519 191.491 22.2361 190.689 22.4045C189.915 22.5731 189.155 22.8258 188.409 23.1628C187.69 23.4998 187.026 23.9632 186.418 24.5529C185.837 25.1145 185.519 25.8307 185.464 26.7013V32.5144V34.3678C185.325 36.0528 184.427 36.9655 182.768 37.1059C181.994 37.1059 181.317 36.8531 180.736 36.3477C180.183 35.8141 179.906 35.1541 179.906 34.3678V27.1646V25.3954C179.989 23.8789 180.515 22.5731 181.482 21.4779C182.45 20.3826 183.57 19.512 184.842 18.8661C186.114 18.1922 187.44 17.6867 188.823 17.3497C190.233 17.0127 191.657 16.8442 193.095 16.8442ZM234.691 13.8113C234.857 12.1263 235.769 11.2136 237.428 11.0732C238.202 11.0732 238.866 11.3401 239.419 11.8736C239.999 12.3791 240.289 13.0249 240.289 13.8113V33.8624C240.262 34.6487 239.972 35.3086 239.419 35.8422C238.866 36.3477 238.202 36.6004 237.428 36.6004H220.01C217.577 36.5162 215.738 35.9405 214.494 34.8733C213.25 33.7781 212.351 32.5565 211.799 31.2085C211.246 29.8325 210.969 28.4424 210.969 27.0382C210.969 25.5779 211.231 24.1738 211.757 22.8258C212.31 21.4498 213.208 20.2282 214.453 19.161C215.725 18.0658 217.328 17.5042 219.263 17.4761H229.714C230.489 17.4761 231.139 17.7569 231.664 18.3186C232.217 18.8522 232.493 19.512 232.493 20.2984C232.493 21.0847 232.217 21.7587 231.664 22.3204C231.139 22.8539 230.489 23.1207 229.714 23.1207H219.098C218.572 23.1207 218.116 23.3454 217.729 23.7947C217.342 24.2159 217.051 24.7214 216.858 25.3112C216.692 25.8728 216.609 26.4344 216.609 26.9961C216.609 27.5859 216.692 28.1756 216.858 28.7653C217.051 29.3269 217.342 29.8325 217.729 30.2818C218.116 30.7031 218.572 30.9277 219.098 30.9557H233.613C234.332 30.9277 234.691 30.5626 234.691 29.8606V13.8113ZM254.265 36.6004C251.832 36.5162 249.994 35.9405 248.75 34.8733C247.506 33.7781 246.607 32.5565 246.055 31.2085C245.502 29.8325 245.225 28.4424 245.225 27.0382C245.225 25.5779 245.487 24.1738 246.012 22.8258C246.566 21.4498 247.464 20.2282 248.709 19.161C249.98 18.0658 251.584 17.5042 253.519 17.4761H269.278C270.053 17.4761 270.703 17.7429 271.228 18.2764C271.781 18.7819 272.058 19.3998 272.058 20.1299C272.058 20.8881 271.781 21.5341 271.228 22.0676C270.703 22.5731 270.053 22.8258 269.278 22.8258H253.768C253.16 22.8258 252.621 23.0364 252.15 23.4577C251.708 23.8789 251.376 24.4266 251.155 25.1006C250.962 25.7745 250.865 26.4344 250.865 27.0804C250.865 27.7825 250.962 28.4704 251.155 29.1444C251.376 29.8184 251.708 30.366 252.15 30.7872C252.621 31.1804 253.16 31.391 253.768 31.4191H269.278C270.053 31.4191 270.703 31.6719 271.228 32.1774C271.781 32.6828 272.058 33.2866 272.058 33.9887C272.058 34.7188 271.781 35.3366 271.228 35.8422C270.703 36.3477 270.053 36.6004 269.278 36.6004H254.265ZM271.56 26.954C271.56 27.4875 271.325 27.9509 270.854 28.3441C270.439 28.7091 269.914 28.8917 269.278 28.8917H255.717C255.081 28.8917 254.542 28.7091 254.1 28.3441C253.658 27.9509 253.437 27.4875 253.437 26.954C253.437 26.4485 253.658 25.9992 254.1 25.606C254.542 25.241 255.081 25.0584 255.717 25.0584H269.278C269.914 25.0584 270.454 25.255 270.896 25.6481C271.339 26.0132 271.56 26.4485 271.56 26.954ZM277.697 22.7837C278.223 21.4357 279.107 20.2282 280.352 19.161C281.623 18.0658 283.227 17.5042 285.163 17.4761H300.756C301.53 17.4761 302.18 17.7569 302.705 18.3186C303.258 18.8522 303.534 19.512 303.534 20.2984C303.534 21.0847 303.258 21.7587 302.705 22.3204C302.18 22.8539 301.53 23.1207 300.756 23.1207H284.996C284.471 23.1207 284.015 23.3454 283.628 23.7947C283.24 24.2159 282.937 24.7214 282.715 25.3112C282.522 25.9009 282.426 26.4625 282.426 26.9961V34.3678C282.259 36.0528 281.347 36.9655 279.688 37.1059C278.914 37.1059 278.236 36.8531 277.656 36.3477C277.103 35.8141 276.827 35.1541 276.827 34.3678V27.0382H276.868C276.868 25.5779 277.145 24.1598 277.697 22.7837Z" fill="#F5F5FF"/>
<path d="M226.516 6.3782C231.599 5.02303 234.653 -0.562117 239.533 2.90805C244.414 6.3782 246.854 7.76614 251.328 7.6274C255.802 7.4886 262.106 3.87969 262.106 3.87969" stroke="#F5F5FF" stroke-width="0.886983"/>
<path d="M226.92 9.7742C232.003 8.41905 235.057 2.83387 239.938 6.30404C244.818 9.7742 247.258 11.1621 251.733 11.0234C256.206 10.8846 262.51 7.27569 262.51 7.27569" stroke="#4D85F3" stroke-width="0.886983"/>
<path d="M226.516 12.6414C231.599 11.2862 234.653 5.70107 239.533 9.17123C244.414 12.6414 246.854 14.0294 251.328 13.8906C255.802 13.7518 262.106 10.1429 262.106 10.1429" stroke="#F5F5FF" stroke-width="0.886983"/>
<defs>
<linearGradient id="paint0_linear_1573_562" x1="92.8179" y1="10.164" x2="96.0573" y2="10.164" gradientUnits="userSpaceOnUse">
<stop stop-color="#4D85F3"/>
<stop offset="1" stop-color="#2D4D8D"/>
</linearGradient>
<linearGradient id="paint1_linear_1573_562" x1="73.2012" y1="45.3851" x2="76.4406" y2="45.3851" gradientUnits="userSpaceOnUse">
<stop stop-color="#4D85F3"/>
<stop offset="1" stop-color="#2D4D8D"/>
</linearGradient>
</defs>
</svg>
