<svg width="307" height="320" viewBox="0 0 307 320" fill="none" xmlns="http://www.w3.org/2000/svg">
<g clip-path="url(#clip0_1567_5152)">
<path opacity="0.945799" d="M84.2643 0.0595703C71.9108 0.0597305 60.0633 5.2169 51.3281 14.3966C42.5929 23.5763 37.6854 36.0266 37.6852 49.0086C37.6851 61.9909 42.5924 74.4414 51.3277 83.6214C60.063 92.8013 71.9106 97.9587 84.2643 97.9588H176.342C179.254 97.959 182.048 99.1751 184.107 101.339C186.166 103.504 187.323 106.439 187.323 109.5C187.323 112.561 186.166 115.496 184.107 117.661C182.048 119.825 179.254 121.041 176.342 121.041L55.4359 121.04C50.6789 121.04 46.1168 123.011 42.7532 126.519C39.3896 130.027 37.5 134.784 37.5 139.745C37.5 144.705 39.3896 149.463 42.7532 152.971C46.1168 156.478 50.6789 158.449 55.4359 158.449H176.342C188.695 158.449 200.543 153.292 209.278 144.112C218.013 134.932 222.921 122.482 222.921 109.5C222.921 96.5178 218.014 84.0673 209.278 74.8873C200.543 65.7074 188.696 60.5501 176.342 60.5499H84.2643C81.3518 60.5497 78.5585 59.3336 76.4991 57.1692C74.4397 55.0048 73.2828 52.0694 73.2829 49.0086C73.2828 45.9479 74.4397 43.0124 76.4991 40.848C78.5585 38.6836 81.3518 37.4675 84.2643 37.4674H167.972H178.106H184.14H194.562H204.984C209.741 37.4675 214.303 35.4971 217.667 31.9895C221.031 28.482 222.921 23.7247 222.921 18.764C222.921 16.3077 222.457 13.8754 221.556 11.606C220.654 9.33667 219.333 7.27468 217.667 5.5378C216.002 3.80092 214.024 2.42317 211.848 1.48322C209.672 0.54326 207.339 0.0595018 204.984 0.0595703H194.562H184.14H178.106H167.972H84.2643Z" fill="url(#paint0_linear_1567_5152)"/>
<path opacity="0.945799" d="M204.768 27.5217C209.454 27.5217 213.252 23.5301 213.252 18.6061C213.252 13.6821 209.454 9.69043 204.768 9.69043C200.083 9.69043 196.284 13.6821 196.284 18.6061C196.284 23.5301 200.083 27.5217 204.768 27.5217Z" fill="#F5F5FF"/>
<path opacity="0.945799" d="M130.843 60.5508C118.49 60.5509 106.642 65.7082 97.9071 74.8879C89.1719 84.0677 84.2644 96.518 84.2643 109.5C84.2642 122.482 89.1715 134.933 97.9068 144.113C106.642 153.293 118.49 158.45 130.843 158.45H222.921C225.833 158.45 228.627 159.667 230.686 161.831C232.746 163.995 233.902 166.931 233.902 169.992C233.902 173.052 232.746 175.988 230.686 178.152C228.627 180.317 225.833 181.533 222.921 181.533L102.015 181.532C97.258 181.532 92.6959 183.503 89.3323 187.01C85.9687 190.518 84.0791 195.275 84.0791 200.236C84.0791 205.197 85.9687 209.954 89.3323 213.462C92.696 216.97 97.258 218.94 102.015 218.941H222.921C235.274 218.94 247.122 213.783 255.857 204.604C264.592 195.424 269.5 182.974 269.5 169.992C269.5 157.009 264.593 144.559 255.858 135.379C247.122 126.199 235.275 121.042 222.921 121.041H130.843C127.931 121.041 125.138 119.825 123.078 117.661C121.019 115.496 119.862 112.561 119.862 109.5C119.862 106.439 121.019 103.504 123.078 101.339C125.138 99.175 127.931 97.959 130.843 97.9588H214.551H224.686H230.719H241.141H251.563C256.32 97.9589 260.882 95.9885 264.246 92.4809C267.61 88.9733 269.5 84.216 269.5 79.2553C269.5 76.799 269.036 74.3667 268.135 72.0973C267.233 69.8279 265.912 67.7659 264.246 66.029C262.581 64.2922 260.603 62.9144 258.427 61.9744C256.251 61.0345 253.919 60.5507 251.563 60.5508H241.141H230.719H224.686H214.551H130.843Z" fill="url(#paint1_linear_1567_5152)"/>
<path opacity="0.945799" d="M102.019 209.152C106.705 209.152 110.503 205.16 110.503 200.236C110.503 195.312 106.705 191.32 102.019 191.32C97.3336 191.32 93.5352 195.312 93.5352 200.236C93.5352 205.16 97.3336 209.152 102.019 209.152Z" fill="#F5F5FF"/>
<path d="M130.845 60.5498C128.365 60.5674 125.89 60.7931 123.444 61.2248C123.017 61.316 122.59 61.4135 122.165 61.5173C120.126 61.9199 118.115 62.4652 116.146 63.1495C115.719 63.3092 115.295 63.4755 114.873 63.6482C112.884 64.4132 110.947 65.3198 109.075 66.3619C108.772 66.5308 108.472 66.7032 108.173 66.8791C106.113 68.0872 104.144 69.4579 102.282 70.9796C102.215 71.0316 102.148 71.0838 102.082 71.1363C96.5481 75.7016 92.07 81.5251 88.9841 88.1695C85.8983 94.8139 84.2847 102.107 84.2646 109.5C84.2847 116.891 85.8973 124.182 88.9814 130.825C92.0655 137.468 96.541 143.29 102.072 147.856C102.143 147.912 102.215 147.968 102.286 148.024C104.144 149.542 106.109 150.91 108.164 152.115C108.465 152.293 108.767 152.467 109.072 152.637C110.944 153.679 112.882 154.586 114.872 155.351C115.291 155.522 115.712 155.687 116.136 155.846C118.102 156.53 120.109 157.075 122.144 157.478C122.576 157.584 123.008 157.683 123.442 157.775C125.885 158.206 128.356 158.431 130.833 158.449C130.837 158.45 130.841 158.45 130.845 158.45C130.85 158.45 130.855 158.45 130.86 158.449H176.327C176.332 158.45 176.337 158.45 176.342 158.45C178.822 158.433 181.297 158.207 183.743 157.775C184.168 157.685 184.592 157.588 185.015 157.485C187.057 157.082 189.071 156.535 191.043 155.849C191.467 155.691 191.888 155.526 192.307 155.354C194.301 154.588 196.242 153.68 198.117 152.636C198.416 152.469 198.713 152.298 199.008 152.125C201.073 150.914 203.048 149.539 204.914 148.014C204.976 147.965 205.038 147.917 205.099 147.869C210.635 143.303 215.114 137.479 218.201 130.834C221.288 124.189 222.902 116.895 222.922 109.5C222.92 99.3274 219.902 89.408 214.288 81.1208C208.674 72.8336 200.742 66.5904 191.596 63.2591L191.594 63.2579L191.589 63.2568C189.182 62.3821 186.71 61.7164 184.199 61.2664C184.13 61.2536 184.061 61.2409 183.992 61.2283C181.475 60.7836 178.927 60.5571 176.375 60.551C176.364 60.5506 176.352 60.5503 176.341 60.5499C176.336 60.5503 176.331 60.5506 176.326 60.551H130.89C130.875 60.5506 130.86 60.5502 130.845 60.5498ZM130.844 97.9587H176.173H176.882V97.9852C179.666 98.1746 182.277 99.47 184.185 101.609C186.093 103.747 187.155 106.569 187.156 109.5C187.149 112.427 186.084 115.242 184.177 117.375C182.269 119.508 179.662 120.799 176.882 120.988V121.041H176.173H130.845C127.932 121.041 125.138 119.825 123.079 117.661C121.019 115.496 119.862 112.561 119.862 109.5C119.862 106.439 121.019 103.504 123.079 101.34C125.138 99.1752 127.931 97.959 130.844 97.9587Z" fill="url(#paint2_linear_1567_5152)"/>
</g>
<path d="M191.188 283.847C188.438 283.753 186.359 283.112 184.953 281.925C183.547 280.706 182.531 279.347 181.906 277.847C181.281 276.315 180.969 274.769 180.969 273.206C180.969 271.581 181.266 270.019 181.859 268.519C182.484 266.987 183.5 265.628 184.906 264.44C186.344 263.222 188.156 262.597 190.344 262.565H208.156C209.031 262.565 209.766 262.878 210.359 263.503C210.984 264.097 211.297 264.831 211.297 265.706C211.297 266.581 210.984 267.331 210.359 267.956C209.766 268.55 209.031 268.847 208.156 268.847H190.156C189.562 268.847 189.047 269.097 188.609 269.597C188.172 270.065 187.844 270.628 187.625 271.284C187.438 271.909 187.344 272.534 187.344 273.159C187.344 273.815 187.438 274.472 187.625 275.128C187.844 275.753 188.172 276.315 188.609 276.815C189.047 277.284 189.562 277.534 190.156 277.565H208.156C209.031 277.565 209.766 277.878 210.359 278.503C210.984 279.097 211.297 279.831 211.297 280.706C211.297 281.581 210.984 282.315 210.359 282.909C209.766 283.534 209.031 283.847 208.156 283.847H191.188ZM231.172 284.644C229.547 284.644 227.938 284.456 226.344 284.081C224.781 283.706 223.281 283.159 221.844 282.44C220.406 281.69 219.141 280.706 218.047 279.487C216.953 278.269 216.359 276.815 216.266 275.128V273.159V265.144C216.266 264.269 216.578 263.55 217.203 262.987C217.859 262.394 218.625 262.097 219.5 262.097C221.375 262.253 222.391 263.269 222.547 265.144V267.206V273.675C222.609 274.644 222.969 275.456 223.625 276.112C224.312 276.737 225.062 277.237 225.875 277.612C226.719 277.987 227.578 278.269 228.453 278.456C229.359 278.644 230.266 278.737 231.172 278.737C232.078 278.737 232.969 278.644 233.844 278.456C234.75 278.269 235.609 277.987 236.422 277.612C237.266 277.237 238.016 276.737 238.672 276.112C239.359 275.456 239.734 274.644 239.797 273.675V267.206V265.144C239.797 264.269 240.109 263.55 240.734 262.987C241.391 262.394 242.156 262.097 243.031 262.097C244.906 262.253 245.938 263.269 246.125 265.144V273.159V275.128C246.031 276.815 245.422 278.269 244.297 279.487C243.203 280.706 241.938 281.69 240.5 282.44C239.062 283.159 237.547 283.706 235.953 284.081C234.391 284.456 232.797 284.644 231.172 284.644ZM261.734 283.847C258.984 283.753 256.906 283.112 255.5 281.925C254.094 280.706 253.078 279.347 252.453 277.847C251.828 276.315 251.516 274.769 251.516 273.206C251.516 271.581 251.812 270.019 252.406 268.519C253.031 266.987 254.047 265.628 255.453 264.44C256.891 263.222 258.703 262.597 260.891 262.565H278.703C279.578 262.565 280.312 262.862 280.906 263.456C281.531 264.019 281.844 264.706 281.844 265.519C281.844 266.362 281.531 267.081 280.906 267.675C280.312 268.237 279.578 268.519 278.703 268.519H261.172C260.484 268.519 259.875 268.753 259.344 269.222C258.844 269.69 258.469 270.3 258.219 271.05C258 271.8 257.891 272.534 257.891 273.253C257.891 274.034 258 274.8 258.219 275.55C258.469 276.3 258.844 276.909 259.344 277.378C259.875 277.815 260.484 278.05 261.172 278.081H278.703C279.578 278.081 280.312 278.362 280.906 278.925C281.531 279.487 281.844 280.159 281.844 280.94C281.844 281.753 281.531 282.44 280.906 283.003C280.312 283.565 279.578 283.847 278.703 283.847H261.734ZM281.281 273.112C281.281 273.706 281.016 274.222 280.484 274.659C280.016 275.065 279.422 275.269 278.703 275.269H263.375C262.656 275.269 262.047 275.065 261.547 274.659C261.047 274.222 260.797 273.706 260.797 273.112C260.797 272.55 261.047 272.05 261.547 271.612C262.047 271.206 262.656 271.003 263.375 271.003H278.703C279.422 271.003 280.031 271.222 280.531 271.659C281.031 272.065 281.281 272.55 281.281 273.112Z" fill="black"/>
<path d="M31.8828 287.925C31.6953 289.8 30.6641 290.815 28.7891 290.972C27.9141 290.972 27.1484 290.675 26.4922 290.081C25.8672 289.519 25.5547 288.8 25.5547 287.925V265.612C25.5859 264.737 25.9141 264.019 26.5391 263.456C27.1641 262.862 27.9141 262.565 28.7891 262.565H48.4766C51.2266 262.659 53.3047 263.315 54.7109 264.534C56.1172 265.722 57.1328 267.081 57.7578 268.612C58.3828 270.112 58.6953 271.644 58.6953 273.206C58.6953 274.831 58.3828 276.409 57.7578 277.94C57.1641 279.44 56.1484 280.8 54.7109 282.019C53.3047 283.206 51.5078 283.815 49.3203 283.847H37.5078C36.6328 283.847 35.8984 283.534 35.3047 282.909C34.6797 282.315 34.3672 281.581 34.3672 280.706C34.3672 279.831 34.6641 279.097 35.2578 278.503C35.8828 277.878 36.6328 277.565 37.5078 277.565H49.5078C50.1016 277.565 50.6172 277.331 51.0547 276.862C51.4922 276.362 51.8047 275.8 51.9922 275.175C52.2109 274.519 52.3203 273.878 52.3203 273.253C52.3203 272.597 52.2109 271.956 51.9922 271.331C51.8047 270.675 51.4922 270.112 51.0547 269.644C50.6172 269.144 50.1016 268.878 49.5078 268.847H33.1016C32.2891 268.878 31.8828 269.284 31.8828 270.065V287.925ZM65.3984 268.472C65.9922 266.972 66.9922 265.628 68.3984 264.44C69.8359 263.222 71.6484 262.597 73.8359 262.565H91.4609C92.3359 262.565 93.0703 262.878 93.6641 263.503C94.2891 264.097 94.6016 264.831 94.6016 265.706C94.6016 266.581 94.2891 267.331 93.6641 267.956C93.0703 268.55 92.3359 268.847 91.4609 268.847H73.6484C73.0547 268.847 72.5391 269.097 72.1016 269.597C71.6641 270.065 71.3203 270.628 71.0703 271.284C70.8516 271.94 70.7422 272.565 70.7422 273.159V281.362C70.5547 283.237 69.5234 284.253 67.6484 284.409C66.7734 284.409 66.0078 284.128 65.3516 283.565C64.7266 282.972 64.4141 282.237 64.4141 281.362V273.206H64.4609C64.4609 271.581 64.7734 270.003 65.3984 268.472ZM108.852 283.847C106.102 283.753 104.023 283.112 102.617 281.925C101.211 280.706 100.195 279.347 99.5703 277.847C98.9453 276.315 98.6328 274.769 98.6328 273.206C98.6328 271.581 98.9297 270.019 99.5234 268.519C100.148 266.987 101.164 265.628 102.57 264.44C104.008 263.222 105.82 262.597 108.008 262.565H125.82C126.695 262.565 127.43 262.862 128.023 263.456C128.648 264.019 128.961 264.706 128.961 265.519C128.961 266.362 128.648 267.081 128.023 267.675C127.43 268.237 126.695 268.519 125.82 268.519H108.289C107.602 268.519 106.992 268.753 106.461 269.222C105.961 269.69 105.586 270.3 105.336 271.05C105.117 271.8 105.008 272.534 105.008 273.253C105.008 274.034 105.117 274.8 105.336 275.55C105.586 276.3 105.961 276.909 106.461 277.378C106.992 277.815 107.602 278.05 108.289 278.081H125.82C126.695 278.081 127.43 278.362 128.023 278.925C128.648 279.487 128.961 280.159 128.961 280.94C128.961 281.753 128.648 282.44 128.023 283.003C127.43 283.565 126.695 283.847 125.82 283.847H108.852ZM128.398 273.112C128.398 273.706 128.133 274.222 127.602 274.659C127.133 275.065 126.539 275.269 125.82 275.269H110.492C109.773 275.269 109.164 275.065 108.664 274.659C108.164 274.222 107.914 273.706 107.914 273.112C107.914 272.55 108.164 272.05 108.664 271.612C109.164 271.206 109.773 271.003 110.492 271.003H125.82C126.539 271.003 127.148 271.222 127.648 271.659C128.148 272.065 128.398 272.55 128.398 273.112Z" fill="black"/>
<path d="M204.582 249.789C210.274 247.566 213.693 238.403 219.158 244.096C224.623 249.789 227.355 252.066 232.365 251.838C237.374 251.61 244.433 245.69 244.433 245.69" stroke="#FF7686"/>
<path d="M204.582 249.789C210.274 247.566 213.693 238.403 219.158 244.096C224.623 249.789 227.355 252.066 232.365 251.838C237.374 251.61 244.433 245.69 244.433 245.69" stroke="#4D85F3"/>
<path d="M204.582 252.977C210.274 250.754 213.693 241.591 219.158 247.284C224.623 252.977 227.355 255.254 232.365 255.026C237.374 254.798 244.433 248.878 244.433 248.878" stroke="#FF7686"/>
<path d="M204.582 252.977C210.274 250.754 213.693 241.591 219.158 247.284C224.623 252.977 227.355 255.254 232.365 255.026C237.374 254.798 244.433 248.878 244.433 248.878" stroke="#4D85F3"/>
<path d="M204.582 256.165C210.274 253.941 213.693 244.779 219.158 250.472C224.623 256.165 227.355 258.442 232.365 258.214C237.374 257.986 244.433 252.066 244.433 252.066" stroke="#FF7686"/>
<path d="M204.582 256.165C210.274 253.941 213.693 244.779 219.158 250.472C224.623 256.165 227.355 258.442 232.365 258.214C237.374 257.986 244.433 252.066 244.433 252.066" stroke="#4D85F3"/>
<path fill-rule="evenodd" clip-rule="evenodd" d="M162.746 258.601C163.397 257.982 163.723 257.217 163.723 256.306C163.723 255.394 163.397 254.629 162.746 254.011C162.128 253.36 161.363 253.034 160.451 253.034H142.092C141.896 253.034 141.701 253.05 141.506 253.083H141.213C138.934 253.148 137.062 253.669 135.598 254.645C134.133 255.622 133.075 256.745 132.424 258.015C131.773 259.252 131.447 260.505 131.447 261.774C131.447 263.076 131.757 264.362 132.375 265.632C133.026 266.869 134.084 267.976 135.549 268.952C137.046 269.929 138.934 270.449 141.213 270.515H155.08C155.699 270.547 156.203 270.694 156.594 270.954C157.017 271.214 157.326 271.556 157.521 271.979C157.717 272.37 157.814 272.679 157.814 272.907C157.814 273.265 157.717 273.623 157.521 273.981C157.326 274.307 157.017 274.6 156.594 274.86C156.203 275.121 155.699 275.235 155.08 275.202H135.451C134.54 275.202 133.775 275.528 133.156 276.179C132.505 276.797 132.18 277.562 132.18 278.474C132.18 279.385 132.489 280.166 133.107 280.817C133.758 281.436 134.54 281.745 135.451 281.745H153.908C154.104 281.745 154.299 281.729 154.494 281.696H154.787C157.066 281.696 158.938 281.208 160.402 280.231C161.867 279.222 162.925 278.083 163.576 276.813C164.227 275.511 164.553 274.209 164.553 272.907C164.553 271.573 164.227 270.27 163.576 269.001C162.958 267.699 161.9 266.559 160.402 265.583C158.938 264.574 157.066 264.037 154.787 263.972H140.92C140.301 263.939 139.781 263.809 139.357 263.581C138.967 263.321 138.674 263.044 138.479 262.751C138.283 262.425 138.186 262.1 138.186 261.774C138.186 261.449 138.283 261.14 138.479 260.847C138.674 260.521 138.967 260.244 139.357 260.017C139.781 259.756 140.301 259.61 140.92 259.577H160.451C161.363 259.577 162.128 259.252 162.746 258.601ZM160.5 257.94C161.329 257.94 162 257.269 162 256.44C162 255.612 161.329 254.94 160.5 254.94C159.672 254.94 159 255.612 159 256.44C159 257.269 159.672 257.94 160.5 257.94Z" fill="#2D4D8D"/>
<path fill-rule="evenodd" clip-rule="evenodd" d="M173.246 269.601C173.897 268.982 174.223 268.217 174.223 267.306C174.223 266.394 173.897 265.629 173.246 265.011C172.628 264.36 171.863 264.034 170.951 264.034H152.592C152.396 264.034 152.201 264.05 152.006 264.083H151.713C149.434 264.148 147.562 264.669 146.098 265.645C144.633 266.622 143.575 267.745 142.924 269.015C142.273 270.252 141.947 271.505 141.947 272.774C141.947 274.076 142.257 275.362 142.875 276.632C143.526 277.869 144.584 278.976 146.049 279.952C147.546 280.929 149.434 281.449 151.713 281.515H165.58C166.199 281.547 166.703 281.694 167.094 281.954C167.517 282.214 167.826 282.556 168.021 282.979C168.217 283.37 168.314 283.679 168.314 283.907C168.314 284.265 168.217 284.623 168.021 284.981C167.826 285.307 167.517 285.6 167.094 285.86C166.703 286.121 166.199 286.235 165.58 286.202H145.951C145.04 286.202 144.275 286.528 143.656 287.179C143.005 287.797 142.68 288.562 142.68 289.474C142.68 290.385 142.989 291.166 143.607 291.817C144.258 292.436 145.04 292.745 145.951 292.745H164.408C164.604 292.745 164.799 292.729 164.994 292.696H165.287C167.566 292.696 169.438 292.208 170.902 291.231C172.367 290.222 173.425 289.083 174.076 287.813C174.727 286.511 175.053 285.209 175.053 283.907C175.053 282.573 174.727 281.27 174.076 280.001C173.458 278.699 172.4 277.559 170.902 276.583C169.438 275.574 167.566 275.037 165.287 274.972H151.42C150.801 274.939 150.281 274.809 149.857 274.581C149.467 274.321 149.174 274.044 148.979 273.751C148.783 273.425 148.686 273.1 148.686 272.774C148.686 272.449 148.783 272.14 148.979 271.847C149.174 271.521 149.467 271.244 149.857 271.017C150.281 270.756 150.801 270.61 151.42 270.577H170.951C171.863 270.577 172.628 270.252 173.246 269.601ZM145.5 290.94C146.329 290.94 147 290.269 147 289.44C147 288.612 146.329 287.94 145.5 287.94C144.672 287.94 144 288.612 144 289.44C144 290.269 144.672 290.94 145.5 290.94Z" fill="#2D4D8D"/>
<path d="M169.378 316.116C169.169 316.108 168.992 316.035 168.845 315.896C168.699 315.749 168.622 315.572 168.614 315.364V313.802H167.284C167.068 313.802 166.883 313.729 166.729 313.583C166.582 313.428 166.509 313.243 166.509 313.027C166.509 312.811 166.586 312.63 166.74 312.484C166.887 312.329 167.068 312.252 167.284 312.252H168.614C168.637 311.797 168.714 311.358 168.845 310.934C169 310.448 169.25 310.039 169.597 309.708C169.952 309.368 170.399 309.183 170.939 309.152H174.155C174.363 309.16 174.536 309.237 174.675 309.384C174.822 309.523 174.899 309.696 174.907 309.904C174.907 310.12 174.833 310.305 174.687 310.459C174.548 310.614 174.371 310.695 174.155 310.702H171.332C171.039 310.718 170.796 310.83 170.604 311.038C170.411 311.246 170.291 311.481 170.245 311.743C170.206 311.913 170.183 312.083 170.176 312.252H174.108C174.324 312.252 174.506 312.329 174.652 312.484C174.806 312.63 174.883 312.811 174.883 313.027C174.883 313.243 174.81 313.428 174.664 313.583C174.509 313.729 174.324 313.802 174.108 313.802H170.176V315.364C170.168 315.58 170.087 315.761 169.933 315.907C169.779 316.046 169.593 316.116 169.378 316.116ZM178.504 315.977C177.825 315.954 177.312 315.796 176.965 315.503C176.618 315.202 176.368 314.866 176.214 314.496C176.059 314.118 175.982 313.737 175.982 313.351C175.982 312.95 176.056 312.565 176.202 312.194C176.356 311.817 176.607 311.481 176.954 311.188C177.309 310.887 177.756 310.733 178.296 310.725H182.043C182.583 310.733 183.026 310.887 183.374 311.188C183.728 311.481 183.979 311.817 184.125 312.194C184.28 312.565 184.357 312.95 184.357 313.351C184.357 313.737 184.28 314.118 184.125 314.496C183.971 314.866 183.721 315.202 183.374 315.503C183.026 315.796 182.514 315.954 181.835 315.977H178.504ZM178.249 312.275C178.103 312.275 177.976 312.337 177.868 312.461C177.76 312.576 177.679 312.715 177.625 312.877C177.578 313.031 177.555 313.185 177.555 313.34C177.555 313.502 177.578 313.663 177.625 313.825C177.679 313.98 177.76 314.118 177.868 314.242C177.976 314.357 178.103 314.419 178.249 314.427H182.09C182.236 314.419 182.363 314.357 182.471 314.242C182.579 314.118 182.656 313.98 182.703 313.825C182.757 313.663 182.784 313.502 182.784 313.34C182.784 313.185 182.757 313.031 182.703 312.877C182.656 312.715 182.579 312.576 182.471 312.461C182.363 312.337 182.236 312.275 182.09 312.275H178.249ZM185.93 312.183C186.076 311.813 186.323 311.481 186.67 311.188C187.025 310.887 187.472 310.733 188.012 310.725H192.361C192.577 310.725 192.758 310.803 192.905 310.957C193.059 311.103 193.136 311.285 193.136 311.5C193.136 311.716 193.059 311.901 192.905 312.056C192.758 312.202 192.577 312.275 192.361 312.275H187.966C187.819 312.275 187.692 312.337 187.584 312.461C187.476 312.576 187.391 312.715 187.329 312.877C187.275 313.039 187.248 313.193 187.248 313.34V315.364C187.202 315.826 186.948 316.077 186.485 316.116C186.269 316.116 186.08 316.046 185.918 315.907C185.764 315.761 185.687 315.58 185.687 315.364V313.351H185.698C185.698 312.95 185.776 312.561 185.93 312.183ZM214.39 315.977C213.712 315.954 213.199 315.796 212.852 315.503C212.505 315.202 212.254 314.866 212.1 314.496C211.946 314.118 211.869 313.737 211.869 313.351C211.869 312.95 211.942 312.565 212.088 312.194C212.243 311.817 212.493 311.481 212.84 311.188C213.195 310.887 213.642 310.733 214.182 310.725H218.577C218.793 310.725 218.975 310.799 219.121 310.945C219.275 311.084 219.352 311.254 219.352 311.454C219.352 311.662 219.275 311.84 219.121 311.986C218.975 312.125 218.793 312.194 218.577 312.194H214.251C214.082 312.194 213.931 312.252 213.8 312.368C213.677 312.484 213.584 312.634 213.523 312.819C213.469 313.004 213.442 313.185 213.442 313.363C213.442 313.556 213.469 313.744 213.523 313.93C213.584 314.115 213.677 314.265 213.8 314.381C213.931 314.489 214.082 314.546 214.251 314.554H218.577C218.793 314.554 218.975 314.624 219.121 314.762C219.275 314.901 219.352 315.067 219.352 315.26C219.352 315.46 219.275 315.63 219.121 315.769C218.975 315.907 218.793 315.977 218.577 315.977H214.39ZM219.214 313.328C219.214 313.475 219.148 313.602 219.017 313.71C218.901 313.81 218.755 313.86 218.577 313.86H214.795C214.618 313.86 214.467 313.81 214.344 313.71C214.221 313.602 214.159 313.475 214.159 313.328C214.159 313.189 214.221 313.066 214.344 312.958C214.467 312.858 214.618 312.808 214.795 312.808H218.577C218.755 312.808 218.905 312.862 219.029 312.969C219.152 313.07 219.214 313.189 219.214 313.328ZM228.028 311.396C228.028 311.589 227.951 311.751 227.796 311.882C227.65 312.006 227.469 312.067 227.253 312.067H222.36C222.26 312.067 222.179 312.087 222.117 312.125C222.055 312.164 222.009 312.206 221.978 312.252C221.947 312.291 221.932 312.326 221.932 312.356C221.932 312.395 221.947 312.437 221.978 312.484C222.009 312.522 222.055 312.561 222.117 312.599C222.179 312.63 222.26 312.649 222.36 312.657H226.142C226.628 312.665 227.029 312.761 227.345 312.946C227.661 313.124 227.885 313.336 228.016 313.583C228.155 313.822 228.224 314.064 228.224 314.311C228.224 314.55 228.155 314.793 228.016 315.04C227.877 315.279 227.65 315.491 227.334 315.676C227.025 315.853 226.628 315.942 226.142 315.942C226.057 315.95 225.996 315.954 225.957 315.954H221.469C221.253 315.954 221.068 315.892 220.914 315.769C220.767 315.638 220.694 315.479 220.694 315.294C220.694 315.102 220.771 314.94 220.926 314.809C221.072 314.685 221.253 314.624 221.469 314.624H226.235C226.35 314.631 226.443 314.616 226.512 314.577C226.59 314.539 226.647 314.496 226.686 314.45C226.724 314.404 226.744 314.357 226.744 314.311C226.744 314.288 226.724 314.25 226.686 314.196C226.647 314.134 226.59 314.088 226.512 314.057C226.443 314.018 226.35 313.995 226.235 313.987H222.441C221.994 313.98 221.623 313.887 221.33 313.71C221.037 313.525 220.829 313.313 220.706 313.074C220.582 312.835 220.521 312.595 220.521 312.356C220.521 312.117 220.582 311.882 220.706 311.651C220.837 311.412 221.045 311.207 221.33 311.038C221.623 310.86 221.994 310.764 222.441 310.749C222.518 310.741 222.576 310.737 222.614 310.737H227.253C227.469 310.737 227.65 310.803 227.796 310.934C227.951 311.057 228.028 311.211 228.028 311.396ZM231.07 316.983C231.023 317.446 230.769 317.696 230.306 317.735C230.09 317.735 229.902 317.662 229.74 317.515C229.585 317.376 229.508 317.199 229.508 316.983V311.477C229.516 311.261 229.597 311.084 229.751 310.945C229.905 310.799 230.09 310.725 230.306 310.725H235.164C235.843 310.749 236.356 310.911 236.703 311.211C237.05 311.504 237.3 311.84 237.455 312.218C237.609 312.588 237.686 312.966 237.686 313.351C237.686 313.752 237.609 314.142 237.455 314.519C237.308 314.89 237.058 315.225 236.703 315.526C236.356 315.819 235.912 315.969 235.373 315.977H232.458C232.242 315.977 232.061 315.9 231.914 315.746C231.76 315.599 231.683 315.418 231.683 315.202C231.683 314.986 231.756 314.805 231.903 314.658C232.057 314.504 232.242 314.427 232.458 314.427H235.419C235.565 314.427 235.693 314.369 235.801 314.253C235.909 314.13 235.986 313.991 236.032 313.837C236.086 313.675 236.113 313.517 236.113 313.363C236.113 313.201 236.086 313.043 236.032 312.889C235.986 312.727 235.909 312.588 235.801 312.472C235.693 312.349 235.565 312.283 235.419 312.275H231.37C231.17 312.283 231.07 312.383 231.07 312.576V316.983ZM241.492 315.977C240.813 315.954 240.3 315.796 239.953 315.503C239.606 315.202 239.356 314.866 239.201 314.496C239.047 314.118 238.97 313.737 238.97 313.351C238.97 312.95 239.043 312.565 239.19 312.194C239.344 311.817 239.595 311.481 239.942 311.188C240.296 310.887 240.744 310.733 241.283 310.725H245.031C245.571 310.733 246.014 310.887 246.361 311.188C246.716 311.481 246.967 311.817 247.113 312.194C247.267 312.565 247.344 312.95 247.344 313.351C247.344 313.737 247.267 314.118 247.113 314.496C246.959 314.866 246.708 315.202 246.361 315.503C246.014 315.796 245.501 315.954 244.823 315.977H241.492ZM241.237 312.275C241.091 312.275 240.963 312.337 240.855 312.461C240.747 312.576 240.666 312.715 240.612 312.877C240.566 313.031 240.543 313.185 240.543 313.34C240.543 313.502 240.566 313.663 240.612 313.825C240.666 313.98 240.747 314.118 240.855 314.242C240.963 314.357 241.091 314.419 241.237 314.427H245.077C245.224 314.419 245.351 314.357 245.459 314.242C245.567 314.118 245.644 313.98 245.69 313.825C245.744 313.663 245.771 313.502 245.771 313.34C245.771 313.185 245.744 313.031 245.69 312.877C245.644 312.715 245.567 312.576 245.459 312.461C245.351 312.337 245.224 312.275 245.077 312.275H241.237ZM252.364 310.552C252.765 310.552 253.159 310.598 253.544 310.691C253.938 310.783 254.312 310.922 254.666 311.107C255.021 311.285 255.333 311.524 255.603 311.824C255.881 312.125 256.031 312.484 256.054 312.9V313.386V315.364C256.008 315.826 255.754 316.077 255.291 316.116C255.075 316.116 254.886 316.046 254.724 315.907C254.57 315.761 254.493 315.58 254.493 315.364V314.855V313.259C254.477 313.02 254.385 312.823 254.215 312.669C254.053 312.507 253.868 312.38 253.66 312.287C253.459 312.194 253.247 312.125 253.024 312.079C252.808 312.033 252.588 312.009 252.364 312.009C252.141 312.009 251.917 312.033 251.694 312.079C251.478 312.125 251.266 312.194 251.057 312.287C250.857 312.38 250.672 312.507 250.502 312.669C250.34 312.823 250.252 313.02 250.236 313.259V314.855V315.364C250.198 315.826 249.947 316.077 249.484 316.116C249.268 316.116 249.079 316.046 248.918 315.907C248.763 315.761 248.686 315.58 248.686 315.364V313.386V312.9C248.709 312.484 248.856 312.125 249.126 311.824C249.396 311.524 249.708 311.285 250.063 311.107C250.417 310.922 250.787 310.783 251.173 310.691C251.566 310.598 251.963 310.552 252.364 310.552ZM263.966 309.719C264.012 309.256 264.267 309.006 264.729 308.967C264.945 308.967 265.13 309.041 265.285 309.187C265.447 309.326 265.528 309.503 265.528 309.719V315.225C265.52 315.441 265.439 315.622 265.285 315.769C265.13 315.907 264.945 315.977 264.729 315.977H259.871C259.193 315.954 258.68 315.796 258.333 315.503C257.986 315.202 257.735 314.866 257.581 314.496C257.427 314.118 257.35 313.737 257.35 313.351C257.35 312.95 257.423 312.565 257.57 312.194C257.724 311.817 257.974 311.481 258.321 311.188C258.676 310.887 259.123 310.733 259.663 310.725H262.578C262.794 310.725 262.975 310.803 263.122 310.957C263.276 311.103 263.353 311.285 263.353 311.5C263.353 311.716 263.276 311.901 263.122 312.056C262.975 312.202 262.794 312.275 262.578 312.275H259.617C259.47 312.275 259.343 312.337 259.235 312.461C259.127 312.576 259.046 312.715 258.992 312.877C258.946 313.031 258.923 313.185 258.923 313.34C258.923 313.502 258.946 313.663 258.992 313.825C259.046 313.98 259.127 314.118 259.235 314.242C259.343 314.357 259.47 314.419 259.617 314.427H263.665C263.866 314.419 263.966 314.319 263.966 314.126V309.719ZM269.426 315.977C268.747 315.954 268.234 315.796 267.887 315.503C267.54 315.202 267.29 314.866 267.135 314.496C266.981 314.118 266.904 313.737 266.904 313.351C266.904 312.95 266.977 312.565 267.124 312.194C267.278 311.817 267.529 311.481 267.876 311.188C268.23 310.887 268.678 310.733 269.217 310.725H273.613C273.829 310.725 274.01 310.799 274.157 310.945C274.311 311.084 274.388 311.254 274.388 311.454C274.388 311.662 274.311 311.84 274.157 311.986C274.01 312.125 273.829 312.194 273.613 312.194H269.287C269.117 312.194 268.967 312.252 268.836 312.368C268.712 312.484 268.62 312.634 268.558 312.819C268.504 313.004 268.477 313.185 268.477 313.363C268.477 313.556 268.504 313.744 268.558 313.93C268.62 314.115 268.712 314.265 268.836 314.381C268.967 314.489 269.117 314.546 269.287 314.554H273.613C273.829 314.554 274.01 314.624 274.157 314.762C274.311 314.901 274.388 315.067 274.388 315.26C274.388 315.46 274.311 315.63 274.157 315.769C274.01 315.907 273.829 315.977 273.613 315.977H269.426ZM274.249 313.328C274.249 313.475 274.183 313.602 274.052 313.71C273.937 313.81 273.79 313.86 273.613 313.86H269.83C269.653 313.86 269.503 313.81 269.379 313.71C269.256 313.602 269.194 313.475 269.194 313.328C269.194 313.189 269.256 313.066 269.379 312.958C269.503 312.858 269.653 312.808 269.83 312.808H273.613C273.79 312.808 273.941 312.862 274.064 312.969C274.187 313.07 274.249 313.189 274.249 313.328ZM275.961 312.183C276.107 311.813 276.354 311.481 276.701 311.188C277.056 310.887 277.503 310.733 278.043 310.725H282.392C282.608 310.725 282.789 310.803 282.936 310.957C283.09 311.103 283.167 311.285 283.167 311.5C283.167 311.716 283.09 311.901 282.936 312.056C282.789 312.202 282.608 312.275 282.392 312.275H277.997C277.85 312.275 277.723 312.337 277.615 312.461C277.507 312.576 277.422 312.715 277.361 312.877C277.307 313.039 277.28 313.193 277.28 313.34V315.364C277.233 315.826 276.979 316.077 276.516 316.116C276.3 316.116 276.111 316.046 275.949 315.907C275.795 315.761 275.718 315.58 275.718 315.364V313.351H275.73C275.73 312.95 275.807 312.561 275.961 312.183Z" fill="black"/>
<path d="M201.513 307.993C201.82 307.217 202.338 306.522 203.065 305.907C203.809 305.276 204.748 304.953 205.88 304.936H215.002C215.455 304.936 215.835 305.098 216.143 305.422C216.466 305.729 216.628 306.109 216.628 306.562C216.628 307.015 216.466 307.403 216.143 307.727C215.835 308.034 215.455 308.188 215.002 308.188H205.783C205.475 308.188 205.209 308.317 204.982 308.576C204.756 308.818 204.578 309.11 204.448 309.449C204.335 309.789 204.279 310.112 204.279 310.42V314.666C204.182 315.636 203.648 316.162 202.677 316.243C202.224 316.243 201.828 316.097 201.488 315.806C201.165 315.499 201.003 315.118 201.003 314.666V310.444H201.027C201.027 309.603 201.189 308.786 201.513 307.993Z" fill="#2D4D8D"/>
<defs>
<linearGradient id="paint0_linear_1567_5152" x1="130.21" y1="0.0595703" x2="130.21" y2="158.449" gradientUnits="userSpaceOnUse">
<stop stop-color="#4D85F3"/>
<stop offset="1" stop-color="#2D4D8D"/>
</linearGradient>
<linearGradient id="paint1_linear_1567_5152" x1="176.79" y1="60.5508" x2="176.79" y2="218.941" gradientUnits="userSpaceOnUse">
<stop stop-color="#4D85F3"/>
<stop offset="1" stop-color="#2D4D8D"/>
</linearGradient>
<linearGradient id="paint2_linear_1567_5152" x1="153.593" y1="60.5498" x2="153.593" y2="158.45" gradientUnits="userSpaceOnUse">
<stop stop-color="#4D85F3"/>
<stop offset="1" stop-color="#2D4D8D"/>
</linearGradient>
<clipPath id="clip0_1567_5152">
<rect width="232" height="218.881" fill="white" transform="translate(37.5 0.0595703)"/>
</clipPath>
</defs>
</svg>
