<svg width="286" height="59" viewBox="0 0 286 59" fill="none" xmlns="http://www.w3.org/2000/svg">
<g clip-path="url(#clip0_1567_4672)">
<mask id="mask0_1567_4672" style="mask-type:luminance" maskUnits="userSpaceOnUse" x="114" y="0" width="49" height="50">
<path d="M162.992 0H114.4V49.5H162.992V0Z" fill="white"/>
</mask>
<g mask="url(#mask0_1567_4672)">
<path opacity="0.945799" d="M124.195 1.64733e-09C121.607 3.62302e-05 119.126 1.16633 117.296 3.24232C115.467 5.31831 114.439 8.13395 114.439 11.0699C114.439 14.0058 115.466 16.8215 117.296 18.8975C119.126 20.9736 121.607 22.1399 124.195 22.1399H143.48C144.09 22.14 144.676 22.415 145.107 22.9045C145.538 23.3939 145.78 24.0579 145.78 24.7501C145.78 25.4421 145.538 26.1061 145.107 26.5955C144.676 27.0851 144.09 27.3601 143.48 27.3601L118.157 27.3599C117.16 27.3599 116.205 27.8056 115.5 28.5987C114.796 29.3921 114.4 30.4679 114.4 31.5898C114.4 32.7117 114.796 33.7875 115.5 34.5809C116.205 35.3742 117.16 35.8197 118.157 35.8199H143.48C146.068 35.8197 148.549 34.6535 150.379 32.5776C152.208 30.5016 153.236 27.686 153.236 24.7501C153.236 21.8141 152.209 18.9984 150.379 16.9223C148.549 14.8463 146.068 13.6799 143.48 13.6799H124.195C123.585 13.6799 123 13.4049 122.568 12.9154C122.137 12.4259 121.895 11.762 121.895 11.0699C121.895 10.3777 122.137 9.71379 122.568 9.22431C123 8.73483 123.585 8.45983 124.195 8.45979H141.727H143.85H145.114H147.297H149.479C150.476 8.45981 151.431 8.0142 152.136 7.22098C152.84 6.42773 153.236 5.35187 153.236 4.23003C153.236 3.67451 153.139 3.12445 152.95 2.61124C152.762 2.09802 152.485 1.6317 152.136 1.2389C151.787 0.846107 151.373 0.534529 150.917 0.321959C150.461 0.109387 149.973 -1.55009e-05 149.479 1.64733e-09H147.297H145.114H143.85H141.727H124.195Z" fill="#F5F5FF"/>
<path opacity="0.945799" d="M149.435 6.2103C150.416 6.2103 151.212 5.30757 151.212 4.19401C151.212 3.08044 150.416 2.17773 149.435 2.17773C148.453 2.17773 147.658 3.08044 147.658 4.19401C147.658 5.30757 148.453 6.2103 149.435 6.2103Z" fill="#4D85F3"/>
<path opacity="0.945799" d="M133.951 13.6802C131.364 13.6802 128.882 14.8465 127.053 16.9225C125.223 18.9985 124.195 21.8142 124.195 24.7502C124.195 27.6861 125.223 30.5016 127.053 32.5777C128.882 34.6538 131.364 35.8202 133.951 35.8202H153.237C153.847 35.8202 154.432 36.0952 154.863 36.5846C155.295 37.0742 155.537 37.738 155.537 38.4302C155.537 39.1225 155.295 39.7862 154.863 40.2759C154.432 40.7652 153.847 41.0402 153.237 41.0402L127.913 41.04C126.917 41.04 125.961 41.4858 125.256 42.2791C124.552 43.0722 124.156 44.1482 124.156 45.2702C124.156 46.3919 124.552 47.4679 125.256 48.261C125.961 49.0543 126.917 49.5001 127.913 49.5001H153.237C155.824 49.5001 158.306 48.3338 160.135 46.2578C161.965 44.1817 162.993 41.3661 162.993 38.4302C162.993 35.4944 161.965 32.6786 160.135 30.6025C158.306 28.5264 155.824 27.3602 153.237 27.3602H133.951C133.341 27.3602 132.756 27.0852 132.325 26.5956C131.893 26.1062 131.651 25.4422 131.651 24.7502C131.651 24.0579 131.893 23.394 132.325 22.9046C132.756 22.4151 133.341 22.1401 133.951 22.14H151.484H153.606H154.87H157.053H159.236C160.232 22.14 161.188 21.6944 161.892 20.9012C162.597 20.108 162.993 19.0321 162.993 17.9102C162.993 17.3547 162.896 16.8046 162.707 16.2914C162.518 15.7782 162.241 15.3119 161.892 14.9191C161.544 14.5263 161.129 14.2147 160.673 14.0021C160.218 13.7896 159.729 13.6802 159.236 13.6802H157.053H154.87H153.606H151.484H133.951Z" fill="#F5F5FF"/>
<path opacity="0.945799" d="M127.913 47.2864C128.895 47.2864 129.69 46.3836 129.69 45.27C129.69 44.1565 128.895 43.2539 127.913 43.2539C126.932 43.2539 126.136 44.1565 126.136 45.27C126.136 46.3836 126.932 47.2864 127.913 47.2864Z" fill="#4D85F3"/>
<path d="M133.951 13.6797C133.432 13.6837 132.913 13.7347 132.401 13.8323C132.311 13.853 132.222 13.875 132.133 13.8985C131.706 13.9895 131.285 14.1129 130.872 14.2676C130.783 14.3037 130.694 14.3413 130.606 14.3804C130.189 14.5534 129.783 14.7584 129.391 14.9941C129.328 15.0323 129.265 15.0713 129.203 15.1111C128.771 15.3843 128.358 15.6943 127.968 16.0384C127.955 16.0501 127.941 16.062 127.927 16.0738C126.768 17.1063 125.83 18.4233 125.183 19.9259C124.537 21.4285 124.199 23.0778 124.195 24.7497C124.199 26.4214 124.537 28.07 125.183 29.5724C125.829 31.0747 126.766 32.3915 127.925 33.4239C127.94 33.4366 127.954 33.4495 127.97 33.4619C128.359 33.8052 128.77 34.1146 129.201 34.3873C129.264 34.4273 129.327 34.4667 129.391 34.5054C129.783 34.741 130.189 34.9459 130.606 35.1189C130.693 35.1578 130.782 35.1951 130.87 35.2309C131.282 35.3855 131.703 35.509 132.129 35.6002C132.219 35.6239 132.31 35.6463 132.401 35.6673C132.912 35.7648 133.43 35.8157 133.948 35.8198C133.949 35.8198 133.95 35.8198 133.951 35.82C133.952 35.8198 133.953 35.8198 133.954 35.8198H143.477C143.478 35.8198 143.48 35.8198 143.481 35.82C144 35.8159 144.518 35.7648 145.031 35.6673C145.12 35.6467 145.209 35.6248 145.297 35.6017C145.725 35.5104 146.147 35.3869 146.56 35.2318C146.649 35.1958 146.737 35.1585 146.824 35.1198C147.242 34.9466 147.648 34.7412 148.041 34.5049C148.104 34.4671 148.166 34.4287 148.228 34.3894C148.66 34.1155 149.074 33.8048 149.465 33.4596C149.478 33.4488 149.491 33.4379 149.504 33.4269C150.663 32.3945 151.601 31.0774 152.248 29.5744C152.895 28.0716 153.233 26.4221 153.237 24.7499C153.236 22.4493 152.604 20.206 151.428 18.3318C150.252 16.4577 148.591 15.0458 146.675 14.2924L146.675 14.2921L146.674 14.2919C146.17 14.0941 145.652 13.9435 145.126 13.8418C145.112 13.8389 145.097 13.836 145.083 13.8331C144.556 13.7326 144.022 13.6813 143.487 13.68C143.485 13.6799 143.483 13.6798 143.48 13.6797C143.479 13.6798 143.478 13.6799 143.477 13.68H133.96C133.957 13.6799 133.954 13.6798 133.951 13.6797ZM133.951 22.1397H143.445H143.594V22.1457C144.177 22.1885 144.724 22.4815 145.123 22.9651C145.523 23.4489 145.745 24.0869 145.745 24.7497C145.744 25.4116 145.521 26.0483 145.121 26.5306C144.722 27.013 144.176 27.3052 143.594 27.3479V27.3599H143.445H133.951C133.341 27.3597 132.756 27.0847 132.324 26.5953C131.893 26.1059 131.651 25.4419 131.651 24.7499C131.651 24.0577 131.893 23.3937 132.324 22.9043C132.756 22.4149 133.341 22.1398 133.951 22.1397Z" fill="#4D85F3"/>
</g>
<path d="M3.11459 24.8565C3.58428 23.5753 4.37529 22.4277 5.48765 21.4134C6.62475 20.3725 8.05847 19.8387 9.78882 19.812H23.7306C24.4227 19.812 25.0035 20.0789 25.4732 20.6127C25.9678 21.1198 26.2148 21.7471 26.2148 22.4944C26.2148 23.2417 25.9678 23.8823 25.4732 24.4161C25.0035 24.9232 24.4227 25.1768 23.7306 25.1768H9.64052C9.17084 25.1768 8.76297 25.3903 8.41691 25.8173C8.07083 26.2177 7.79893 26.6981 7.60117 27.2587C7.42814 27.8191 7.3416 28.3529 7.3416 28.86V35.8664C7.1933 37.4676 6.37756 38.3352 4.8944 38.4686C4.20226 38.4686 3.59663 38.2284 3.07751 37.7479C2.58313 37.2408 2.33594 36.6136 2.33594 35.8664V28.9002H2.37302C2.37302 27.5122 2.62021 26.1643 3.11459 24.8565ZM37.4869 37.9881C35.3116 37.9079 33.6678 37.3609 32.5554 36.3466C31.4429 35.3057 30.6397 34.1448 30.1453 32.8635C29.6508 31.5556 29.4037 30.2347 29.4037 28.9002C29.4037 27.5122 29.6384 26.1777 30.1081 24.8965C30.6024 23.5887 31.406 22.4277 32.5184 21.4134C33.6555 20.3725 35.0892 19.8387 36.8195 19.812H50.9094C51.6017 19.812 52.1826 20.0655 52.6523 20.5727C53.1466 21.0531 53.3937 21.6403 53.3937 22.3342C53.3937 23.0549 53.1466 23.6688 52.6523 24.1759C52.1826 24.6563 51.6017 24.8965 50.9094 24.8965H37.0419C36.4982 24.8965 36.016 25.0967 35.5959 25.497C35.2004 25.8974 34.9038 26.4179 34.7061 27.0585C34.533 27.699 34.4464 28.3262 34.4464 28.9401C34.4464 29.6072 34.533 30.2613 34.7061 30.9018C34.9038 31.5423 35.2004 32.0628 35.5959 32.4631C36.016 32.8369 36.4982 33.0371 37.0419 33.0637H50.9094C51.6017 33.0637 52.1826 33.3041 52.6523 33.7843C53.1466 34.2648 53.3937 34.8385 53.3937 35.5059C53.3937 36.1999 53.1466 36.7872 52.6523 37.2674C52.1826 37.7479 51.6017 37.9881 50.9094 37.9881H37.4869ZM52.9489 28.8201C52.9489 29.3272 52.7388 29.7675 52.3185 30.1413C51.9477 30.4881 51.478 30.6617 50.9094 30.6617H38.7848C38.2162 30.6617 37.7342 30.4881 37.3385 30.1413C36.943 29.7675 36.7453 29.3272 36.7453 28.8201C36.7453 28.3395 36.943 27.9125 37.3385 27.5388C37.7342 27.1919 38.2162 27.0183 38.7848 27.0183H50.9094C51.478 27.0183 51.96 27.2052 52.3557 27.579C52.7512 27.9259 52.9489 28.3395 52.9489 28.8201ZM81.203 22.1341C81.203 22.8013 80.9559 23.3618 80.4616 23.8155C79.9919 24.2426 79.411 24.4561 78.7187 24.4561H63.0343C62.7131 24.4561 62.4535 24.5228 62.2557 24.6563C62.058 24.7897 61.9096 24.9366 61.8107 25.0967C61.7118 25.2301 61.6625 25.3502 61.6625 25.457C61.6625 25.5905 61.7118 25.7373 61.8107 25.8974C61.9096 26.0309 62.058 26.1643 62.2557 26.2978C62.4535 26.4045 62.7131 26.4712 63.0343 26.4979H75.1593C76.7165 26.5246 78.002 26.8584 79.0153 27.4989C80.0289 28.1127 80.7459 28.8467 81.166 29.7007C81.611 30.5281 81.8334 31.369 81.8334 32.223C81.8334 33.0504 81.611 33.8911 81.166 34.7454C80.721 35.5727 79.9919 36.3067 78.9784 36.9472C77.9897 37.5611 76.7165 37.868 75.1593 37.868C74.8873 37.8946 74.6896 37.9079 74.5661 37.9079H60.1793C59.4872 37.9079 58.8938 37.6944 58.3994 37.2674C57.9297 36.8138 57.695 36.2665 57.695 35.626C57.695 34.9589 57.9421 34.3982 58.4367 33.9446C58.9063 33.5176 59.4872 33.3041 60.1793 33.3041H75.4559C75.8267 33.3307 76.1233 33.2772 76.3457 33.1438C76.593 33.0105 76.7784 32.8635 76.9019 32.7035C77.0254 32.5433 77.0873 32.3833 77.0873 32.223C77.0873 32.1429 77.0254 32.0095 76.9019 31.8226C76.7784 31.6091 76.593 31.4489 76.3457 31.3421C76.1233 31.2088 75.8267 31.1286 75.4559 31.102H63.294C61.8603 31.0754 60.6736 30.7551 59.7343 30.1413C58.7949 29.5005 58.1275 28.7665 57.732 27.9392C57.3365 27.1118 57.1388 26.2844 57.1388 25.457C57.1388 24.6296 57.3365 23.8155 57.732 23.0148C58.1524 22.1875 58.8198 21.4802 59.7343 20.893C60.6736 20.2791 61.8603 19.9455 63.294 19.8921C63.541 19.8654 63.7264 19.8521 63.8502 19.8521H78.7187C79.411 19.8521 79.9919 20.0789 80.4616 20.5326C80.9559 20.9597 81.203 21.4935 81.203 22.1341ZM90.9548 41.4712C90.8067 43.0727 89.9908 43.94 88.5076 44.0736C87.8155 44.0736 87.21 43.8199 86.6907 43.3128C86.1964 42.8323 85.9491 42.2184 85.9491 41.4712V22.4143C85.974 21.667 86.2334 21.0531 86.728 20.5727C87.2223 20.0655 87.8155 19.812 88.5076 19.812H104.081C106.256 19.8921 107.9 20.4526 109.012 21.4935C110.125 22.5077 110.928 23.6688 111.423 24.9766C111.917 26.2577 112.164 27.5657 112.164 28.9002C112.164 30.2879 111.917 31.6358 111.423 32.9436C110.953 34.2246 110.149 35.3859 109.012 36.4267C107.9 37.441 106.479 37.9614 104.748 37.9881H95.4044C94.7123 37.9881 94.1314 37.7213 93.6617 37.1873C93.1674 36.6802 92.9201 36.053 92.9201 35.3057C92.9201 34.5585 93.1548 33.9313 93.6245 33.4242C94.1191 32.8901 94.7123 32.6234 95.4044 32.6234H104.897C105.366 32.6234 105.774 32.4232 106.12 32.0228C106.466 31.5958 106.713 31.1153 106.862 30.5816C107.035 30.0209 107.121 29.4739 107.121 28.9401C107.121 28.3795 107.035 27.8324 106.862 27.2987C106.713 26.738 106.466 26.2577 106.12 25.8574C105.774 25.4303 105.366 25.2035 104.897 25.1768H91.9189C91.2764 25.2035 90.9548 25.5504 90.9548 26.2177V41.4712Z" fill="#F5F5FF"/>
<path d="M177.891 19.7847C179.177 19.7847 180.437 19.9448 181.673 20.2651C182.934 20.5854 184.133 21.0658 185.27 21.7064C186.407 22.3203 187.408 23.1476 188.273 24.1886C189.163 25.2295 189.645 26.4706 189.72 27.9118V29.5934V36.4396C189.571 38.0408 188.755 38.9084 187.272 39.0418C186.58 39.0418 185.974 38.8016 185.455 38.3211C184.961 37.814 184.714 37.1868 184.714 36.4396V34.6778V29.1529C184.664 28.3255 184.368 27.645 183.824 27.1112C183.305 26.5507 182.712 26.1103 182.044 25.79C181.401 25.4697 180.722 25.2295 180.005 25.0694C179.313 24.9092 178.608 24.8291 177.891 24.8291C177.174 24.8291 176.457 24.9092 175.741 25.0694C175.048 25.2295 174.369 25.4697 173.701 25.79C173.059 26.1103 172.465 26.5507 171.921 27.1112C171.402 27.645 171.118 28.3255 171.069 29.1529V34.6778V36.4396C170.945 38.0408 170.142 38.9084 168.659 39.0418C167.966 39.0418 167.361 38.8016 166.842 38.3211C166.347 37.814 166.1 37.1868 166.1 36.4396V29.5934V27.9118C166.174 26.4706 166.644 25.2295 167.509 24.1886C168.374 23.1476 169.376 22.3203 170.512 21.7064C171.649 21.0658 172.836 20.5854 174.072 20.2651C175.333 19.9448 176.606 19.7847 177.891 19.7847ZM215.082 16.9021C215.23 15.3007 216.046 14.4333 217.529 14.2998C218.221 14.2998 218.814 14.5534 219.309 15.0605C219.828 15.5409 220.087 16.1548 220.087 16.9021V35.9591C220.062 36.7063 219.803 37.3335 219.309 37.8406C218.814 38.3211 218.221 38.5613 217.529 38.5613H201.956C199.78 38.4811 198.136 37.9341 197.024 36.9198C195.912 35.8789 195.108 34.718 194.614 33.4367C194.119 32.1288 193.872 30.8079 193.872 29.4734C193.872 28.0854 194.107 26.7508 194.577 25.4697C195.071 24.1619 195.875 23.0009 196.987 21.9866C198.124 20.9457 199.558 20.4119 201.288 20.3852H210.632C211.324 20.3852 211.905 20.6521 212.375 21.1859C212.869 21.693 213.116 22.3203 213.116 23.0676C213.116 23.8149 212.869 24.4555 212.375 24.9893C211.905 25.4964 211.324 25.75 210.632 25.75H201.14C200.67 25.75 200.262 25.9635 199.916 26.3905C199.57 26.7909 199.311 27.2713 199.138 27.8319C198.989 28.3657 198.915 28.8994 198.915 29.4332C198.915 29.9938 198.989 30.5542 199.138 31.1148C199.311 31.6486 199.57 32.1288 199.916 32.5561C200.262 32.9565 200.67 33.17 201.14 33.1966H214.118C214.76 33.17 215.082 32.8228 215.082 32.1557V16.9021ZM232.583 38.5613C230.407 38.4811 228.764 37.9341 227.651 36.9198C226.539 35.8789 225.736 34.718 225.241 33.4367C224.747 32.1288 224.5 30.8079 224.5 29.4734C224.5 28.0854 224.735 26.7508 225.204 25.4697C225.699 24.1619 226.502 23.0009 227.614 21.9866C228.751 20.9457 230.185 20.4119 231.915 20.3852H246.006C246.697 20.3852 247.278 20.6387 247.749 21.1459C248.243 21.6263 248.489 22.2135 248.489 22.9074C248.489 23.6281 248.243 24.242 247.749 24.7491C247.278 25.2295 246.697 25.4697 246.006 25.4697H232.138C231.594 25.4697 231.112 25.6699 230.692 26.0702C230.296 26.4706 230 26.991 229.802 27.6317C229.629 28.2722 229.542 28.8994 229.542 29.5133C229.542 30.1804 229.629 30.8345 229.802 31.475C230 32.1155 230.296 32.636 230.692 33.0363C231.112 33.4101 231.594 33.6103 232.138 33.6369H246.006C246.697 33.6369 247.278 33.8773 247.749 34.3575C248.243 34.838 248.489 35.4117 248.489 36.0791C248.489 36.7731 248.243 37.3604 247.749 37.8406C247.278 38.3211 246.697 38.5613 246.006 38.5613H232.583ZM248.045 29.3932C248.045 29.9004 247.836 30.3407 247.414 30.7144C247.044 31.0613 246.573 31.2349 246.006 31.2349H233.881C233.312 31.2349 232.83 31.0613 232.435 30.7144C232.039 30.3407 231.841 29.9004 231.841 29.3932C231.841 28.9127 232.039 28.4857 232.435 28.112C232.83 27.7651 233.312 27.5915 233.881 27.5915H246.006C246.573 27.5915 247.057 27.7784 247.451 28.1522C247.848 28.499 248.045 28.9127 248.045 29.3932ZM253.534 25.4297C254.002 24.1485 254.793 23.0009 255.905 21.9866C257.042 20.9457 258.477 20.4119 260.208 20.3852H274.148C274.841 20.3852 275.422 20.6521 275.891 21.1859C276.386 21.693 276.633 22.3203 276.633 23.0676C276.633 23.8149 276.386 24.4555 275.891 24.9893C275.422 25.4964 274.841 25.75 274.148 25.75H260.057C259.589 25.75 259.182 25.9635 258.834 26.3905C258.489 26.7909 258.218 27.2713 258.018 27.8319C257.846 28.3923 257.759 28.9261 257.759 29.4332V36.4396C257.611 38.0408 256.795 38.9084 255.311 39.0418C254.621 39.0418 254.014 38.8016 253.497 38.3211C253.001 37.814 252.754 37.1868 252.754 36.4396V29.4734H252.791C252.791 28.0854 253.038 26.7375 253.534 25.4297Z" fill="#F5F5FF"/>
<path d="M212.28 6.81363C217.405 5.36607 220.484 -0.599856 225.406 3.1069C230.327 6.81363 232.787 8.2962 237.298 8.148C241.809 7.99974 248.166 4.14478 248.166 4.14478" stroke="#F5F5FF" stroke-width="1.1"/>
<path d="M212.686 10.4401C217.812 8.99256 220.891 3.0266 225.812 6.73336C230.733 10.4401 233.193 11.9227 237.705 11.7745C242.215 11.6262 248.572 7.77125 248.572 7.77125" stroke="#4D85F3" stroke-width="1.1"/>
<path d="M212.28 13.5036C217.405 12.056 220.484 6.09009 225.406 9.79683C230.327 13.5036 232.787 14.9862 237.298 14.8379C241.809 14.6897 248.166 10.8347 248.166 10.8347" stroke="#F5F5FF" stroke-width="1.1"/>
</g>
<defs>
<clipPath id="clip0_1567_4672">
<rect width="286" height="58.3" fill="white"/>
</clipPath>
</defs>
</svg>
