<svg width="24" height="24" viewBox="0 0 24 24" fill="none" xmlns="http://www.w3.org/2000/svg">
<path d="M12 7C13.5524 6.99994 15.0444 7.60157 16.1625 8.67847C17.2806 9.75537 17.9378 11.2237 17.996 12.775L18 13V20H19C19.2549 20.0003 19.5 20.0979 19.6854 20.2728C19.8707 20.4478 19.9822 20.687 19.9972 20.9414C20.0121 21.1958 19.9293 21.4464 19.7657 21.6418C19.6022 21.8373 19.3701 21.9629 19.117 21.993L19 22H5.00001C4.74513 21.9997 4.49998 21.9021 4.31464 21.7272C4.12931 21.5522 4.01778 21.313 4.00284 21.0586C3.9879 20.8042 4.07069 20.5536 4.23428 20.3582C4.39787 20.1627 4.62992 20.0371 4.88301 20.007L5.00001 20H6.00001V13C6.00001 11.4087 6.63215 9.88258 7.75737 8.75736C8.88259 7.63214 10.4087 7 12 7ZM12 9C10.9391 9 9.92173 9.42143 9.17159 10.1716C8.42144 10.9217 8.00001 11.9391 8.00001 13V20H16V13C16 11.9391 15.5786 10.9217 14.8284 10.1716C14.0783 9.42143 13.0609 9 12 9ZM12.515 11.643C12.742 11.7796 12.9055 12.0007 12.9696 12.2578C13.0337 12.5148 12.9932 12.7868 12.857 13.014L12.267 14H13.482C14.267 14 14.752 14.857 14.348 15.53L12.858 18.015C12.7214 18.2426 12.5 18.4065 12.2425 18.4709C11.9851 18.5352 11.7126 18.4946 11.485 18.358C11.2575 18.2214 11.0935 18 11.0292 17.7425C10.9648 17.4851 11.0054 17.2126 11.142 16.985L11.734 16H10.518C10.3392 16 10.1636 15.9526 10.0092 15.8626C9.85474 15.7725 9.72696 15.6431 9.6389 15.4875C9.55083 15.3319 9.50564 15.1557 9.50795 14.977C9.51025 14.7982 9.55997 14.6233 9.65201 14.47L11.142 11.985C11.2097 11.8723 11.2988 11.7741 11.4045 11.6959C11.5101 11.6178 11.6301 11.5612 11.7576 11.5294C11.8851 11.4977 12.0177 11.4914 12.1476 11.5108C12.2776 11.5303 12.4024 11.5752 12.515 11.643ZM5.63601 5.222L6.34301 5.929C6.5208 6.11832 6.61796 6.36939 6.61393 6.62908C6.60989 6.88876 6.50499 7.13669 6.3214 7.32041C6.13782 7.50412 5.88997 7.6092 5.63028 7.61342C5.3706 7.61763 5.11946 7.52066 4.93001 7.343L4.22301 6.636C4.1275 6.54375 4.05132 6.43341 3.99891 6.3114C3.9465 6.1894 3.91892 6.05818 3.91776 5.9254C3.91661 5.79262 3.94191 5.66094 3.99219 5.53805C4.04247 5.41515 4.11673 5.3035 4.21062 5.20961C4.30451 5.11571 4.41616 5.04146 4.53906 4.99118C4.66195 4.9409 4.79363 4.9156 4.92641 4.91675C5.05919 4.9179 5.19041 4.94549 5.31242 4.9979C5.43442 5.05031 5.54377 5.12649 5.63601 5.222ZM19.778 5.222C19.9502 5.39419 20.0536 5.62329 20.0689 5.86632C20.0842 6.10934 20.0103 6.3496 19.861 6.542L19.778 6.636L19.071 7.343C18.8911 7.52235 18.6496 7.62647 18.3956 7.63423C18.1417 7.64198 17.8943 7.55278 17.7037 7.38475C17.5132 7.21672 17.3937 6.98245 17.3696 6.72953C17.3455 6.4766 17.4186 6.22399 17.574 6.023L17.657 5.929L18.364 5.222C18.5515 5.03453 18.8058 4.92921 19.071 4.92921C19.3362 4.92921 19.5905 5.03453 19.778 5.222ZM12 2C12.2449 2.00003 12.4813 2.08996 12.6644 2.25272C12.8474 2.41547 12.9644 2.63975 12.993 2.883L13 3V4C12.9997 4.25488 12.9021 4.50003 12.7272 4.68537C12.5522 4.8707 12.3131 4.98223 12.0586 4.99717C11.8042 5.01211 11.5536 4.92933 11.3582 4.76574C11.1627 4.60214 11.0371 4.3701 11.007 4.117L11 4V3C11 2.73478 11.1054 2.48043 11.2929 2.29289C11.4804 2.10536 11.7348 2 12 2Z" fill="white"/>
</svg>
